<?xml version="1.0" encoding="utf-8"?>
<!-- Generator: Adobe Illustrator 22.0.1, SVG Export Plug-In . SVG Version: 6.00 Build 0)  -->
<svg version="1.1" id="Layer_1" xmlns="http://www.w3.org/2000/svg" xmlns:xlink="http://www.w3.org/1999/xlink" x="0px" y="0px"
	 viewBox="0 0 114.5 25" style="enable-background:new 0 0 114.5 25;" xml:space="preserve">
<style type="text/css">
	.st0{fill:#41A33F;}
	.st1{fill:#7BCA79;}
	.st2{fill:#4FAA45;}
	.st3{fill:#38A12A;}
	.st4{fill:#4BB33E;}
	.st5{fill:#44B932;}
	.st6{fill:#50BA40;}
	.st7{fill:#4FB73F;}
	.st8{fill:#4DAA3B;}
	.st9{fill:#49B23B;}
	.st10{fill:#51B343;}
	.st11{fill:#49A446;}
	.st12{fill:#50B63E;}
	.st13{fill:#51B140;}
	.st14{fill:#4CB33D;}
	.st15{fill:#50B33A;}
	.st16{fill:#46AE38;}
	.st17{fill:#4CB63C;}
	.st18{fill:#51BA3D;}
	.st19{fill:#50B843;}
	.st20{fill:#52BA45;}
	.st21{fill:#55BB3E;}
	.st22{fill:#56B646;}
	.st23{fill:#66D55B;}
	.st24{fill:#57BB48;}
	.st25{fill:#8BE986;}
	.st26{fill:#4BA443;}
	.st27{fill:#6ADD51;}
	.st28{fill:#DFE6E1;}
	.st29{fill:#71E754;}
	.st30{fill:#C3D6BC;}
	.st31{fill:#83F55D;}
	.st32{fill:#BFE4ED;}
	.st33{fill:#51AC43;}
	.st34{fill:#60C851;}
	.st35{fill:#63C35E;}
	.st36{fill:#78EA59;}
	.st37{fill:#71CB64;}
	.st38{fill:#C1E5F6;}
	.st39{fill:#77CC7E;}
	.st40{fill:#67BF66;}
	.st41{fill:#52AB4F;}
	.st42{fill:#9FEC9B;}
	.st43{fill:#E3F7FA;}
	.st44{fill:#83EB78;}
	.st45{fill:#E8F3FA;}
	.st46{fill:#A7E4F3;}
	.st47{fill:#D9F9FD;}
	.st48{fill:#9FEDA7;}
	.st49{fill:#9BE992;}
	.st50{fill:#A5E3F0;}
	.st51{fill:#EEF9E7;}
	.st52{fill:#8CE28B;}
	.st53{fill:#CBFBFE;}
	.st54{fill:#7FD687;}
	.st55{fill:#BAE3ED;}
	.st56{fill:#96D8E5;}
	.st57{fill:#55AD47;}
	.st58{fill:#4EA547;}
	.st59{fill:#56B349;}
	.st60{fill:#218D1D;}
	.st61{fill:#4EA54C;}
	.st62{fill:#3EA840;}
	.st63{fill:#279C23;}
	.st64{fill:#4FAA48;}
	.st65{fill:#6CDB55;}
	.st66{fill:#58B940;}
	.st67{fill:#64C256;}
	.st68{fill:#4FB149;}
	.st69{fill:#49AA48;}
	.st70{fill:#5AB84F;}
	.st71{fill:#2D9E28;}
	.st72{fill:#268D21;}
	.st73{fill:#45A542;}
	.st74{fill:#4BB044;}
	.st75{fill:#4BA745;}
	.st76{fill:#47A943;}
	.st77{fill:#45AB3D;}
	.st78{fill:#4BA34A;}
	.st79{fill:#4CA941;}
	.st80{fill:#49A847;}
	.st81{fill:#43A83D;}
	.st82{fill:#49AA4C;}
	.st83{fill:#4CA654;}
	.st84{fill:#4AA74E;}
	.st85{fill:#58C546;}
	.st86{fill:#5FCF46;}
	.st87{fill:#52B340;}
	.st88{fill:#50AF53;}
	.st89{fill:#77EB5E;}
	.st90{fill:#76C876;}
	.st91{fill:#7BEF5E;}
	.st92{fill:#50B14D;}
	.st93{fill:#489D51;}
	.st94{fill:#469C45;}
	.st95{fill:#45A146;}
	.st96{fill:#48A541;}
	.st97{fill:#61D14D;}
	.st98{fill:#64D450;}
	.st99{fill:#DAF4ED;}
	.st100{fill:#B6C585;}
	.st101{fill:#D8EBA5;}
	.st102{fill:#F5FDE6;}
	.st103{fill:#74EF52;}
	.st104{fill:#C6F0F3;}
	.st105{fill:#CDEAE2;}
	.st106{fill:#C5D699;}
	.st107{fill:#7AB298;}
	.st108{fill:#7FFA51;}
	.st109{fill:#78F453;}
	.st110{fill:#54BD4A;}
	.st111{fill:#5AC64A;}
	.st112{fill:#62C54A;}
	.st113{fill:#71D955;}
	.st114{fill:#76E36A;}
	.st115{fill:#86F66E;}
	.st116{fill:#9CED88;}
	.st117{fill:#7DF76E;}
	.st118{fill:#82E279;}
	.st119{fill:#6DD66C;}
	.st120{fill:#78E468;}
	.st121{fill:#E3F0C5;}
	.st122{fill:#BFD3CB;}
	.st123{fill:#83F882;}
	.st124{fill:#8FF087;}
	.st125{fill:#75CC72;}
	.st126{fill:#98EB98;}
	.st127{fill:#59BB4A;}
	.st128{fill:#52A749;}
	.st129{fill:#4FA44B;}
	.st130{fill:#67D652;}
	.st131{fill:#5CC644;}
	.st132{fill:#6FCF74;}
	.st133{fill:#167D15;}
	.st134{fill:#248B38;}
	.st135{fill:#47B462;}
	.st136{fill:#4EA640;}
	.st137{fill:#52B04A;}
	.st138{fill:#51B14E;}
	.st139{fill:#4EB035;}
	.st140{fill:#4EB23D;}
	.st141{fill:#5FC050;}
	.st142{fill:#5CBE50;}
	.st143{fill:#55BA46;}
	.st144{fill:#47A147;}
	.st145{fill:#20901F;}
	.st146{fill:#218B1E;}
	.st147{fill:#49A44E;}
	.st148{fill:#49AE45;}
	.st149{fill:#348667;}
	.st150{fill:#46A150;}
	.st151{fill:#3FA340;}
	.st152{fill:#5CB162;}
	.st153{fill:#46A949;}
	.st154{fill:#48A54E;}
	.st155{fill:#61D344;}
	.st156{fill:#6DE558;}
	.st157{fill:#5DC84E;}
	.st158{fill:#5AB948;}
	.st159{fill:#449B4D;}
	.st160{fill:#419947;}
	.st161{fill:#B3C550;}
	.st162{fill:#B8C771;}
	.st163{fill:#DFEE68;}
	.st164{fill:#B3DDC6;}
	.st165{fill:#B5C942;}
	.st166{fill:#4E9C80;}
	.st167{fill:#7FFB58;}
	.st168{fill:#7CFA60;}
	.st169{fill:#83F95C;}
	.st170{fill:#5ACC4B;}
	.st171{fill:#7EF26B;}
	.st172{fill:#6ECB65;}
	.st173{fill:#51B23C;}
	.st174{fill:#4BAC3F;}
	.st175{fill:#70EC48;}
	.st176{fill:#74FB55;}
	.st177{fill:#75F353;}
	.st178{fill:#2D9267;}
	.st179{fill:#54AE3F;}
	.st180{fill:#E0F052;}
	.st181{fill:#F3FB4F;}
	.st182{fill:#79F64A;}
	.st183{fill:#70F950;}
</style>
<path class="st0" d="M50.2,25.5c-0.3,0-0.7,0-1,0c-0.5-0.5-0.2-1,0.1-1.5c0.4-0.7,0.4-1.2-0.4-1.4c-0.6-0.2-1.1-0.5-1.5-0.9
	c-0.5-0.6-0.7-1.3-0.7-2.1c0-0.5,0.1-1.1,0.3-1.5c0.4-0.6,1-0.9,1.6-1c0.9-0.1,1.8-0.1,2.7,0.1c0.2,0.1,0.4,0.2,0.6,0.4
	c0,0.2,0,0.5-0.2,0.7c-0.6,0.4-1.3,0.3-1.9,0.5c-1.1,0.3-0.7,0.9-0.3,1.4c0.6,0.7,1.4,1.1,2.1,1.7c0.7,0.8,1.8,1.4,1.3,2.7
	C52.1,25.2,51,24.9,50.2,25.5z"/>
<path class="st1" d="M0.2,23c0.2-0.5,0.4-1.1,0.5-1.6c1-3.3,3.1-4.6,6.4-4.2c0.8,0.1,1.6,0.1,2.4,0.1c0.1,0.1,0.1,0.2,0.2,0.3
	c-0.2,0.7-0.8,0.8-1.4,0.9c-1.2-0.1-2.4-0.4-3.5,0.3c-0.7,0.3-1.3,0.8-1.7,1.4c-0.4,0.5-0.7,1-0.9,1.7c-0.4,1-0.8,2-1.1,3
	c-0.1,0.2-0.3,0.4-0.4,0.5c-0.2,0-0.3,0-0.5,0C-0.2,24.6-0.2,23.8,0.2,23z"/>
<path class="st2" d="M113.8,23.9c0.4,0.4,0.9,0.9,0.9,1.6c-0.5,0-1,0-1.5,0c-2.2-0.6-4.4-0.7-6.6-0.3c-0.9,0-1.8,0.1-2.8,0
	c-0.4-1.6,1.5-1.5,1.9-2.5c1.6-0.8,3.1,0.3,4.7,0.1c0.9,0.1,1.8,0.4,2.7,0.7C113.4,23.6,113.6,23.8,113.8,23.9z"/>
<path class="st3" d="M52.7,24.5c0.1-1.2-1.2-1.6-1.5-2.5c0.9-0.6,1.5,0.1,2.1,0.6c0.6,0.5,1.1,1.3,2.1,1.2c1.6-0.8,3.1,0,4.7,0
	c0.5,0,0.8,0.5,0.3,1c-1.6,1-3.6,0-5.3,0.7c-0.5,0-1,0-1.5,0C53.5,25,52.4,25.4,52.7,24.5z"/>
<path class="st4" d="M10.2,25.5c-1.8,0-3.7,0-5.5,0c-0.9-0.8-2.3,0.4-3.1-0.8c2.8-1.7,5.7-1.3,8.5-0.1
	C10.3,24.9,10.4,25.2,10.2,25.5z"/>
<path class="st5" d="M55.2,25.5c1.7-1,3.8-0.1,5.5-1c0.1,0,0.2,0,0.3-0.1c1.3-0.1,2.5,0.1,3.8-0.4c0.6-0.1,1.2-0.1,1.8,0.2
	c0.2,0.2,0.3,0.4,0.2,0.6c-0.4,0.6-1.2,0.1-1.6,0.6C61.9,25.5,58.5,25.5,55.2,25.5z"/>
<path class="st6" d="M30.2,25.5c-3.8,0-7.7,0-11.5,0c-0.1-0.3-0.1-0.6,0.2-0.8c3.7-0.7,7.4-0.7,11,0C30.3,24.9,30.3,25.1,30.2,25.5z
	"/>
<path class="st7" d="M46.2,25.5c-2.5,0-5,0-7.5,0c-0.1-0.3,0-0.5,0.2-0.7c2.2-0.5,4.4-1.3,6.7-0.4c0.2,0.1,0.4,0.2,0.6,0.4
	C46.4,25,46.4,25.2,46.2,25.5z"/>
<path class="st8" d="M106.7,24.9c2.3-1.1,4.4-0.5,6.5,0.5c-1.7,0-3.3,0-5,0C107.8,25,107.1,25.4,106.7,24.9z"/>
<path class="st9" d="M101.2,25.5c-3.2,0-6.3,0-9.5,0c-0.2-0.3-0.1-0.5,0.2-0.8c0.4-0.3,0.8-0.4,1.2-0.4c2.6,0.1,5.3-0.5,7.9,0.4
	C101.3,24.9,101.4,25.1,101.2,25.5z"/>
<path class="st10" d="M18.7,25c0,0.2,0,0.3,0,0.5c-2.8,0-5.7,0-8.5,0c0-0.2,0-0.3,0-0.5c0.7-0.7,1.6-0.6,2.5-0.7c0.3,0,0.6,0,0.9,0
	C15.3,24.5,17.1,23.7,18.7,25z"/>
<path class="st11" d="M49.2,22c3.2,1.2-0.3,2.3,0,3.5c-0.2,0-0.3,0-0.5,0c-0.2-0.2-0.3-0.4-0.4-0.7C48.1,23.7,48.4,22.8,49.2,22z"/>
<path class="st12" d="M101.2,25.5c0-0.2,0-0.3,0-0.5c0.2-0.3,0.5-0.4,0.9-0.5c0.4,0,0.7,0,1,0.1c0.2,0.1,0.4,0.2,0.6,0.4
	c1,0,2,0,3,0c0.5,0,1.1-0.1,1.5,0.5C105.9,25.5,103.5,25.5,101.2,25.5z"/>
<path class="st13" d="M91.7,25c0,0.2,0,0.3,0,0.5c-2,0-4,0-6,0c-0.2-0.3-0.1-0.5,0.2-0.7c0.9-0.6,2-0.4,3-0.4
	C89.8,24.3,90.9,24.1,91.7,25z"/>
<path class="st14" d="M30.2,25.5c0-0.2,0-0.3,0-0.5c0.7-0.7,1.6-0.6,2.4-0.7c1.1,0.1,2.3-0.2,3.4,0.4c0.3,0.2,0.3,0.5,0.2,0.7
	C34.2,25.5,32.2,25.5,30.2,25.5z"/>
<path class="st15" d="M85.7,25c0,0.2,0,0.3,0,0.5c-1.8,0-3.7,0-5.5,0c-0.2-0.3-0.1-0.6,0.2-0.8C82.2,24.2,84,23.8,85.7,25z"/>
<path class="st16" d="M75.7,25.5c-1.8,0-3.7,0-5.5,0c-0.2-0.3-0.1-0.5,0.1-0.7c0.6-0.4,1.3-0.4,2-0.4c1.1,0,2.2-0.2,3.3,0.4
	C75.8,24.9,75.9,25.2,75.7,25.5z"/>
<path class="st17" d="M52.7,24.5c0.3,0.3,0.7,0.7,1,1c-1.2,0-2.3,0-3.5,0C50.8,24.7,51.7,24.4,52.7,24.5z"/>
<path class="st18" d="M70.2,25c0,0.2,0,0.3,0,0.5c-1.7,0-3.3,0-5,0c0.4-0.6,1-0.5,1.5-0.5C67.9,24.1,69,24,70.2,25z"/>
<path class="st19" d="M75.7,25.5c0-0.2,0-0.3,0-0.5c0.2-0.2,0.4-0.4,0.6-0.5c0.7-0.2,1.3-0.2,2-0.2c0.7,0,1.4,0.1,1.9,0.6
	c0,0.2,0,0.3,0,0.5C78.7,25.5,77.2,25.5,75.7,25.5z"/>
<path class="st20" d="M36.2,25.5c0-0.2,0-0.3,0-0.5c0.1-0.4,0.3-0.6,0.6-0.8c0.4-0.2,0.9-0.2,1.3,0c0.2,0.1,0.4,0.3,0.5,0.5
	c0,0.1,0.1,0.2,0.1,0.3c0,0.2,0,0.3,0,0.5C37.9,25.5,37,25.5,36.2,25.5z"/>
<path class="st21" d="M1.7,24.9c1,0.2,2.1-0.4,3,0.5c-1.3,0-2.7,0-4,0c0-0.2,0.1-0.3,0.1-0.5C1.1,24.7,1.4,24.6,1.7,24.9z"/>
<path class="st22" d="M48.7,25c0,0.2,0,0.3,0,0.5c-0.8,0-1.7,0-2.5,0c0-0.2,0-0.3,0-0.5c0.4-0.5,0.9-0.5,1.4-0.5
	C48.1,24.5,48.4,24.7,48.7,25z"/>
<path class="st23" d="M105.7,17c0.7,1.5,1.9,1.5,3.3,1.5c1.6-0.1,3.2,0,3.7,2c0.5,0.9,0.1,1.4-0.8,1.7c-0.4,0-0.7-0.1-1-0.3
	c-1.2-0.7-2.7-0.7-4-1c-2-0.9-2.7-3.4-4.9-4.1c-0.2-0.1-0.3-0.3-0.2-0.6c0.3-0.3,0.6-0.5,0.9-0.8C105.1,14.1,105.1,14.2,105.7,17z"
	/>
<path class="st24" d="M83.3,15.5c0.3-0.9,0.9-1.6,1.7-2.1c1.1-0.3,2-1.1,3-1.4c1.2-0.2,2.3-0.7,3.6-0.7c0.4-0.1,0.7-0.1,1.1,0.1l0,0
	c0.3,2.8-1.1,5.3-1.4,7.9c-0.4,0.4-0.7,0.2-1-0.2c-0.8-1.2,0.4-3.2-1-3.8c-1.1-0.5-2.7,0.3-4.1,0.3c-0.3,0-0.7,0.1-1,0.1
	C83.9,15.8,83.6,15.7,83.3,15.5z"/>
<path class="st25" d="M65.3,9.5c2.4-0.4,5,0.1,7.2-1.8c1.1-1,3.3,0.4,3.7,2.2c0.4,1.6,0.7,3.2,1,4.8c-0.1,0.1-0.2,0.2-0.2,0.3
	c-1.9-1-1.3-3.2-2.3-4.6c-0.8-1.3-1.6-1.6-2.5-0.2c-0.3,0.4-0.6,0.8-1,1c-0.4,0.1-0.7,0.2-1.1,0.1c-1.5-0.7-3.2-0.6-4.7-1.2
	C65,9.9,65.1,9.7,65.3,9.5z"/>
<path class="st26" d="M82.2,16.4c0.1-0.1,0.3-0.1,0.4-0.1c2.5,0.3,5.2-0.7,7.5,0.9c0.4,0.5,0.3,1,0.3,1.6c0,0.5,0.2,1.1-0.1,1.6
	c-0.2,0.2-0.4,0.3-0.7,0.2c-1.1-1.8-2.9-1.3-4.5-1.4c-1.4,0-2.9-0.1-4.2,0.7c-0.4,0.1-0.7,0.1-1.1-0.1c-0.2-0.1-0.4-0.3-0.4-0.5
	c0-0.5,0.3-0.9,0.7-1.2c0.2-0.1,0.4-0.2,0.6-0.3C81.3,17.3,81.7,16.8,82.2,16.4z"/>
<path class="st27" d="M93.7,12c0.2,0,0.3,0,0.5,0c0.7,1-0.2,1.8-0.4,2.7c-0.3,1-1.1,1.9-0.3,2.9c2.4,1,4.7,1.5,6.8-0.7
	c0.2-0.2,0.6-0.1,1,0c0.3,0.3,0.3,0.7,0.3,1.1c-0.5,1.4-1.3,2.5-3,2.4c-1.8-0.4-3.6-0.1-5.3-0.3c-1.1-0.2-1.6-0.9-1.7-1.8
	C91.2,15.8,91.9,13.7,93.7,12z"/>
<path class="st28" d="M53.7,0.9c1.1,1,1.9,3.1,4,1.5c0.2,0.1,0.4,0.3,0.5,0.5c1.1,1.7,2.5,3.2,3.2,5.1c0,0.2-0.1,0.4-0.3,0.6
	C59.9,9,59.5,8,58.9,7.3c-1.1-1.1-1.9-2.6-3.7-2.8c-0.3-0.1-0.7-0.2-1-0.4C54,4,53.9,3.8,53.8,3.6c-0.2-0.5-0.4-1.1-0.5-1.7
	C53.3,1.5,53.4,1.2,53.7,0.9L53.7,0.9z"/>
<path class="st29" d="M101.2,17c-2.5,2.9-5.4,2.5-8.5,1c0.3-0.4,0.7-0.7,1.2-0.9c1.8-0.3,3.8,1.1,5.3-0.8c0.4-0.1,0.7-0.1,1.1,0.1
	c0.5-0.1,1-0.2,1.5-0.2c0,0.1,0,0.2,0,0.3C101.8,16.9,101.6,17.1,101.2,17z"/>
<path class="st30" d="M59.2,7c0.7,0.5,0.9,1.6,2,1.5c0.4-0.1,0.6,0,0.5,0.5c-1,0.7-1.5,1.3,0,1.9c0,0.1,0.1,0.2,0.1,0.3
	c0,0.3-0.2,0.6-0.4,0.8c-0.4,0.4-0.5,1.2-1.3,1.1c-0.2-0.1-0.3-0.3-0.5-0.4c-0.5-0.7-1.5-0.1-2.1-0.6c-0.1-0.2-0.1-0.4-0.1-0.7
	C59,10.2,58.7,8.4,59.2,7z"/>
<path class="st31" d="M100.2,16.4c-0.3,0-0.7,0-1,0.1c-0.3,0.3-0.6,0.4-1,0.4c-0.2,0-0.5-0.1-0.7-0.3c-1-1.1-0.6-3.2-2.5-3.7
	c-0.1-0.4-0.1-0.7,0.2-1c2.1-1.6,2.4,0.4,2.9,1.6C98.5,14.7,99,15.7,100.2,16.4z"/>
<path class="st32" d="M61.7,8.9c-0.2-0.2-0.3-0.3-0.5-0.5c0-0.2,0-0.3,0-0.5C61,6.9,61,5.8,61,4.8C61.2,4,60.9,3,62.2,2.9
	C63.8,6.1,63.7,7.3,61.7,8.9z"/>
<path class="st33" d="M90.2,17.5c-1.7-0.6-3.4-0.5-5.1-0.5c-0.9,0-1.9,0.3-2.5-0.7c0.2-0.3,0.5-0.6,0.7-0.8c0.3,0,0.6,0,0.9,0
	c1.2,0,2.5,0,3.7,0C89.2,15.5,90.3,15.9,90.2,17.5z"/>
<path class="st34" d="M93.7,12c-1,1.3-1.7,2.9-1.9,4.5c-0.2,1.2-0.2,2.5,1.4,3c0.3,0.4,0.9,0.1,1.1,0.6c0,0.2,0,0.4-0.2,0.6
	c-0.3,0.2-0.6,0.3-1,0.3c-0.4,0-0.7,0-1.1-0.1c-0.6-0.3-1.1-0.6-0.9-1.4c-0.4-2.9,0.7-5.4,1.6-8.1C93.1,11.6,93.4,11.8,93.7,12z"/>
<path class="st35" d="M92.8,11.4c-0.4,0-0.7,0.1-1.1,0.1c-1.2,0.4-2.4,0.3-3.5,1c-1,0.4-1.9,1.2-3.1,0.9
	C87.4,11.7,89.5,9.4,92.8,11.4z"/>
<path class="st36" d="M95.2,11.8c0,0.4,0,0.7,0,1.1c0,0.7-0.5,1.2-0.7,1.7c-0.2,0.6-0.2,1.3-0.3,1.9c-0.1,0.3-0.3,0.6-0.5,0.9
	c-0.2,0.4-0.6,0.5-1,0.5c-1-2.3,1.2-3.9,1.5-5.9C94.5,12,94.8,11.9,95.2,11.8z"/>
<path class="st37" d="M77.2,14.8c0.7,1.4,1.4,2.9,3.4,2.6c0.1,0.1,0.2,0.2,0.2,0.4c0,0.1-0.1,0.2-0.1,0.2l0,0
	c-0.5,0.4-1.1,0.5-1.7,0.7c-1,0.3-1.9,1.3-2.9,0.1c0-0.9,0.6-1.8,0.6-2.7c0.1-0.4,0.2-0.7,0.5-0.9C77.2,15,77.3,14.9,77.2,14.8z"/>
<path class="st38" d="M62.2,2.9c-0.7,0.5-0.4,1.3-0.5,2c-1.3-0.7-2.7-1.4-4-2c0-0.2,0-0.3,0-0.5C59.3,1.4,60.8,2.1,62.2,2.9z"/>
<path class="st39" d="M105.7,17c-0.4-1.7-1.4-2.3-3.1-1.5c0.6-0.9,1.2-2.2,2.3-1.7C106.2,14.2,105.8,15.8,105.7,17z"/>
<path class="st40" d="M111.7,21.9c0.7-0.3,1-0.8,1-1.5c1,1,1,2.2,1.1,3.5c-0.2,0-0.4,0-0.6,0.1C112.7,23.3,111.4,23.2,111.7,21.9z"
	/>
<path class="st41" d="M80.7,17.9c0-0.2,0-0.4,0-0.6c0.5-0.4,0.8-1,1.6-1C81.8,17.1,81.7,17.9,80.7,17.9z"/>
<path class="st42" d="M28.1,6.9c2-0.6,3.6,0.5,4.5,2.9c0.2,0.6-0.1,1.7,0.9,1.8c0.8,0.1,1-0.8,1.3-1.4c0.8-1.4,2.3-1.7,3.4-1.1
	c2.5,1.5,5.2,2.9,6.5,5.8c-1.1,0.4-1.6-0.7-2.4-1c-1.4-0.8-3-1.5-4.2-2.6c-0.2-0.1-0.3-0.3-0.5-0.4c-0.5-0.4-1.1-0.4-1.7,0
	c-0.7,0.6-1,1.7-1.8,2.3c-0.2,0.1-0.4,0.2-0.7,0.2c-1.1-0.1-1.8-0.7-2.2-1.7c-0.5-1.7-0.8-3.5-2.8-4.3C28.4,7.3,28.2,7.1,28.1,6.9z"
	/>
<path class="st43" d="M53.7,2c0.2,0.5,0.3,1,0.5,1.5c-1.1,1-2.4,1.7-3.2,3c-0.2,0.3-0.5,0.5-0.8,0.5c-0.8-0.4-1.5-1-1.5-2
	c0.5-0.6,0.6-1.6,1.4-2C51.3,2.4,52.1,0.9,53.7,2z"/>
<path class="st44" d="M9.6,17.3c0.2-0.5,0.4-0.9,0.6-1.4c1.1-2.8,1.2-2.9,4.1-1.6c0.3,0.1,0.6,0.3,0.9,0c0.1-0.2,0.3-0.3,0.4-0.5
	c0.1,0.1,0.2,0.2,0.3,0.2c0.3,0.6,0.3,1.2,0.1,1.8c-0.5,0.9-1.5,1.3-2.3,0.9c-1.4-0.7-2.3,0.1-3.3,0.8c-0.2,0.1-0.4,0.1-0.7,0
	C9.7,17.5,9.6,17.4,9.6,17.3z"/>
<path class="st45" d="M48.2,8.5c0.7-0.3,1.3-0.7,2-1c1.1,1,1,2.6,2,3.7c0.3,0.5,0.4,0.9,0,1.4C49.6,12.6,49,12,48.2,8.5z"/>
<path class="st46" d="M51.7,12.8c-1.6-0.4-2.9-1-3.1-2.9c-0.1-0.6-0.6-1-1.3-0.4c-0.2,0.3-0.3,0.6-0.4,0.9c0,0.1,0.1,0.3,0.1,0.4
	c0.1,0.3,0.2,0.5,0.3,0.8c0.1,0.2,0.2,0.4,0.3,0.8c0,0,0,0.1,0,0.1c0,0,0,0,0,0c0.7,1.6,2.4,1.7,3.8,2.1c0.4-0.1,0.6-0.4,0.7-0.7
	C52.1,13.4,52,13.1,51.7,12.8z"/>
<path class="st47" d="M51.7,13c-1.9,0-3.6-0.4-3.6-2.9c0-0.5-0.5-0.6-0.9-0.6c0.2-0.5,0.5-0.8,1-1c1.4,0.5,0.7,2.1,1.6,2.8
	c0.7,0.6,1.4,1,2.4,1.2c0,0.1,0.1,0.2,0.1,0.3C52.1,13,51.9,13.1,51.7,13z"/>
<path class="st48" d="M15.2,14.4c-0.3,0.5-0.8,0.7-1.2,0.4c-1.9-1.5-2.8-0.2-3.8,1.2c-0.2-1.2,0.1-2.3,1.3-2.9
	C13.1,12.3,14,13.8,15.2,14.4z"/>
<path class="st49" d="M28.1,6.9c0.2,0,0.4,0,0.6,0.1c0.1,0.1,0.2,0.3,0.1,0.4c0,0.1,0,0.2-0.1,0.2c-0.4,0.5-1,0.8-1.6,1.2
	c-0.9,0.5-1.4,1.3-1.7,2.3c-0.3,0.7-0.3,1.4-0.9,1.9c-0.3,0-0.5-0.1-0.7-0.3c-0.2-1.2-0.1-2.3,0.6-3.3C25.6,8.3,26.6,7.2,28.1,6.9z"
	/>
<path class="st50" d="M49.7,0.9C50.9,0.1,52,0.4,53.1,1c-0.6,1.2-2,1.1-2.8,2c-0.2,0.1-0.4,0.2-0.6,0.1C49,2.4,49.9,1.7,49.7,0.9z"
	/>
<path class="st51" d="M51.7,11.4c-1.1-1.1-1.4-2.5-1.5-4c0-0.2,0-0.3,0-0.5c0.2-0.2,0.3-0.3,0.5-0.5c0.5,0.2,0.7,0.7,0.9,1.1
	c0.2,0.9,0.6,1.9,0.6,2.9C52.1,10.8,52,11.2,51.7,11.4z"/>
<path class="st52" d="M42.7,13.5c0.7,0.5,1.4,1,2.1,1.4c0.3,0.2,0.7,0.3,1,0.5c0.1,0.3,0.1,0.5-0.2,0.7
	C43.1,16.4,42.5,15.9,42.7,13.5z"/>
<path class="st53" d="M50.2,2.9c0.6-1.3,2.1-1.1,3-1.9c0.2,0,0.4,0,0.6,0c0,0.3,0,0.7,0,1c-1.5-0.2-2.3,1.2-3.5,1.5
	C50,3.3,50,3.2,50,3.1C50.1,3,50.1,2.9,50.2,2.9z"/>
<path class="st54" d="M15.6,13.9c0-1.3,0.1-2.5,1.1-3.5c0.3-0.2,0.7-0.2,1-0.1c0.1,0.2,0.2,0.4,0.2,0.7c-0.7,1-0.7,2.5-2.1,3
	L15.6,13.9z"/>
<path class="st55" d="M50.2,2.9c0,0.2,0,0.3,0,0.5c-0.6,0.4-0.7,1.3-1.5,1.5c0.1-1-0.4-2.1,0.4-3c0.5,0.2,0.2,0.8,0.6,1.1
	C49.8,2.9,50,2.9,50.2,2.9z"/>
<path class="st56" d="M49.7,2.9c-0.4-0.2-0.5-0.6-0.6-1.1c0.1-0.4,0.1-0.8,0.5-0.9C50.6,1.6,49.5,2.3,49.7,2.9z"/>
<path class="st57" d="M47.2,18c0,0.5,0,1,0,1.5c-0.9,2.4-2.4,1.2-3.7,0.6c-2.4-1.3-4.5-1.3-6.6,0.6c-1,1-2.3,1.6-3.7,2.1
	c-0.6,0.2-1.2,0.2-1.8,0.3c-0.6,0-1.2,0.1-1.9,0.2c-1-0.2-2.2,0.1-2.3-1.5c0.6-0.5,1.4-0.6,2.1-0.6c3,0,5.2-1.3,6.4-4.1
	c1.9-0.7,3.9-0.7,5.8,0C43.4,17.9,45.2,18.3,47.2,18z"/>
<path class="st58" d="M43.7,19.5c1.2,0.8,2.3,1.5,3.5,0c-0.1,0.7,0.2,1.4,0.5,2c-0.4,1.2-0.4,2.3,0,3.5c-0.5,0-1,0-1.5,0
	c0,0,0,0,0,0c-1.1-1.1-2.6-1.4-3.9-2.1c-0.2-0.1-0.4-0.3-0.6-0.5c-0.6-0.8-0.7-1.7-0.2-2.6C42.1,19,42.9,19.1,43.7,19.5z"/>
<path class="st59" d="M47.2,18c-1.1,0.9-2.2,1.2-3.6,0.6c-2.5-1.2-5.2-1.2-7.9-1.1c-0.2-0.2-0.2-0.5-0.1-0.8
	c2.2-1.6,4.6-0.8,6.9-0.4c1.6,0.5,3.2,0.7,4.8,0c0.5-0.1,1,0,1.5-0.2c0.8-0.1,1.6-0.3,2.4-0.2c0.7,0.2,1.3,0.4,1.2,1.4
	c-0.2,0.3-0.4,0.4-0.7,0.2l0,0c-1-0.4-2-0.4-3,0C48.2,17.6,47.7,17.8,47.2,18z"/>
<path class="st60" d="M53.2,23c-0.7-0.3-1.1-1.1-2-1c-0.7-0.4-1.6-0.6-2-1.5c-0.9-1.6-0.3-2.3,1.5-2.2c1.3,0.1,2.7,0,3.9,0.7
	c0.4,0.2,0.7,0.5,0.9,0.8c0.5,1.3,1.9,2.4,0.5,3.9c-0.2,0.1-0.5,0.1-0.7,0c-0.4-0.3-0.5-0.8-0.7-1.2c-0.1-0.3-0.2-0.9-0.7-0.8
	c-0.4,0.1-0.2,0.7-0.4,1.1C53.4,22.8,53.3,22.9,53.2,23z"/>
<path class="st61" d="M47.7,24.9c-1.5-1.2-1.9-2.3,0-3.5c0.5,0.2,1,0.3,1.5,0.5c-0.2,1-0.3,2-0.5,3C48.4,24.9,48,24.9,47.7,24.9z"/>
<path class="st62" d="M55.2,20c-0.2-0.2-0.3-0.3-0.5-0.5c-0.8-0.9-2.2-0.6-3-1.5c0-0.2,0-0.3,0-0.5c0.2,0,0.4-0.1,0.6-0.1
	c1.1-1.2,1.8-0.1,2.7,0.3c0.7,0.7,1.8,1,2.4,1.9c0.1,0.2,0.2,0.5,0.2,0.7C56.5,22.3,55.9,20.7,55.2,20z"/>
<path class="st63" d="M51.7,17.9c1.1,0.4,2.4,0.3,3,1.5c-1.1-0.3-2.2-0.6-3.3-0.9c-1.6-0.4-2.4,0.2-2.2,1.9c-0.8-0.4-1.1-1-0.9-1.8
	c0.2-0.9,1-0.6,1.7-0.7C50.5,17.9,51.1,17.9,51.7,17.9z"/>
<path class="st62" d="M48.7,17.4c1-0.7,2-0.7,3,0C50.7,17.4,49.7,17.4,48.7,17.4z"/>
<path class="st64" d="M1.7,24.9c-0.3,0-0.6,0-0.9,0c-0.3-1.3,0.7-2.3,0.9-3.5c0.3-0.2,0.6-0.3,0.9-0.3c0.8,0.3,1.5,0.8,2.4,0.6
	c0.7-0.1,1.3-0.8,2.1-0.6c0.3,0.1,0.6,0.3,0.9,0.5c0.9,1,2,1.3,3.2,0.6c1.5-0.4,2.9-1.2,4.5-0.9c0.3,0.3,0.4,0.6,0.3,1
	c-0.3,1-1.2,1.1-2,1.1c-1,0-1.2,0.7-1.3,1.4c-0.8,0-1.7,0-2.5,0C7.4,24.2,4.5,24.1,1.7,24.9z"/>
<path class="st65" d="M9.7,17.5c0.2,0,0.3-0.1,0.5-0.1c1.5-1.7,3.3-0.4,5-0.4c0.3,0.1,0.5,0.3,0.6,0.6c-1.4,2.3-4.6,2.8-7.6,1.2
	C8.1,18.5,8,18.3,8.2,18C8.7,18,9.3,18,9.7,17.5z"/>
<path class="st66" d="M2.7,21.5c-0.3,0-0.6,0-0.9,0c0.3-0.5,0.6-1,0.9-1.5c0.5-0.3,0.9-0.7,1.4-0.8c0.2,0,0.4,0.1,0.6,0.2
	c0.1,0.2,0.1,0.4,0.1,0.6C4.3,20.8,3.6,21.3,2.7,21.5z"/>
<path class="st67" d="M8.2,18c0,0.2,0,0.3,0,0.5c-0.3,0.3-0.6,0.5-1,0.5c-0.8,0.1-1.5,0.1-2.3-0.3c-0.1-0.1-0.2-0.2-0.3-0.3
	C5.7,17.3,7,17.9,8.2,18z"/>
<path class="st67" d="M4.2,19.4c-0.5,0.2-1,0.3-1.5,0.5c0.4-0.8,1-1.5,2-1.5c0,0,0,0,0,0C5,19,4.5,19.2,4.2,19.4z"/>
<path class="st68" d="M110.7,23.4c-1.7-0.2-3.3-0.3-5-0.5c-0.5,0.4-1,0.7-1.6,0.7c-3.7-0.1-7.4,0.4-11.1-0.3c-1-1,0.1-1.3,0.6-1.7
	c1.6-0.5,3.2-0.3,4.9-0.2c0.8,0.2,1.6,0.5,2.4,0.3c2.4-0.6,4.7-0.3,7.1,0.1C109,22.3,110.4,21.9,110.7,23.4z"/>
<path class="st69" d="M92.7,22.9c4.3,0,8.7,0,13,0c0.4,1.7-1.4,1.2-2,2c-0.2,0-0.3,0-0.5,0c-2.9-1.6-6-0.6-9-0.7
	c-0.7,0-1.5,0.2-2.2,0.2c-0.4,0-0.8,0-1.2-0.3c-0.5-0.6-0.1-1,0.4-1.4C91.7,22.5,92.2,22.5,92.7,22.9z"/>
<path class="st70" d="M110.7,23.4c-0.7-0.8-1.8-0.4-2.5-1c-0.4-0.6-2-0.3-1.2-1.7c1.4,0,2.8,0.4,4.2,0.7c0.2,0.2,0.3,0.3,0.5,0.5
	c0.2,0.9,1.5,0.9,1.5,2C112.4,23.8,111.5,23.6,110.7,23.4z"/>
<path class="st71" d="M55.2,20c0.7-0.1,1.3,2.1,2,0c0.6-0.2,1,0.1,1.3,0.6c0.2,2.2,1.9,2.4,3.6,2.6c1.1,0.2,2.1,0.2,3.2,0
	c0.5-0.3,1.3-0.2,1.2-0.9c0-0.6-0.8-0.7-1.2-1c-1-0.7-1.7-1.5-1.5-2.8c0.2-0.5,0.5-0.9,1-1.1c1.3,1.2,2.2,2.7,3.4,4
	c1.1,1.2,0.4,2.4-1.5,3.1c-0.7,0-1.3,0-2,0c-1.3,0.4-2.7,0.4-4,0c0,0,0,0,0,0c-1.8-0.3-3.7-0.7-5.5,0c-0.3-0.6,0.2-0.7,0.5-1
	C56.9,22.1,55,21.2,55.2,20z"/>
<path class="st72" d="M55.7,23.5c-0.2,0.3-0.3,0.7-0.5,1c-1,0-1.6-0.7-2-1.5c0,0,0,0,0,0c0.9-0.6,1.4,0,2,0.5
	C55.4,23.5,55.5,23.5,55.7,23.5z"/>
<path class="st73" d="M66.7,24.4c1.7-1.3,2.4-2.6,0-3.8c-1.3-0.7-1.3-2.1-2-3.2c-0.6-0.4-0.6-1.1-0.6-1.7c0-0.6-0.2-1.3,0.2-1.8
	c0.2-0.1,0.5-0.2,0.7-0.2c1.1,0.4,1.2,1.4,1.3,2.4c0.1,1-0.2,2,0.6,2.8c0.8,0.8,1.9,1.4,2.5,2.5c0.9,2.3,0.9,2.3,4.3,0.7
	c1-0.1,1.9,0.2,2.8,0.5c0.6,0.3,1,0.7,1.2,1.3c0,0.9-0.6,0.8-1.2,0.8c-0.2,0-0.4-0.1-0.6-0.2c-1-0.6-1.9-0.4-2.9,0
	c-0.3,0.1-0.6,0.2-0.9,0.5c-0.7,0-1.3,0-2,0c-1.2,0-2.3,0-3.5,0C66.7,24.8,66.7,24.6,66.7,24.4z"/>
<path class="st3" d="M60.7,24.5c1.3,0,2.7,0,4,0C63.4,25.2,62,25.2,60.7,24.5z"/>
<path class="st74" d="M32.7,24.9c-0.8,0-1.7,0-2.5,0c-3.8,0-7.7,0-11.5,0c-1.8,0-3.7,0-5.5,0c0.2-1.3,1.2-1.1,2.1-1.2
	c1.3-0.1,2.6-0.1,3.9-0.1c2,0,4,0,5.9,0c1.1-0.1,2.1,0,3.2,0C29.7,24.1,31.7,22.8,32.7,24.9z"/>
<path class="st75" d="M42.2,22.5c1.6,0.4,3.4,0.5,4,2.5c-2.5-0.9-5,0.2-7.5,0c0,0,0,0,0,0c-0.2-0.9,0.6-1,1-1
	C40.9,23.9,41.5,23.1,42.2,22.5z"/>
<path class="st76" d="M91.7,24c3-0.6,6.1-0.5,9.1-0.5c1.1,0,2.2,0,2.4,1.5c-0.3,0-0.7,0-1,0c-3.2-0.5-6.3-0.8-9.5,0
	c-0.3,0-0.7,0-1,0c-1,0-2,0-3,0c-0.2-0.2-0.1-0.5,0.1-0.7C89.7,23.4,90.8,24.6,91.7,24z"/>
<path class="st77" d="M92.7,24.9c3.2-1.7,6.3-1,9.5,0c-0.3,0-0.7,0-1,0C98.4,25,95.5,24.9,92.7,24.9z"/>
<path class="st78" d="M19.2,24.5c-2,0.3-4.1-0.5-6,0.5c-0.2,0-0.3,0-0.5,0c-1-1-1.3-1.7,0.5-2c0.8-0.1,1.8,0.3,2.5-0.5
	c1.2-0.9,2.5-0.9,3.9-0.3C20.4,23.1,20.1,23.8,19.2,24.5z"/>
<path class="st79" d="M88.7,24.5c0,0.2,0,0.3,0,0.5c-1,0-2,0-3,0c-1.8,0-3.7,0-5.5,0c-0.7,0-1.3,0-2,0c-0.2-0.3-0.1-0.6,0.2-0.8
	C81.9,23.7,85.3,23.2,88.7,24.5z"/>
<path class="st80" d="M32.7,24.9c-1.4-1-3-0.3-4.5-0.5c-0.2-1.2,1.1-0.9,1.5-1.5c0.4-0.6,1-0.5,1.5-0.5c0.2,0.2,0.6,0.3,0.9,0.5
	c1.1,0.7,2.4,1,3.8,1c0.3,0.1,0.7,0.2,0.9,0.5c-0.2,0.2-0.3,0.3-0.5,0.5C35,25,33.9,25,32.7,24.9z"/>
<path class="st81" d="M72.2,24.9c0.2-0.2,0.3-0.3,0.5-0.5c1.2-0.6,2.3-0.8,3.5,0l0,0c0.2,0.1,0.2,0.2,0.2,0.3
	c-0.1,0.1-0.1,0.2-0.2,0.2c-0.2,0-0.3,0-0.5,0C74.5,25,73.4,24.9,72.2,24.9z"/>
<path class="st82" d="M76.2,24.9c0-0.2,0-0.3,0-0.5c0.5,0,1.1,0.1,1.5-0.5c-0.1-0.2,0-0.5,0.2-0.5c0.2,0,0.4,0.2,0.5,0.4
	c0,0.2,0,0.4-0.2,0.6c0,0.2,0,0.3,0,0.5C77.5,24.9,76.9,24.9,76.2,24.9z"/>
<path class="st83" d="M36.7,24.5c-0.3,0-0.7,0-1,0c-0.6-0.6-1.2-1.3-0.4-2.2c1.2-0.7,2.4-0.5,3.7-0.3c0.7,0.3,1.8,0.4,1.7,1.2
	c-0.1,1.2-1.6,0.8-2.4,1.3C37.7,24.5,37.2,24.5,36.7,24.5z"/>
<path class="st84" d="M38.2,24.5c0.5-0.7,1.4-0.8,2.1-1.2c-0.4-0.3-0.7-0.6-1.1-0.8c1-0.9,2-0.6,3,0c0,0,0,0,0,0
	c0.1,1.4-0.6,2.1-2,2c-0.6,0-1.1-0.1-1.5,0.5C38.5,24.8,38.4,24.6,38.2,24.5z"/>
<path class="st85" d="M111.2,21.4c-1.5,0.3-3-0.4-4.5-0.5c-2.1,1.4-3.5-0.1-5-1.3c-0.2-0.2-0.3-0.4-0.4-0.7c0.2-1.9,1.4-1.6,2.4-0.9
	c1,0.7,1.8,1.8,2.9,2.3C108.3,20.4,109.9,20.3,111.2,21.4z"/>
<path class="st86" d="M106.7,20.4c-1.5,0.2-2.1-1-3.1-1.8c-0.8-0.6-1.5-1.3-1.9,0.3c-0.2,0.2-0.4,0.2-0.6,0c-0.1-0.4-0.2-0.7,0.1-1
	c0-0.3,0-0.7,0-1c0.2-0.2,0.4-0.3,0.5-0.5C104.7,16.2,105,19.2,106.7,20.4z"/>
<path class="st87" d="M90.2,17.5c-0.6-1.3-1.7-1.5-3-1.5c-1,0-2.1,0.4-3-0.5c1.6-1.2,3.7,0.1,5.4-1.2c0.5-0.4,1,0.6,1.1,1.3
	c0,1.2,0,2.3,0,3.5c-0.2,0.2-0.3,0.2-0.5,0C90.2,18.5,90.2,18,90.2,17.5z"/>
<path class="st88" d="M90.2,18.9c0.2,0,0.3,0,0.5,0c0.2,0.2,0.3,0.3,0.5,0.5c0.2,0.5,0.5,0.8,1,1c0.5,0.5,1.4,0.6,1.5,1.5
	c-0.3,0.3-0.7,0.7-1,1c-0.5,0-1,0-1.5,0c-1.5-0.4-1.2-1.4-1-2.5C90.2,20,90.2,19.5,90.2,18.9z"/>
<path class="st34" d="M88.2,12.4c0.9-1.1,2.2-1,3.5-1C90.6,12.1,89.4,12.4,88.2,12.4z"/>
<path class="st89" d="M77.2,15.1c0,0.3,0,0.6,0,0.9c-0.6,1-1.2,0.7-1.8,0c-0.1-0.2-0.2-0.4-0.3-0.7c-0.5-2.9-0.7-3.1-3.6-2.9
	c-0.7,0.1-1.5,0.2-2-0.6c0-0.4,0.3-0.6,0.6-0.8c0.3,0,0.7,0,1,0c1.3-0.6,2.3-1.9,4-1C76.2,11.5,75.9,13.6,77.2,15.1z"/>
<path class="st90" d="M70.2,11c-0.2,0.2-0.3,0.3-0.5,0.5c-0.2,0.2-0.4,0.3-0.6,0.3c-1.3,0-2.5-0.5-3.8,0.1c-0.7,0.2-1.3,0.6-2,0.1
	c-0.5-1.4,1-1,1.4-1.6c0.2-0.1,0.4-0.3,0.6-0.4C67,9.8,68.7,9.9,70.2,11z"/>
<path class="st91" d="M75.2,9.9c-1.5-0.2-2.4,1.5-4,1C72.8,7.7,73.2,7.6,75.2,9.9z"/>
<path class="st92" d="M79.7,19c0,0.2,0,0.3,0,0.5c0.1,0.6-0.1,1.1-0.5,1.5c-0.9,1-2.1,1.3-3.4,1.1c-3-0.4-6.1-0.6-8.7-2.6
	c-1.1-1-1.1-2.1-0.7-3.4c0.6-0.5,0.8,0,1.2,0.3c1.6,1.8,3.3,3.4,6.1,2.9c1.3-0.3,2.6,0.4,4-0.1c0.4-0.3,0.7-0.7,1.1-1
	C79.3,18.3,79.9,18.1,79.7,19z"/>
<path class="st93" d="M90.2,20.5c0.6,0.7,0.2,1.9,1,2.5c-0.2,0.3-0.3,0.7-0.5,1c-2.2,0.4-4.5,0.4-6.7-0.1c-1.1-1.8,0.5-2.1,1.5-2.3
	c1.3-0.3,2.5-0.4,3.7-1c0.1,0,0.3,0,0.4,0C89.9,20.5,90,20.5,90.2,20.5z"/>
<path class="st94" d="M85.2,18.5c0.9,0,1.8,0,2.7,0c1.4,0,1.9,0.7,1.8,2c0,0,0,0,0,0c-1,0.5-2.1,0.4-3.1,0.6
	c-1.3-0.1-2.5-0.6-3.5-1.5C83.2,18,84.7,19.2,85.2,18.5z"/>
<path class="st95" d="M85.2,18.5c-0.4,0.8-1.6,0.2-2,1c-0.5,0.9-1.5,1.4-2.1,2.2c-0.3,0.2-0.5,0.4-0.9,0.6c-0.3,0.1-0.7,0.1-1-0.1
	c-0.1-0.2-0.2-0.4-0.2-0.6c0.4-0.8,1-1.4,1.7-2C82,18.2,83.6,18.4,85.2,18.5z"/>
<path class="st96" d="M80.7,19.5c0,1-0.7,1.6-1.5,2c-0.3-0.3-0.3-0.7,0-1c0-0.4,0.1-0.8,0.5-1C80,19.5,80.4,19.5,80.7,19.5z"/>
<path class="st41" d="M79.7,19c-0.2-0.4-0.6-0.5-1-0.5c-0.1-0.1-0.2-0.2-0.2-0.3c0-0.1,0.1-0.2,0.1-0.2c0.7,0,1.3,0,2,0
	C80.5,18.4,80.2,18.8,79.7,19z"/>
<path class="st97" d="M101.2,18c0,0.3,0,0.7,0,1c0.1,1.1-0.5,1.8-1.5,1.9c-1.8,0.3-3.8,0.7-5.5-0.4c0-0.2,0-0.3,0-0.5
	c1.5-0.4,3-0.4,4.5,0C100.1,20,100.4,18.6,101.2,18z"/>
<path class="st98" d="M98.7,20c-1.5,0-3,0-4.5,0c-0.4,0-0.8-0.1-1-0.5C95,19.7,96.9,18.9,98.7,20z"/>
<path class="st99" d="M57.7,2.9c1.8-0.2,3.4-0.1,4,2c-0.2,1,0.4,2.1-0.5,3C59.9,6.4,58.6,4.8,57.7,2.9z"/>
<path class="st100" d="M59.2,7c0.4,1.8,1,3.6-1.5,4.5c-0.2,0.2-0.4,0.2-0.6,0c0.8-2,1-3.9-0.8-5.4c-0.4-0.5-1.2-0.5-1.6-1
	c-0.3-0.6,0.2-0.8,0.5-1.1C57.3,3.9,58.1,5.7,59.2,7z"/>
<path class="st101" d="M55.2,4c-0.2,0.3-0.3,0.7-0.5,1c-0.1,0.6-0.5,1-0.8,1.5c-1.2,1.1-0.8,2.8-1.5,4c-0.2,0.2-0.4,0.2-0.6,0
	c-0.2-1-0.4-2-0.5-3c0-2.1,1.2-3.1,3-3.5C54.5,3.9,54.8,4,55.2,4z"/>
<path class="st102" d="M54.2,3.9c-1.2,1-2.6,1.9-3,3.5c-0.4-0.2-0.5-0.6-0.5-1c0.7-1.6,1.5-2.9,3.5-3C54.2,3.6,54.2,3.8,54.2,3.9z"
	/>
<path class="st103" d="M93.7,17.4c0-0.3,0-0.7,0-1c1.5-1.3,3,0.4,4.5,0c0.3,0,0.7,0,1,0c0.1,1-0.3,1.4-1.4,1.5
	C96.4,18.1,95.1,17.5,93.7,17.4z"/>
<path class="st104" d="M60.2,12.4c0,0.2,0,0.3,0.1,0.5c1.8,1.9,0.1,2.6-1.2,3.4c-0.9,0.2-1.7,0.2-2.5-0.2c-0.7-0.8-1.8-1.7-0.9-2.7
	C56.9,12.1,58.5,11.8,60.2,12.4z"/>
<path class="st105" d="M60.2,12.4c-0.6,0.1-1.2,0.1-1.7,0.2c-2,0.3-3.2,1.1-1.8,3.3c-1.5,0.1-2.4-0.6-2.9-2c0-0.9,0.5-1.4,1.3-1.8
	c0.8-0.3,1.7-0.4,2.6-0.2C58.5,12.2,59.7,10.5,60.2,12.4z"/>
<path class="st106" d="M57.7,11.9c-0.8,0.5-1.6,0.6-2.5,0.6c-0.6,0.3-1.2,0.4-1.9,0.2c-0.6-0.3-0.9-0.9-0.9-1.5
	c0.1-0.2,0.3-0.4,0.5-0.4c1.2,0.3,2.5,0,3.7,0.3c0.2,0.1,0.4,0.2,0.5,0.4c0.2,0,0.3,0,0.5,0C57.7,11.6,57.7,11.8,57.7,11.9z"/>
<path class="st107" d="M61.7,13c-0.2-0.5-0.3-1-0.5-1.5c0.2-0.2,0.3-0.3,0.5-0.5c0.9-0.8,2-0.6,3-0.7c-0.5,0.5-1,1-1.4,1.6
	c0,0.1,0,0.2-0.1,0.3c-0.2,0.4-0.5,0.7-0.9,0.9C62,13.2,61.8,13.1,61.7,13z"/>
<path class="st108" d="M94.2,14.5c0-0.7,0.3-1.2,1-1.5c1.2-0.4,2.2-0.5,2,1.4c-0.1,0.7,0.3,1.4,0.5,2.1c-0.8,0.2-1.7-0.1-2.5-0.3
	C94.3,16,93.7,15.6,94.2,14.5z"/>
<path class="st109" d="M94.2,14.5c0.2,2.3,2.5,1,3.5,2c0.2,0,0.3,0,0.5,0c-1.5,1.3-3-0.4-4.5,0C93.8,15.8,93.5,15,94.2,14.5z"/>
<path class="st110" d="M93.7,22c-0.7-0.3-1.2-0.8-1.5-1.5c0.3,0,0.7,0,1,0c2.5,0.6,5.1,0,7.7,0.6c-0.2,1.7-1.2,1.1-2.2,0.9
	C97,22,95.4,22,93.7,22z"/>
<path class="st111" d="M100.7,21c-2.6,0.6-5,0.1-7.5-0.5c0.3,0,0.7,0,1,0c1.4,0,2.8-0.1,4.2,0c1.3,0.1,2.2-0.3,2.8-1.5
	c0.2,0,0.3,0,0.5,0c0,0.2,0,0.3,0,0.5C102,20.4,101.4,20.7,100.7,21z"/>
<path class="st112" d="M78.7,18c0,0.2,0,0.3,0,0.5c-0.2,0.3-0.3,0.7-0.5,1c-3.3,0.5-6.1-1.2-9.2-2c-0.3-0.5-0.3-1,0.1-1.5
	c2.4-0.4,4.6,0.1,6.7,1.1c0.5,0.4,0.8,0.8,0.4,1.4C77.3,19.7,77.9,18.2,78.7,18z"/>
<path class="st113" d="M76.2,18.4c0-0.4-0.1-0.8-0.5-1c-0.4-0.5-0.4-1,0-1.5c0.5,0.3,1,0.3,1.5,0C77.2,16.9,77.4,17.9,76.2,18.4z"/>
<path class="st114" d="M48.7,16.4c-0.5,0-1,0.1-1.5,0.1c-2.1,1.1-3.7,0.4-5.4-1.1c-1.5-1.4-3.2-2.9-5.5-3.1c-0.4,0-0.8-0.3-0.8-0.8
	c0.6-1.5,1.7-1.1,2.7-0.6c1.5,0.8,3,1.7,4.5,2.5c0.3,1.7,1.1,2.8,3.1,2.4c0.9,0,1.9,0.1,2.8,0.1c0.1,0.1,0.2,0.1,0.2,0.2
	C48.8,16.3,48.7,16.3,48.7,16.4z"/>
<path class="st115" d="M27.2,8.4c0.3-0.7,0.8-1,1.5-1c2.4,0.3,1.8,2.8,3,4c0.4,0.8,1,1.4,2,1.5c-0.4,1.4-1.3,0.7-2.1,0.5
	c-0.9-0.5-1.6-1.1-2.2-2c-0.4-0.5,0-1.8-1-1.8c-0.9,0-1,1.2-1.5,1.8c-0.4,0.4-0.8,0.6-1.3,0.4c-0.3-0.3-0.3-0.6-0.2-1
	C25.4,9.7,26.3,9.1,27.2,8.4z"/>
<path class="st116" d="M31.7,11.5c-1.7-0.8-1.1-3.3-3-4c0-0.2,0-0.3,0-0.5C31.1,7.5,31.5,9.5,31.7,11.5z"/>
<path class="st117" d="M31.7,13c0.7,0.2,1.3,0.9,2,0c0.2,0,0.3,0,0.5-0.1c0.2-0.1,0.4-0.1,0.6,0.1c0.1,1.1-0.3,2-1.2,2.6
	C32.2,15.2,31.1,14.7,31.7,13z"/>
<path class="st118" d="M34.7,12.9c-0.2,0-0.3,0-0.5,0c0.2-1,0.9-1.7,1.5-2.5c0.8-0.3,1.7-0.4,2.5,0c0,0.2,0,0.3,0,0.5
	c-0.9,0.2-2.2-0.6-2.5,1C35.6,12.5,35.3,12.8,34.7,12.9z"/>
<path class="st52" d="M38.2,10.5c-0.8,0-1.7,0-2.5,0C36.5,9.7,37.4,9.7,38.2,10.5z"/>
<path class="st119" d="M15.7,17.5c-0.2,0-0.3,0-0.5,0c-0.3-0.7,0.3-1,0.5-1.5c0-0.6,0.1-1.3,0.1-1.9c0.7-1,0.6-2.5,1.9-3.1
	c0.6-0.5,1.2-0.4,1.6,0.2c-1,1.5-2.2,2.9-2.1,4.9C17,16.9,16.8,17.6,15.7,17.5z"/>
<path class="st120" d="M15.7,15.9c-0.2,0.5-0.3,1-0.5,1.5c-1.7,0.1-3.3-0.9-5,0c0.8-1.3,1.6-2.6,3.4-1.1
	C14.2,16.8,15,16.3,15.7,15.9z"/>
<path class="st121" d="M52.7,11c0.2,0.5,0.3,1,0.5,1.5c-0.3,0.3-0.6,0.3-1,0c0,0-0.1,0-0.1,0c0-0.4-0.1-0.8-0.4-1c0-0.3,0-0.7,0-1
	c0.2,0,0.3,0,0.5,0C52.7,10.4,52.9,10.5,52.7,11z"/>
<path class="st122" d="M52.2,12.5c0.3,0,0.6,0,1,0c0.7,0,1.3,0,2,0.1c-0.3,0.5-1.1,0.7-1,1.5c-0.3,0.6-0.7,0.9-1.4,0.8
	c-0.5-0.1-0.8-0.4-1.1-0.8c0-0.3,0-0.7,0-1C51.9,12.8,52,12.6,52.2,12.5z"/>
<path class="st123" d="M25.7,10.9c0,0.3,0,0.7,0,1c0.2,0.2,0.3,0.5,0.3,0.7c-0.4,1.2,0.4,3.1-1.9,3.3c-0.5-1.1-0.1-2.1,0.6-3
	c0.1-0.7-0.2-1.5,0.5-2C25.4,10.7,25.5,10.7,25.7,10.9z"/>
<path class="st124" d="M24.7,12.9c0.2,1.1-0.3,2-0.5,3c-0.5,0.3-0.9,0-1.2-0.3c-0.3-0.3-0.5-0.7-0.5-1.2c0.3-0.8,1.6-0.5,1.7-1.5
	c0,0,0,0,0,0C24.3,12.9,24.5,12.9,24.7,12.9z"/>
<path class="st124" d="M25.7,10.9c-0.2,0-0.3,0-0.5,0c0-1.4,0.6-2.3,2-2.5C26.9,9.4,25.6,9.8,25.7,10.9z"/>
<path class="st125" d="M19.2,11.4c-0.4-0.6-1-0.5-1.5-0.5c0-0.2,0-0.4,0-0.5c0.3-0.1,0.6-0.2,1-0.4c0.7,0.3,1.3,0.6,2,1
	c0.5,0.7,1,1.3,1.5,2c0.4,0.4,0.3,0.9,0.2,1.4c-0.2,0.2-0.4,0.3-0.6,0.3C20.3,14.1,19.8,12.7,19.2,11.4z"/>
<path class="st126" d="M22.2,14.4c0-0.5,0-1-0.1-1.4c0.2,0,0.3,0,0.5,0c0.5,0.8,1,0.1,1.5-0.1c0.4,1.4-0.7,1.3-1.5,1.5
	C22.5,14.6,22.4,14.6,22.2,14.4z"/>
<path class="st127" d="M35.7,17c0,0.2,0,0.3,0,0.5c-0.7,3.3-1.9,4.1-6.3,4.5c-0.7,0.1-1.5,0-2.2,0c-0.5,0.5-1.2,0.6-1.9,0.7
	c-0.9,0-1.9,0-2.7-0.5c-0.7-0.6-0.9-1.5-1.2-2.3c-0.1-0.2-0.1-0.5-0.2-0.7c0-0.7-0.1-1.5,0.9-1.7c0.6,0.3,0.7,0.9,0.9,1.4
	c0.2,0.4,0.4,0.8,0.7,1.1c3.4,0.6,6.8,0.9,9.7-1.5c0.1-0.2,0.3-0.4,0.4-0.6C34.4,17.3,34.8,16.6,35.7,17z"/>
<path class="st128" d="M43.7,19.5c-0.7,0.1-1.5-0.2-2,0.5c-2.1,1.4-4.7,1.4-6.8,2.5c-0.2,0.2-0.4,0.3-0.7,0.3c-0.4,0-0.8-0.1-1-0.4
	c1.6-1.3,3.3-2.3,5-3.5C39.9,17.7,41.9,18.6,43.7,19.5z"/>
<path class="st82" d="M25.2,22c0.7,0,1.3,0,2,0c0.7,0.7,1.6,0.8,2.5,1c-0.5,0.5-1,1-1.5,1.5c-1,0-2,0-3,0c-0.6-0.5-1.5-0.8-1.2-1.9
	C24.3,22.1,24.9,22.3,25.2,22z"/>
<path class="st82" d="M33.2,22.4c0.3,0,0.7,0,1,0c-0.5,1.7-1.6,0.9-2.5,0.5c-0.2-0.2-0.3-0.3-0.5-0.5C31.9,22.5,32.5,22.5,33.2,22.4
	z"/>
<path class="st129" d="M34.7,22.5c2-1.7,4.4-2.3,7-2.5c-0.1,0.9,0,1.7,0.5,2.5c-1,0-2,0-3,0c-1.3,0-2.7,0-4,0
	C35,22.6,34.9,22.6,34.7,22.5z"/>
<path class="st130" d="M23.2,20c-0.4-0.2-0.5-0.6-0.5-1c-0.3-0.9-0.5-1.8-0.3-2.7c0.1-0.2,0.3-0.4,0.6-0.5c0.9,0.3,1.2,1.1,1.4,1.9
	c0.6,0.8,1,0,1.5-0.2c1-0.6,2-0.6,3.1-0.4c1.1,0.3,2.1,0.2,3.1-0.3c0.5-0.2,0.8-0.6,1.2-1c0.2-0.1,0.3-0.3,0.5-0.4
	c0.3-0.8,0.7-1.7,1-2.5c0.3-0.3,0.7-0.7,1-1c2.9-0.9,4.8,1.4,6.3,2.9c1.7,1.6,3.1,2.2,5.1,1.6c-1.4,1.5-2.9,0.8-4.5,0.4
	c-1.4-1.1-3.3-1.4-4.6-2.6c-0.9-0.7-1.7-0.3-2.2,0.7c-0.5,1-1.1,2-1.7,3l0,0c-0.9,1.6-2.3,2.3-4.1,2.2c-1.6-0.1-3,0.8-4.7,0.5
	C24.6,20.6,23.7,20.9,23.2,20z"/>
<path class="st131" d="M34.2,18c-0.1-1.6,1-2.8,1.6-4.1c0.4-0.8,1.1-1.2,1.8-0.6c1.6,1.3,3.8,2,5.1,3.7c-2.3-0.5-4.7-1-7,0
	C35.2,17.3,34.7,17.6,34.2,18z"/>
<path class="st132" d="M51.2,16c0.2-0.2,0.3-0.3,0.5-0.5c0.2,0,0.3-0.1,0.5-0.1c1.4-0.7,2.5-0.5,3.1,1c0.3,0.5,1,0.7,1,1.4
	c-0.5,0.5-1,0.4-1.5,0.1c-0.8-0.3-1.4-1.1-2.4-0.6c-0.1-0.6-0.6-0.9-1.2-1C51,16.2,51,16.1,51.2,16z"/>
<path class="st133" d="M55.2,23.4c-0.7-0.2-1.3-0.3-2-0.5c0.5-0.7-1.3-2.3,0.5-2.3C55.3,20.5,55.2,22.2,55.2,23.4z"/>
<path class="st134" d="M64.7,15.5c0,0.7,0,1.3,0,2c-0.2,0.3-0.3,0.7-0.5,1c-1.8,1.2-3.6,2.4-6,2c-0.3-0.2-0.7-0.3-1-0.5
	c0-0.2,0-0.3,0-0.5c0.1-0.1,0.1-0.2,0.2-0.3c1.1-0.8,2.6-0.7,3.7-1.6C62.4,17.1,63.2,15.6,64.7,15.5z"/>
<path class="st135" d="M54.7,18c0.5,0,1,0,1.5-0.1c0.2,0,0.3,0,0.5-0.1c0.5-0.2,0.9-0.2,1.4,0c0.5,1-0.6,1.1-0.9,1.6c0,0,0,0,0,0
	C56.2,19.3,55.2,19,54.7,18z"/>
<path class="st136" d="M19.7,22.5c-1.3,0-2.7,0-4,0c0-0.3,0-0.7,0-1c0-0.1,0.1-0.3,0.1-0.4c1.1-1.4,2.3-2.1,4.1-1.2
	c0.6,0.7,1,1.6,0.5,2.5C20.2,22.6,20,22.6,19.7,22.5z"/>
<path class="st137" d="M15.7,21.5c-1.5,0.5-3,1-4.5,1.5c-0.6-0.5-1.2-0.9-1.1-1.8c1.4-1.4,3.6-0.6,5-1.9c0.4-0.1,0.8-0.1,1.1,0.1
	C16.6,20.2,16,20.8,15.7,21.5L15.7,21.5z"/>
<path class="st138" d="M10.2,21.5c0.7,0.3,1,0.8,1,1.5c-1.5,0.9-2.7,0.6-3.5-1c0-0.5,0.1-1,0.6-1.3C9.2,20.4,9.8,20.6,10.2,21.5z"/>
<path class="st139" d="M2.7,21.5c0.4-0.9,1.3-1.1,2-1.5c0.6-0.4,1.1-0.2,1.3,0.5c0.3,0.8,0,1.5-0.8,2C4.2,22.4,3.2,22.6,2.7,21.5z"
	/>
<path class="st140" d="M5.2,22.4c0.3-0.9,1.3-2-0.5-2.5c0-0.2,0-0.3,0-0.5c0.4-0.9,1.3-0.7,2-0.7c0.2,0,0.4,0.1,0.6,0.2
	C7.8,19.2,8,19.5,8,20c-0.1,0.6-0.3,1.1-0.8,1.4C6.5,21.8,5.9,22.1,5.2,22.4z"/>
<path class="st137" d="M7.2,21.5c0.2-0.5,0.3-1,0.5-1.5c0.8,0,0.8,0.4,0.5,1c0,0.4-0.1,0.8-0.5,1C7.5,21.8,7.4,21.6,7.2,21.5z"/>
<path class="st141" d="M16.2,19.4c-0.3,0-0.7,0-1,0c-3.3,1.9-5.2,1.7-8-0.5l0,0C7,18.8,7,18.7,7,18.6c0.1-0.1,0.1-0.2,0.2-0.2
	c0.3,0,0.7,0,1,0c2.6,0.6,5.3,1.4,7.5-1c0.7-0.3,1-0.8,1-1.5c0.4-0.4,0.9-0.4,1.4-0.2c0.2,0.2,0.3,0.4,0.4,0.6
	C18.2,17.7,17.4,18.7,16.2,19.4z"/>
<path class="st142" d="M7.2,18.5c0,0.2,0,0.3,0,0.5c-0.9-0.1-1.7,0-2.5,0.5c-0.2,0-0.3,0-0.5,0c0.2-0.3,0.3-0.7,0.5-1
	C5.5,18.5,6.4,18.5,7.2,18.5z"/>
<path class="st143" d="M100.7,21c0.3-0.5,0.7-1,1-1.5c1.8-0.1,2.9,2.3,5,1.5c0.5,0.5,1,1,1.5,1.5c-3.1-1.2-6.4,0.8-9.5-0.5
	C99.5,21.9,100.5,22.3,100.7,21z"/>
<path class="st144" d="M83.7,23.5c2.3,0.6,4.7,0.6,7,0.5c0.3,0,0.7,0,1,0c-0.9,0.9-2,0.3-3,0.5c-3.5,0-7,0-10.5,0c0-0.2,0-0.3,0-0.5
	c0.6-0.6,1.4-0.8,2.3-1C81.6,22.8,82.7,22.6,83.7,23.5z"/>
<path class="st145" d="M58.2,20.4c2.1-0.5,3.9-1.7,6-2c-0.3,1.3,0.8,1.8,1.5,2.5c-0.5,0.8-1.7,0.4-2.2,1.4c0.5,0.9,1.7,0.3,2.2,1.2
	c-2.3,1.4-4.6,0-6.8-0.2C57.6,23.1,58.4,21.4,58.2,20.4z"/>
<path class="st146" d="M65.7,23.5c-0.1,0-0.2,0-0.2,0c-1-0.4-3,0.8-3-0.9c-0.1-1.8,1.9-1.6,3.3-1.6c0.6,0.4,1.7,0.4,1.7,1.3
	C67.3,23,66.5,23.4,65.7,23.5z"/>
<path class="st82" d="M79.2,20.5c0,0.3,0,0.7,0,1c0,0.2,0,0.3,0,0.5c-0.7,0.7-1.3,1.6-2.5,1c-1.1,0.2-2-0.3-3-0.5
	c-1.6,0.1-3.3,0.8-4.5-1c-0.8-0.7-1.7-1.3-2.5-2c0.2-0.2,0.3-0.2,0.5,0c2.4,0.8,4.8,1.6,7.3,1.9C76.2,21.5,77.8,21.7,79.2,20.5z"/>
<path class="st147" d="M69.2,21.5c1.4,0.9,3.1,0.1,4.5,1c-0.3,0.3-0.6,0.5-1,0.8C70.6,24.7,69.1,24.9,69.2,21.5z"/>
<path class="st148" d="M67.2,19.5c-0.2,0-0.3,0-0.5,0c-1.3-0.6-1-1.7-1-2.7c0-1,0.2-2.2-1-2.8c-0.2-0.7,0.2-1.1,0.9-1.3
	c2.4,0.4,2,1.8,1.1,3.3C66.7,17.1,66.5,18.4,67.2,19.5z"/>
<path class="st149" d="M64.7,15.5c-0.9,1.1-2,2.1-3.5,2.5c-0.4-0.1-0.6-0.3-0.7-0.7c0.1-0.6,0.6-0.9,1-1.3c0.9-0.6,1.2-1.9,2.4-2.2
	c0.1,0,0.2,0.1,0.3,0.1C64.4,14.5,64.5,15,64.7,15.5z"/>
<path class="st150" d="M76.7,23c1,0,1.4-1.3,2.5-1c0.3,0,0.7,0,1,0c0.4,0.5,0.4,1,0,1.5c-0.5,0.7-1.3,0.4-2,0.5
	c-0.2-0.3-0.3-0.3-0.5,0C77.2,23.8,76.9,23.4,76.7,23z"/>
<path class="st151" d="M76.2,24.4c-1.2,0-2.3,0-3.5,0C73.9,23.1,75,22.6,76.2,24.4z"/>
<path class="st152" d="M65.2,12.9c-0.2,0.3-0.3,0.7-0.5,1c-0.2,0-0.3,0-0.5,0c0,0,0,0,0,0c-0.8-0.4-1.3-1-1-2c0,0,0,0,0,0
	c0.7-0.2,1.3-0.3,2-0.5c0.1,0.2,0.2,0.4,0.2,0.6C65.4,12.3,65.2,12.6,65.2,12.9z"/>
<path class="st153" d="M19.7,22.5c0.2,0,0.3,0,0.5,0c1.3-1.1,2.7-0.3,4,0c-0.1,0.9,0.7,1.3,1,2c-2,0-4,0-6,0
	C19.5,23.8,19.8,23.2,19.7,22.5z"/>
<path class="st154" d="M34.7,22.5c0.2,0,0.3,0,0.5,0c0.2,0.7,0.3,1.3,0.5,2c-1.5,0-3.1,0.1-4-1.5c0.8-0.1,1.8,0.3,2.5-0.5
	C34.4,22.5,34.5,22.5,34.7,22.5z"/>
<path class="st155" d="M75.7,16c0,0.5,0,1,0,1.5c-2.2-0.5-4.3-1-6.5-1.5c-0.8-0.6-1.1-1.3-0.5-2.2c3.8-1.6,5.5-1.2,7,1.7
	C75.7,15.6,75.7,15.8,75.7,16z"/>
<path class="st156" d="M75.7,15.5c-1.8-2.8-4.5-1.9-7-1.5c-0.7-1-0.3-1.8,0.5-2.5c0.2,0,0.3,0,0.5,0c0.4,0.5,1,0.5,1.6,0.4
	C75,11.2,75.6,11.8,75.7,15.5z"/>
<path class="st157" d="M69.2,11.5c-0.2,0.8-0.3,1.7-0.5,2.5c0.2,0.7,0.3,1.3,0.5,2c0,0.5,0,1,0,1.5c-1,0.7-1.4,0.7-1.7-0.4
	c-0.2-0.8-0.5-1.6-0.5-2.4c0.1-1.5-0.6-2.3-1.9-2.7c0-0.2,0-0.3,0-0.5C66.5,10.5,67.9,10.8,69.2,11.5z"/>
<path class="st158" d="M65.2,12c1.2-0.1,2.1,0.1,2,1.6c0,1,0.3,2.1,0.5,3.1c0.2,0.7,0.4,1.6,1.4,0.7c2.2,0,4.4,0.1,6.2,1.4
	c0.9,0.7,1.9,0.5,2.8,0.5c-3.6,1.2-7,0.6-10.3-1.2c-1-0.5-0.4-1.8-1.2-2.3c-0.3-1.1,0.9-3-1.5-3C64.7,12.6,64.7,12.3,65.2,12z"/>
<path class="st159" d="M80.2,23.5c0-0.5,0-1,0-1.5c0.2-0.2,0.3-0.3,0.5-0.5c1.9-1,4.1-0.1,6-1c1,0,2-0.4,3,0
	c-0.7,1.2-1.9,1.6-3.2,1.5c-1.3-0.1-2.3,0.3-2.8,1.5C82.5,23.5,81.4,23.5,80.2,23.5z"/>
<path class="st160" d="M86.7,20.5c-1.8,1.6-3.9,1.2-6,1c0.6-0.9,1.2-1.9,2.5-2C84.5,19.2,85.4,20.7,86.7,20.5z"/>
<path class="st161" d="M57.2,11.4c-0.2,0-0.3,0-0.5,0c-0.8-1.1,0.3-2.4-0.4-3.5c-0.2-0.3-0.4-0.5-0.6-0.8c-0.4-0.4-0.9-0.8-0.7-1.5
	c0.5-0.6,1-0.6,1.6-0.2C58,7.4,59.9,9.2,57.2,11.4z"/>
<path class="st162" d="M56.7,5.5c-0.6,0-1.1-0.1-1.5,0.5c-0.5,0.4-1,0.4-1.5,0c0.3-0.3,0.7-0.7,1-1C55.4,5,56.2,4.7,56.7,5.5z"/>
<path class="st163" d="M53.7,5.9c0.5,0,1,0,1.5,0c0.3,0.3,0.7,0.7,1,1c-0.2,0.3-0.5,0.4-0.8,0.5c-0.5,0.1-1,0.3-1.3,0.7
	c-0.5,0.8-0.1,1.8-0.6,2.6c-0.1,0.1-0.2,0.2-0.2,0.2c-0.2,0-0.3,0-0.5,0c-0.2-0.2-0.3-0.4-0.5-0.6C52.2,8.7,51.9,7,53.7,5.9z"/>
<path class="st164" d="M55.2,16.5c-0.9-0.7-1.9-1.2-3.1-1c0.2-0.3,0.4-0.6,0.5-1c0.5-0.2,1-0.3,1.5-0.5c0.6,1,1.6,1.3,2.5,2
	c0.8,0,1.6,0.1,2.4,0.1C57.9,16.9,56.5,16.2,55.2,16.5z"/>
<path class="st165" d="M56.7,7.5c1.1,1.3,0.2,2.7,0,4c-1.1-0.3-2.5,0.9-3.5-0.5c0,0,0,0,0,0C54.4,9.7,56.2,9.3,56.7,7.5z"/>
<path class="st166" d="M61.7,16.4c0.2-1.2,0.6-2.3,0.4-3.5c0.2-0.5,0.5-0.8,1-1c0.3,0.7,0.6,1.3,1,2C63.1,14.5,63,16,61.7,16.4z"/>
<path class="st167" d="M25.7,12.5c0-0.2,0-0.3,0-0.5c0.3-0.2,0.7-0.3,1-0.5c0.8-0.9,1.4-2.3,2.7-0.5c-0.1,0.7,0.1,1.4,0.1,2.1
	c-0.1,0.5-0.3,0.8-0.7,1.1c-0.8,0.1-1.5,0.3-2.1,0.8c-0.4,0.2-0.9,0.5-1.2-0.2C25.5,13.9,25.2,13.2,25.7,12.5z"/>
<path class="st168" d="M29.2,13c-0.1-0.5-0.8-1,0-1.5c0.2-0.2,0.3-0.3,0.5,0c0.7,0.5,1.3,1,2,1.5c0.1,1.3,1.1,1.9,2,2.5
	c0,0.2,0,0.3,0,0.5c-1.2,0.8-2,0.4-2.6-0.8C30.6,14.3,29.9,13.6,29.2,13z"/>
<path class="st169" d="M29.7,11.5c-0.2,0-0.3,0-0.5,0c-0.8-2.1-1.7-0.2-2.5,0c0-0.2,0-0.3,0.1-0.5c0.5-1,0.8-2.5,2.1-2.2
	C30.2,9,29.6,10.5,29.7,11.5z"/>
<path class="st170" d="M18.2,16c-0.5,0-1,0-1.5,0c0.2-1.9,0.1-3.9,2.5-4.5c1.4,0.5,1.5,2.1,2.5,3c0.3,0.4,0.3,0.8,0.1,1.2
	C20.6,16.6,19.5,16.9,18.2,16z"/>
<path class="st171" d="M25.7,12.5c0,0.8,0,1.7,0,2.5c0.5,2.2,0,3.1-2,3.5c0-0.9,0-1.7-0.5-2.5c-0.1-0.1-0.2-0.2-0.1-0.3
	c0-0.1,0.1-0.2,0.1-0.2c0.3,0.2,0.7,0.3,1,0.5C25.9,15.3,24.6,13.4,25.7,12.5z"/>
<path class="st172" d="M23.2,15.5c0,0.2,0,0.3,0,0.5c0,0-0.2,0-0.2,0l-0.2,0c-0.2,0.2-0.4,0.2-0.6,0.2c-0.3-0.1-0.6-0.3-0.4-0.7
	c0-0.3,0-0.7,0-1c0.2,0,0.4,0,0.6,0c0.2,0,0.3,0,0.5,0C22.9,14.8,23,15.1,23.2,15.5z"/>
<path class="st173" d="M21.7,15.4c0.2,0.2,0.3,0.3,0.5,0.5c0.4,0.5,0.3,1,0,1.5c-0.7,0.5-0.4,1.3-0.5,2c-0.7,0.5-1.4,0.3-2.2,0
	c-0.7-0.9-1.1-1.9-1.3-3c0-0.2,0-0.3,0-0.5C19.4,16.1,20.5,15.7,21.7,15.4z"/>
<path class="st174" d="M19.7,19.4c0.7-0.5,1.3,0,2,0c0,0,0,0,0,0c0.4,0.6,0,1.7,1,2c0.7,0.8,1.7,0.4,2.5,0.5c-0.2,0.4-0.6,0.5-1,0.5
	c-1.3,0-2.7,0-4,0c-0.2-0.8-0.3-1.7-0.5-2.5c-0.1-0.1-0.2-0.2-0.1-0.3C19.6,19.5,19.7,19.4,19.7,19.4z"/>
<path class="st170" d="M23.2,20c3.9,0.9,7.7,0.5,11-2c-0.4,1.8-1.6,2.5-3.4,2.5c-1.9,0-3.8,0.3-5.7,0.5C24.3,21,23.4,21.2,23.2,20z"
	/>
<path class="st170" d="M22.2,17.4c0-0.5,0-1,0-1.5c0.2,0,0.3,0,0.5,0c0,1,0,2,0,3C22.1,18.6,22.2,18,22.2,17.4z"/>
<path class="st173" d="M22.7,21.5c-1.3-0.2-0.9-1.2-1-2C22,20.1,22.4,20.8,22.7,21.5z"/>
<path class="st175" d="M32.7,17c-0.9,1.1-2.2,1.3-3.4,0.9c-1.3-0.4-2.4-0.2-3.6,0.1c0-1.1,0.5-2.1,0.9-3.1c0.5-0.4,1.1-0.5,1.7-0.3
	c0.9,0.4,1.2,1.3,2,1.8C31.1,16.7,32.1,16.2,32.7,17z"/>
<path class="st176" d="M32.7,17c-0.8,0-1.7,0-2.5,0c-0.2-1-0.1-2.2-1.5-2.4c-0.1-0.2-0.1-0.4,0-0.6c0.2-0.3,0.3-0.7,0.5-1
	c1.3-0.2,2,0.6,2.3,1.7c0.3,1.3,1.1,1.4,2.2,1.3C33.5,16.4,33.2,16.8,32.7,17z"/>
<path class="st177" d="M26.7,15c0.2,1.2-0.3,2.1-1,3c-0.5,0.8-1,1.5-2,0.5c1.6-0.6,1.8-2.1,2-3.5c0.3-0.2,0.7-0.3,1-0.5
	c0.1,0.1,0.2,0.2,0.1,0.3C26.8,14.9,26.7,15,26.7,15z"/>
<path class="st178" d="M58.1,18.1c0.9-0.2,1.8-0.4,2.7-0.6c0.1,0.2,0.3,0.3,0.4,0.5c-1,1.4-2.6,1.1-4,1.4
	C57.1,18.7,57.7,18.5,58.1,18.1z"/>
<path class="st179" d="M19.7,19.4c0,0.2,0,0.3,0,0.5c-1.6-0.2-2.8,0.7-4,1.5c-0.1-0.7,0.2-1.4,0.5-2c0.7-1,1.3-2,2-3
	C19,17.3,19.8,18.1,19.7,19.4z"/>
<path class="st142" d="M7.2,19c2.6,1.9,5.3,1.4,8,0.5c-1.1,2.2-3.5,0.9-5,2c-0.6-0.3-1.3-0.6-2-0.5c0-0.4-0.1-0.8-0.5-1
	C7.5,19.6,7.4,19.3,7.2,19z"/>
<path class="st180" d="M56.7,7.5c0.5,2.8-1.6,3-3.5,3.5c0.1-1.2-0.5-2.4,0.5-3.5C54.7,8.8,55,8,55.2,7c0.3,0,0.7,0,1,0
	C56.4,7.1,56.5,7.3,56.7,7.5z"/>
<path class="st181" d="M55.2,7c0.3,0.8,1.1,2-0.2,2.3c-1.1,0.3-1.2-0.9-1.3-1.8C54.2,7.3,54.7,7.1,55.2,7z"/>
<path class="st182" d="M26.7,15c0-0.2,0-0.3,0-0.5c0.4-1.1,1.2-1,2-0.5c0,0.2,0,0.3,0,0.5c0.1,0.1,0.2,0.2,0.1,0.3
	c0,0.1-0.1,0.2-0.1,0.2C28,15,27.4,15,26.7,15z"/>
<path class="st183" d="M28.7,15c0-0.2,0-0.3,0-0.5c2.3-0.4,2.4-0.2,1.5,2.5C29.4,16.5,28.7,16,28.7,15z"/>
</svg>
