<?xml version="1.0" encoding="utf-8"?>
<!-- Generator: Adobe Illustrator 22.0.1, SVG Export Plug-In . SVG Version: 6.00 Build 0)  -->
<svg version="1.1" id="Layer_1" xmlns="http://www.w3.org/2000/svg" xmlns:xlink="http://www.w3.org/1999/xlink" x="0px" y="0px"
	 viewBox="0 0 180.7 101" style="enable-background:new 0 0 180.7 101;" xml:space="preserve">
<style type="text/css">
	.st0{fill:#FFFFFF;}
</style>
<path class="st0" d="M127,40.4c4.7-2.8,9.3-6.3,15.1-6.9c12.9-1.3,23.7,3,32.1,12.6c7.2,8.3,8.3,18,4.1,28
	c-3.6,8.6-11.2,13.2-19.2,16.5c-26.5,11.1-54.4,11.1-82.5,9.6c-16.5-0.9-32.8-2.4-48.8-6.3C18.3,91.7,10,87.6,4.2,79.4
	C-2.3,70.2-1.2,52,6.9,44.5c5-4.6,11.7-5.2,18.3-4.2c1.3,0.2,2.7,0.4,3.9,0.9c3.8,1.5,5.6,0.2,6.9-3.7c3.8-11.1,10-20.5,20.1-27.1
	C69,2,82.7,2.4,96.4,6.7c14.4,4.4,25.4,12.9,28.6,28.8c0.3,1.3,0.7,2.6,1.2,3.8C126.3,39.5,126.5,39.8,127,40.4z"/>
</svg>
