<svg version="1.1" id="Layer_1" xmlns="http://www.w3.org/2000/svg" xmlns:xlink="http://www.w3.org/1999/xlink" x="0px" y="0px"
	 viewBox="0 0 595.3 114" style="enable-background:new 0 0 595.3 114;" xml:space="preserve">
<style type="text/css">
	.st0{fill:#FF0000;}
	.st1{fill:#FFFF00;}
</style>
<g>
	<path class="st0" d="M15.8,53.5v-39h24h24V20v5.6h4h4v16.7V59h-4h-4v5.6v5.6h-16h-16v11.1v11.1h-8h-8V53.5z M55.8,42.3V25.6h-12
		h-12v16.7V59h12h12V42.3z"/>
	<path class="st0" d="M95.8,42.3v-5.6h12h12V59v22.3h8h8v5.6v5.6h-24h-24v-5.6v-5.6h8h8V64.6V47.9h-4h-4V42.3z M103.8,20v-5.6h8h8
		V20v5.6h-8h-8V20z"/>
	<path class="st0" d="M143.9,47.9V36.7h8h8v5.6v5.6h12h12v-5.6v-5.6h8h8v11.1V59h-8h-8v5.6v5.6h8h8v11.1v11.1h-8h-8v-5.6v-5.6h-12
		h-12v5.6v5.6h-8h-8V81.3V70.2h8h8v-5.6V59h-8h-8V47.9z"/>
	<path class="st0" d="M215.9,42.3v-5.6h20h20v5.6v5.6h4h4V59v11.1h-20h-20v5.6v5.6h16h16v5.6v5.6h-20h-20v-5.6v-5.6h-4h-4V64.6V47.9
		h4h4V42.3z M247.9,53.5v-5.6h-12h-12v5.6V59h12h12V53.5z"/>
	<path class="st0" d="M288,20v-5.6h12h12v33.4v33.4h8h8v5.6v5.6h-24h-24v-5.6v-5.6h8h8V53.5V25.6h-4h-4V20z"/>
	<path class="st0" d="M344,42.3v-5.6h20h20v5.6v5.6h4h4v22.3v22.3h-24h-24v-5.6v-5.6h-4h-4v-5.6v-5.6h4h4v-5.6V59h16h16v-5.6v-5.6
		h-16h-16V42.3z M376,75.7v-5.6h-12h-12v5.6v5.6h12h12V75.7z"/>
	<path class="st0" d="M424,25.6V14.5h8h8v11.1v11.1h8h8v5.6v5.6h-8h-8v22.3v22.3h-8h-8V70.2V47.9h-8h-8v-5.6v-5.6h8h8V25.6z"/>
	<path class="st0" d="M472.1,42.3v-5.6h20h20v5.6v5.6h4h4V59v11.1h-20h-20v5.6v5.6h16h16v5.6v5.6h-20h-20v-5.6v-5.6h-4h-4V64.6V47.9
		h4h4V42.3z M504.1,53.5v-5.6h-12h-12v5.6V59h12h12V53.5z"/>
	<path class="st0" d="M568.2,25.6V14.5h8h8v39v39h-24h-24v-5.6v-5.6h-4h-4V64.6V47.9h4h4v-5.6v-5.6h16h16V25.6z M568.2,64.6V47.9
		h-12h-12v16.7v16.7h12h12V64.6z"/>
</g>
<g>
	<path class="st1" d="M14.1,49.8v-39h24h24v5.6V22h4h4v16.7v16.7h-4h-4v5.6v5.6h-16h-16v11.1v11.1h-8h-8V49.8z M54.1,38.7V22h-12
		h-12v16.7v16.7h12h12V38.7z"/>
	<path class="st1" d="M94.1,38.7v-5.6h12h12v22.3v22.3h8h8v5.6v5.6h-24h-24v-5.6v-5.6h8h8V60.9V44.2h-4h-4V38.7z M102.2,16.4v-5.6h8
		h8v5.6V22h-8h-8V16.4z"/>
	<path class="st1" d="M142.2,44.2V33.1h8h8v5.6v5.6h12h12v-5.6v-5.6h8h8v11.1v11.1h-8h-8v5.6v5.6h8h8v11.1v11.1h-8h-8v-5.6v-5.6h-12
		h-12v5.6v5.6h-8h-8V77.7V66.5h8h8v-5.6v-5.6h-8h-8V44.2z"/>
	<path class="st1" d="M214.2,38.7v-5.6h20h20v5.6v5.6h4h4v11.1v11.1h-20h-20v5.6v5.6h16h16v5.6v5.6h-20h-20v-5.6v-5.6h-4h-4V60.9
		V44.2h4h4V38.7z M246.3,49.8v-5.6h-12h-12v5.6v5.6h12h12V49.8z"/>
	<path class="st1" d="M286.3,16.4v-5.6h12h12v33.4v33.4h8h8v5.6v5.6h-24h-24v-5.6v-5.6h8h8V49.8V22h-4h-4V16.4z"/>
	<path class="st1" d="M342.3,38.7v-5.6h20h20v5.6v5.6h4h4v22.3v22.3h-24h-24v-5.6v-5.6h-4h-4v-5.6v-5.6h4h4v-5.6v-5.6h16h16v-5.6
		v-5.6h-16h-16V38.7z M374.3,72.1v-5.6h-12h-12v5.6v5.6h12h12V72.1z"/>
	<path class="st1" d="M422.4,22V10.8h8h8V22v11.1h8h8v5.6v5.6h-8h-8v22.3v22.3h-8h-8V66.5V44.2h-8h-8v-5.6v-5.6h8h8V22z"/>
	<path class="st1" d="M470.4,38.7v-5.6h20h20v5.6v5.6h4h4v11.1v11.1h-20h-20v5.6v5.6h16h16v5.6v5.6h-20h-20v-5.6v-5.6h-4h-4V60.9
		V44.2h4h4V38.7z M502.4,49.8v-5.6h-12h-12v5.6v5.6h12h12V49.8z"/>
	<path class="st1" d="M566.5,22V10.8h8h8v39v39h-24h-24v-5.6v-5.6h-4h-4V60.9V44.2h4h4v-5.6v-5.6h16h16V22z M566.5,60.9V44.2h-12
		h-12v16.7v16.7h12h12V60.9z"/>
</g>
<g>
</g>
<g>
</g>
<g>
</g>
<g>
</g>
<g>
</g>
</svg>
