<svg version="1.1" id="Layer_1" xmlns="http://www.w3.org/2000/svg" xmlns:xlink="http://www.w3.org/1999/xlink" x="0px" y="0px"
	 viewBox="0 0 182.3 45" style="enable-background:new 0 0 182.3 45;" xml:space="preserve">
<style type="text/css">
	.st0{fill:#FFFFFF;}
</style>
<path class="st0" d="M36.6,24.5c0.1-4.4,2.7-7.5,5.6-9.8C57.1,2.9,74.1-2.1,93.1,0.8c6,0.9,11.5,3.4,16.1,7.4
	c3,2.6,6.3,3.2,10.1,3.1c7.3-0.1,14.7-1.3,21.7,1.7c1.2,0.5,2.7,0.7,3.6,1.6c5.2,4.8,11.2,3.8,17.4,2.9c7.2-1.1,13.6,0.6,18.2,6.8
	c3.6,4.8,2.8,8.2-2.4,11.4c-6.5,4-13.9,4.8-21.1,5.3c-15.6,1.1-31.3,3.3-46.8,2c-24.5-2.1-48.8,2.2-73.3,1.6
	c-8.3-0.2-16.6,1.3-24.8-0.3c-0.2,0-0.3,0-0.5,0c-4.5-1.3-9.4-2.5-10.8-7.7c-1.4-5.2,2.2-8.5,6-11C16,19,26.1,18.1,36.6,24.5z"/>
</svg>
