<?xml version="1.0" encoding="utf-8"?>
<!-- Generator: Adobe Illustrator 22.0.1, SVG Export Plug-In . SVG Version: 6.00 Build 0)  -->
<svg version="1.1" id="Layer_1" xmlns="http://www.w3.org/2000/svg" xmlns:xlink="http://www.w3.org/1999/xlink" x="0px" y="0px"
	 viewBox="0 0 61.2 44.7" style="enable-background:new 0 0 61.2 44.7;" xml:space="preserve">
<style type="text/css">
	.st0{fill:#419743;}
	.st1{fill:#412720;}
	.st2{fill:#50AB44;}
	.st3{fill:#734C2B;}
	.st4{fill:#4EA944;}
	.st5{fill:#633F27;}
	.st6{fill:#764F2C;}
	.st7{fill:#704A2A;}
	.st8{fill:#3B8F44;}
	.st9{fill:#583521;}
	.st10{fill:#3C9044;}
	.st11{fill:#3A8C45;}
	.st12{fill:#4FAA44;}
	.st13{fill:#48A044;}
	.st14{fill:#55321F;}
	.st15{fill:#479F44;}
	.st16{fill:#4FAB44;}
	.st17{fill:#3F9543;}
	.st18{fill:#317F47;}
	.st19{fill:#744D2B;}
</style>
<rect x="-0.1" y="-0.1" class="st0" width="61.4" height="11.2"/>
<path class="st1" d="M-0.1,17.3c0,13.6,0,27.1,0,40.7h61.5V17.3H-0.1z"/>
<g>
	<g>
		<g>
			<path class="st2" d="M37.4,1.4c-1.5,0-3.1,0.2-4.5-0.7c-0.2-0.2-0.3-0.3-0.2-0.5c0.1-0.2,0.2-0.2,0.2-0.2c1.5,0,3,0,4.5,0
				C37.8,0.4,37.8,0.9,37.4,1.4z"/>
			<path class="st2" d="M46.4,0.7c-1.5-0.2-3.5,2.4-4.5-0.7c1.5,0,3,0,4.5,0c0.3,0.2,0.3,0.3,0.3,0.5C46.5,0.6,46.5,0.7,46.4,0.7z"
				/>
			<path class="st2" d="M59.8-0.1c-1.5,0.9-3,3.1-4.5,0C56.8-0.1,58.3-0.1,59.8-0.1z"/>
			<path class="st2" d="M4.5-0.1C3.3,2.8,2,1.5,0.8-0.1C2-0.1,3.3-0.1,4.5-0.1z"/>
			<path class="st2" d="M18-0.1c-0.8,2.7-2.4,1.2-3.7,0.7C14,0.5,13.9,0.3,14,0.2c0.1-0.2,0.2-0.2,0.2-0.2C15.5-0.1,16.7-0.1,18-0.1
				z"/>
			<path class="st2" d="M54.6-0.1c-1.2,2-2.5,2-3.7,0C52.1-0.1,53.3-0.1,54.6-0.1z"/>
			<path class="st2" d="M32.9-0.1c0,0.2,0,0.5,0,0.7c-1.2-0.4-3,2.3-3.7-0.7C30.4-0.1,31.7-0.1,32.9-0.1z"/>
			<path class="st2" d="M27.7-0.1c-1.2,2-2.5,2-3.7,0C25.2-0.1,26.4-0.1,27.7-0.1z"/>
			<path class="st2" d="M14.2-0.1c0,0.2,0,0.5,0,0.7c-1.2-0.4-3,2.3-3.7-0.7C11.7-0.1,13-0.1,14.2-0.1z"/>
			<path class="st2" d="M9-0.1c-1.2,2-2.5,2-3.7,0C6.5-0.1,7.7-0.1,9-0.1z"/>
			<path class="st2" d="M37.4,1.4c0-0.5,0-1,0-1.5c1,0,2,0,3,0C39.8,1.3,38.7,1.5,37.4,1.4z"/>
			<path class="st2" d="M46.4,0.7c0-0.2,0-0.5,0-0.7c1,0,2,0,3,0C48.9,2.4,47.5,1.1,46.4,0.7z"/>
			<path class="st2" d="M22.4-0.1c-1,1.8-2,1.8-3,0C20.4-0.1,21.4-0.1,22.4-0.1z"/>
			<path class="st2" d="M60.6-0.1c0.2,0.5,0.5,0.8,0.8,1.1v-1.1C61.1-0.1,60.9-0.1,60.6-0.1z"/>
			<path class="st3" d="M45.7,21c-4.5,0.9-8.9,0.5-13.4-0.1c-1.9,0.6-2.6-0.4-2.9-2.1c0.2-1.3,1-2.1,2.4-2.1
				c1.3,0.6,2.4,0.9,4.1,0.6C39.4,16.5,43,17,46,19.5C46.1,20,46.1,20.5,45.7,21z"/>
			<path class="st4" d="M61.3,5.9c0,0.1,0.1,0.1,0.1,0.2V5.2C61.4,5.4,61.3,5.7,61.3,5.9z"/>
			<path class="st5" d="M60.2,9c-2.2,0.4-4.5,0.8-6.8,0.2c-0.9,0.3-1.8,0.8-2.8,0.3c-2-0.7-3.4,0.1-4.4,1.9c2.1,2.1,5,0.8,7.4,1.8
				c2-0.4,3.7-0.1,4.7,1.9c0.5,0.3,1,0.3,1.5,0c0.4-1.1,0.7-2.3,1.7-2.9V8.7C61,8.7,60.6,8.8,60.2,9z"/>
			<path class="st5" d="M10.2,9.3C9,9.4,7.8,9.9,6.7,9.2C4.4,9.6,2.2,9.4-0.1,9c0,1.8,0,3.7,0,5.5c0.1,0.2,0.2,0.4,0.3,0.6
				c0.5,0.2,1,0.2,1.5-0.1c1-2,2.7-2.3,4.7-1.9c2.4-1,5.2,0.2,7.3-1.7C13,9.9,11.8,9.2,10.2,9.3z"/>
			<path class="st6" d="M29.2,20.9c-0.5,1.1-1.5,0.6-2.3,0.5c-1.1-0.4-2-1.3-3.2-1.6c-1.9-0.4-2.2-1.6-1.5-3.3
				c3.1-1.7,5.2,0.1,7.3,2C29.5,19.4,29.8,20.2,29.2,20.9z"/>
			<path class="st6" d="M20.2,21.5c-2-0.9-4.1,1-6-0.5c-0.4-0.5-0.5-1-0.3-1.6c2-1.3,4-2.2,6.5-1.8C21.8,18.9,22.2,20.3,20.2,21.5z"
				/>
			<path class="st7" d="M0,14.9c0.5-1,1.2-2,0.2-3.1c-0.1-0.1-0.2-0.2-0.3-0.2c0,1.7,0,3.4,0,5.1C0.2,16.1,0.3,15.6,0,14.9z"/>
			<path class="st5" d="M6,20.9c-0.9,0.4-1.8,1-2.9,0.6c-0.2-1.7,1.3-2.9,1.3-4.5c0.8-0.8,1.5-1.7,2.5-2.3c1.7,0.1,2.9,1,3.8,2.4
				c0.2,1-0.1,1.7-0.8,2.4C8.5,19.6,6.9,19.5,6,20.9z"/>
			<path class="st7" d="M59.7,11.8c-1,1.1-0.3,2.1,0.2,3.1c-0.5,1,0,1.7,0.6,2.4c0.4,0.1,0.7,0.1,1,0v-5.9
				C60.8,11.1,60.2,11.2,59.7,11.8z"/>
			<path class="st7" d="M45.7,21c0-0.5,0-1,0-1.6c0.7-1.8,1.7-3,3.9-2.5c0.9,0.6,1.3,1.5,1.4,2.5c0,0.8-0.2,1.6-0.8,2.2
				C48.6,21.7,47.1,21.8,45.7,21z"/>
			<path class="st7" d="M9.7,19.4c0.3-0.7,0.5-1.5,0.8-2.2c2.3-0.9,3,0.6,3.7,2.2c0,0.5,0,1,0,1.6c-1.4,0.9-2.9,0.8-4.5,0.5
				C9.1,20.8,9.1,20.1,9.7,19.4z"/>
			<path class="st5" d="M20.2,21.5c0.9-1.2,0.7-2.4,0-3.6c0.6-0.8,1.2-1.2,2.2-0.8c0.1,0.9-0.1,2.4,1.3,2.1c2.1-0.4,2.3,1.4,3.2,2.3
				C24.7,21.2,22.4,21.2,20.2,21.5z"/>
			<path class="st6" d="M58.4,20.9c-0.5,1.1-1.5,0.6-2.3,0.6c-0.7-0.7-1.6-1.3-1.9-2.4c-0.1-1,0.3-1.8,1.1-2.3
				c0.5-0.3,1.1-0.3,1.6-0.3c0.8,0.1,1.4,0.5,1.9,1.1C59.8,18.9,59.7,20,58.4,20.9z"/>
			<path class="st6" d="M4.5,17.1c1.6,2.1-0.8,3-1.5,4.4c-0.6,0.1-1.3,0.3-1.5-0.6C0.2,20,0,18.9,1,17.6c0.5-0.6,1.2-0.9,1.9-1.1
				C3.6,16.5,4.1,16.7,4.5,17.1z"/>
			<path class="st6" d="M50.1,21.5c0-0.7,0-1.4,0-2.1c1.3-2,2.7-3.3,4.1-0.1c0.2,0.6,0.1,1.2-0.3,1.6C52.8,22.3,51.4,21.4,50.1,21.5
				z"/>
			<path class="st6" d="M9.7,19.4c0,0.7,0,1.4,0,2.1c-1.3-0.1-2.7,0.8-3.8-0.6C6,17.4,7.6,17.7,9.7,19.4z"/>
			<polygon class="st8" points="61.3,5.9 61.3,5.9 61.3,5.9 			"/>
			<path class="st8" d="M61.3,5.9c-0.4,0.4-0.7,0.9-0.7,1.5c0,0.6,0.2,1.1,0.7,1.5c0,0,0.1,0,0.1,0L61.3,5.9
				C61.4,6,61.4,5.9,61.3,5.9z"/>
			<polygon class="st8" points="-1.5,5.9 -1.5,5.9 -1.5,5.9 			"/>
			<path class="st7" d="M60.6,17.1c-0.6,0.2-1,0.6-1.1,1.3c0.3,1.5,1,1.7,2,1.3v-3C61.1,16.9,60.9,17,60.6,17.1z"/>
			<path class="st9" d="M59.8,17.9c-0.5-0.4-0.9-0.4-1.4,0c0.7,1,0.6,2,0,3c1-0.1,2.2,0.1,3.1-0.5v-1C60.6,19.3,59.9,19.1,59.8,17.9
				z"/>
			<path class="st9" d="M1.5,17.9c-0.4-0.4-0.9-0.5-1.4-0.3c0,0-0.1,0.1-0.2,0.1c0,1.1,0,2.1,0,3.2c0.5,0,1.1,0,1.6,0.1
				C0.9,19.9,0.8,18.9,1.5,17.9z"/>
			<path class="st7" d="M-0.1,17.6c0,0.3,0,0.6,0,0.9C0,18.3,0,18.1,0,17.9C0,17.8,0,17.7-0.1,17.6z"/>
			<path class="st5" d="M29.2,20.9c0-0.8,0-1.5,0-2.3c0.2-0.2,0.5-0.2,0.7,0c0.1,1.5,0.9,2.2,2.4,2.3C31.3,22.5,30.2,21.2,29.2,20.9
				z"/>
			<path class="st5" d="M29.9,18.6c-0.2,0-0.5,0-0.7,0c-2.4,0-4.1-3-6.7-1.5c-0.7,0.3-1.5,0.5-2.2,0.8c-2,0.5-4,1-6,1.5
				c-1.3-0.6-1.9-2.4-3.7-2.2c-1.3-0.8-2.5-1.5-3.8-2.3C6,14.3,5.5,13.6,6,12.6c2.3-1.5,5.1-0.5,7.5-1.6c-0.2-0.3-0.2-0.6,0.1-0.9
				c2.5,0.7,4.4-0.9,6.5-1.7c1.5,0.5,3.1,0.3,4.6,0.5c0.6,3.3,3.4-0.4,4.5,1.4c0.5,0.9-0.2,1.6-0.6,2.3c-0.6,1.2,0,1.8,1.1,2.1
				c1.2,0.4,2.6,0.5,2.4,2.4C31.1,17.1,30.3,17.6,29.9,18.6z"/>
			<path class="st5" d="M32.2,17.1c-0.6-1.3-1.7-1.5-3-1.5c-0.4-1.5,0.6-2.9,0.5-4.4c0.8-0.6,1.6-1.1,2.5-1.6c0.9,0,1.1,1.7,2.3,0.8
				c1.8-1,2.8-0.1,3.4,1.6c0.3,0.6,0.5,1.4,1.3,1.9c0.4-1.3-1-1.4-1.2-2.1c0-0.6,0.4-0.9,0.9-1.2c1.4-0.6,2.8,0,4.2,0.1
				c1.1,0.1,2.5-1.9,3.3,0.4c2.4,1.1,5.2,0.1,7.5,1.5c0.5,0.9,0,1.7-0.4,2.5c-1.1,1.2-2.2,2.5-4.1,2c-1.8-0.1-2.4,1.7-3.7,2.2
				c-3.7-0.7-7.2-2.9-11.1-0.8C32.9,19.5,32.7,18,32.2,17.1z"/>
			<path class="st10" d="M46.4,11.1c-1.5-1.6-1.9,0.8-2.9,0.8c-0.6-0.4-1.1-0.7-1.5-1.3c-0.3-0.6-0.5-1.3,0-1.9
				c0.9-0.6,1.8-1,2.9-0.5c0.3,0,0.5,0,0.8,0c1.2-0.5,2.5-0.5,3.7-0.7c0.3,0,0.5,0,0.8,0c0.1,0.1,0.3,0.2,0.4,0.3
				c0.6,0.9,1.2,1.7,0.3,2.7C49,8.6,48,11.5,46.4,11.1z"/>
			<path class="st11" d="M54.6,7.4c-0.3,0-0.5,0-0.8,0c-0.7,0.2-1.1,0.7-1.2,1.4c0,0.3,0.2,0.6,0.4,0.9c2.5,1.7,5,0.4,7.5,0
				c-0.2-1-0.6-1.9-1.2-2.7C57.7,6,56.2,7.2,54.6,7.4z"/>
			<path class="st11" d="M6,7.4c-0.3,0-0.5,0-0.8,0C3.6,7.2,2.1,6,0.4,7C0.2,7.2,0.1,7.5-0.1,7.8c0,0.7,0,1.3,0,2
				c2.3,0.5,4.5,1.5,6.8-0.1C7,9.5,7.1,9.2,7.1,8.8C7.1,8.1,6.7,7.6,6,7.4z"/>
			<path class="st2" d="M24.7,6.7c1.5-3.6,4-1.2,6-0.8c0.9,0.2,0.1,2.1-0.3,1.9c-1.9-1.2-3.9,0.8-5.7-0.4c-0.2-0.1-0.3-0.3-0.2-0.5
				C24.6,6.7,24.6,6.7,24.7,6.7z"/>
			<path class="st0" d="M6.7,9.7c0-0.3,0-0.5,0-0.8c0.8-0.9,1.5-2,3-1.5c0.3,0,0.5,0,0.8,0c1.2,0.3,2.5,0.3,3.7,0.7l0,0
				c0.9,1.1,0,1.7-0.7,2.3c0,0.2,0,0.4,0,0.6c-1.7-0.2-3.3-2.3-5.2-0.2C7.9,11.3,7.1,10.3,6.7,9.7z"/>
			<path class="st12" d="M-0.1,5.6c0,0.8,0,1.5,0,2.3c0.3-0.1,0.6-0.2,0.8-0.4c1.5-0.3,3,1.7,4.5,0C4,4.3,2,5-0.1,5.6z"/>
			<path class="st12" d="M54.6,7.4c1.5,1.7,3-0.3,4.5,0c0.7,0.6,1.5,0.6,2.2,0c0-0.5,0-1,0-1.5C58.9,5.5,56.1,3.6,54.6,7.4z"/>
			<path class="st10" d="M13.5,10.5c0.2-0.8,0.5-1.5,0.7-2.3c0.3,0,0.5,0,0.8,0c1.5-0.3,2.9-1,4.4-0.8c0.3,0,0.5,0,0.8,0
				c0.1,0.1,0.2,0.3,0.3,0.4c0,0.4,0,0.7-0.3,0.9C18.2,10.2,16.3,12.4,13.5,10.5z"/>
			<path class="st12" d="M44.9,8.1c-0.9,0.5-1.9,0.9-3,0.8c-1.2,0.2-1.7-0.3-1.5-1.5c0.1-1.3,0.6-2.3,2-2.1
				C43.9,5.5,44.7,6.6,44.9,8.1z"/>
			<path class="st13" d="M49.4,7.4c-0.9,1.9-2.3,1.6-3.7,0.7c0.1-1.3-0.5-3.1,1.3-3.4C48.5,4.5,49.2,5.9,49.4,7.4z"/>
			<path class="st13" d="M14.2,8.1c-1.5,0.8-2.8,1.2-3.7-0.7c0.2-1.5,0.9-2.9,2.4-2.6C14.7,5.1,14.1,6.9,14.2,8.1z"/>
			<path class="st14" d="M30,11c1.2,1.8,0.3,3.2-0.8,4.6c-4.9-1.8-0.5-3.5,0-5.3c0.2,0,0.5,0.1,0.7,0.1c0.3,0.1,0.4,0.2,0.3,0.4
				C30.1,11,30,11,30,11z"/>
			<path class="st12" d="M19.4,7.4c-1.3,1-2.7,2.2-4.4,0.8c0.1-1.5,1-2.6,2.4-2.8C18.8,5.1,19.4,6.1,19.4,7.4z"/>
			<path class="st15" d="M20.2,7.4c0-1.3,0-2.7,1.7-2.9c1.4-0.2,1.9,0.8,2,2.1C23,8.6,21.9,9.5,20.2,7.4L20.2,7.4z"/>
			<path class="st2" d="M33.9,4.5c1,0.1,1.8,0.4,1.7,1.5c-0.1,1-0.9,1.8-1.9,1.9c-0.8,0.1-1.3-0.6-1.4-1.4
				C32.2,5.3,32.8,4.7,33.9,4.5z"/>
			<path class="st16" d="M9.7,7.4C8.7,7.8,8,9,6.7,8.9C6.5,8.4,6.2,7.9,6,7.4c0.1-1.2,0.6-2.1,1.9-2.1C9.1,5.3,9.7,6.2,9.7,7.4z"/>
			<path class="st17" d="M38.8,11.1c-0.2,0.3-0.4,0.5-0.5,0.8c0.1,0.6-0.1,1-0.8,0.7c-0.3-1.7-1.6-2-3-2.1c0.4-1.1,1.2-1.8,2.3-2.3
				c1-0.5,1.7,0,2.4,0.6c0.3,0.5,0.4,1,0.3,1.5C39.3,10.6,39.1,10.9,38.8,11.1z"/>
			<path class="st16" d="M53.8,7.4c-0.3,0.5-0.5,1-0.8,1.5c-1.8,1.1-2.1-0.7-3-1.5c0,0,0,0,0,0c0.1-1.2,0.6-2.1,1.9-2.1
				C53.3,5.3,53.8,6.2,53.8,7.4z"/>
			<path class="st0" d="M20.2,7.4c1.5,1.3,2.6-0.1,3.7-0.7c0.3,0,0.5,0,0.8,0c0,0.2,0,0.5,0,0.7c0,0.5,0,1.1,0,1.6
				c-1.5,1.4-3,1.6-4.5-0.2C20.2,8.3,20.2,7.9,20.2,7.4z"/>
			<path class="st12" d="M38.9,8.9c-0.7-0.2-1.5-0.5-2.2-0.7c0-1.1-0.1-2.4,1.3-2.7c1.3-0.2,1.5,0.9,1.7,1.9
				C40,8.2,39.6,8.6,38.9,8.9z"/>
			<path class="st18" d="M38.9,8.9c0.3-0.5,0.5-1,0.8-1.5c0.2,0,0.5,0,0.7,0c0.5,0.5,1,1,1.5,1.5c0.2,0.5,0.5,1,0.7,1.5
				c-1.2,0.6-2.5-0.1-3.7,0C38.9,9.9,38.9,9.4,38.9,8.9z"/>
			<path class="st0" d="M30,11c0-0.2,0-0.4-0.1-0.6c1,0.4,0.9-2.3,2.3-0.8C31.7,10.6,31.1,11.2,30,11z"/>
			<path class="st5" d="M53.1,14.9c0.3-0.7,0.5-1.5,0.8-2.2c2.4-1.1,4.4-1.4,4.5,2.2c-0.1,1-0.8,1.7-1.5,2.3c-0.5,0-1,0-1.5,0
				C53.2,17.7,52.5,17,53.1,14.9z"/>
			<path class="st19" d="M58.3,14.9c-1,0.4-1.5,1.2-1.5,2.3c0.5,0.3,1,0.5,1.5,0.8c0.5,0,0.9,0,1.4,0c0.3-0.3,0.5-0.5,0.8-0.8
				c-0.2-0.7-0.5-1.5-0.7-2.2C59.3,14.9,58.8,14.9,58.3,14.9z"/>
			<path class="st0" d="M50.1,7.4c1,0.4,1.7,1.6,3,1.5c0,0.3,0,0.5,0,0.8c-0.6,0.7-1,2.1-2.3,0.7C50.6,9.4,50.4,8.4,50.1,7.4z"/>
			<path class="st17" d="M59.1,7.4c0,1.1,0.5,1.8,1.5,2.3c0.2-0.2,0.5-0.5,0.7-0.7c0-0.5,0-1,0-1.6C60.6,7.4,59.8,7.4,59.1,7.4z"/>
			<path class="st5" d="M6,12.6c0.3,0.7,0.5,1.5,0.8,2.2c-0.1,1.4-0.8,2.2-2.3,2.2c-0.5,0-1,0-1.5,0c-0.8-0.6-1.4-1.2-1.5-2.3
				C1.6,11.3,3.6,11.5,6,12.6z"/>
			<path class="st19" d="M1.5,14.9c-0.5,0-1,0-1.5,0c0,0.1-0.1,0.2-0.1,0.3c0,0.9,0,1.7,0,2.6c0,0,0.1,0.1,0.1,0.1
				c0.5,0,0.9,0,1.4,0c0.5-0.3,1-0.5,1.5-0.8C3,16,2.5,15.3,1.5,14.9z"/>
			<path class="st17" d="M-0.1,7.4c0,0.6,0,1.3,0,1.9c0.6-0.4,0.8-1.1,0.8-1.9C0.5,7.4,0.2,7.4-0.1,7.4z"/>
			<path class="st5" d="M53.1,14.9c0.1,1.4,0.8,2.2,2.3,2.3c-0.2,0.7-0.5,1.5-0.7,2.2c-0.2,0-0.5,0-0.7,0c-1.3-2.5-2.5-0.6-3.8,0
				c-0.3-0.7-0.5-1.5-0.8-2.2C50.6,16.4,51.8,15.6,53.1,14.9z"/>
			<path class="st14" d="M15.1,16.3c-0.9-0.2-1.7-0.7-1.3-1.7c0.3-0.9,1-1.8,2.1-1.6c0.8,0.1,1.2,0.8,1.2,1.6
				C17,15.7,16.3,16.3,15.1,16.3z"/>
			<path class="st14" d="M19.4,15.4c-0.8-0.1-1.3-0.6-1.2-1.4c0.1-0.6,0.5-1.1,1.2-1.1c0.8,0,1.3,0.6,1.2,1.4
				C20.6,14.9,20.2,15.3,19.4,15.4z"/>
			<path class="st14" d="M12.5,14.2c-0.2,0.8-0.7,1.3-1.5,1.1c-0.6-0.1-1.1-0.6-1-1.3c0.1-0.8,0.7-1.3,1.5-1.1
				C12.1,13.1,12.5,13.5,12.5,14.2z"/>
			<path class="st14" d="M25.2,12.6c-0.1,0.7-0.5,1.2-1.1,1.3c-0.8,0.1-1.4-0.4-1.4-1.2c0-0.7,0.5-1.1,1.1-1.2
				C24.6,11.3,25.1,11.8,25.2,12.6z"/>
			<path class="st14" d="M44.4,16.3c-1.1-0.2-1.8-0.8-1.6-2c0.1-0.8,0.6-1.5,1.4-1.4c1.1,0.1,1.8,0.9,1.9,1.9
				C46.2,15.8,45.3,16.2,44.4,16.3z"/>
			<path class="st14" d="M37.4,12.6c0.3-0.2,0.5-0.5,0.8-0.7c1.2,0.1,2.7,0,2.6,1.8c-0.1,0.8-0.9,1.7-1.8,1.7
				C37.3,15.3,37.4,13.8,37.4,12.6z"/>
			<path class="st14" d="M35.7,14.6c0,0.9-0.4,1.4-1,1.5c-0.8,0.1-1.4-0.3-1.5-1.2c-0.1-0.7,0.4-1.2,1-1.3
				C35,13.5,35.4,14.1,35.7,14.6z"/>
			<path class="st14" d="M49.9,14.1c-0.1,0.7-0.5,1.2-1.1,1.3c-0.8,0.1-1.4-0.4-1.4-1.2c0-0.7,0.5-1.1,1.1-1.2
				C49.3,12.8,49.8,13.3,49.9,14.1z"/>
			<path class="st5" d="M38.9,10.4c1.2-1.2,2.5-0.2,3.7,0c0.3,0.5,0.5,0.9,0.8,1.4c-1.5-0.3-3.1-0.5-4.6-0.8
				C38.8,10.9,38.9,10.7,38.9,10.4z"/>
		</g>
		<g>
			<path class="st14" d="M53.6,25.7c-0.4,1.1-1.1,1.9-2.3,2c-0.9,0.1-1.8-0.4-1.6-1.4c0.2-1.1,1-1.9,2.2-2
				C52.8,24.2,53.5,24.7,53.6,25.7z"/>
			<path class="st14" d="M29.7,24.5c-0.2,1.1-0.7,1.8-1.7,1.5c-1-0.3-1.9-1.2-1.8-2.4c0.1-0.9,0.7-1.7,1.6-1.4
				C28.9,22.6,29.5,23.4,29.7,24.5z"/>
			<path class="st14" d="M7.4,24.2c1.2,0.2,2,0.9,2.3,1.9c0.2,1-0.6,1.5-1.5,1.5c-1.2,0-2.1-0.8-2.3-1.9C5.6,24.8,6.5,24.3,7.4,24.2
				z"/>
			<path class="st14" d="M16.5,22.2c-0.2,1.1-0.6,1.9-1.6,1.7c-0.9-0.2-1.7-0.9-1.7-2c0-0.8,0.7-1.2,1.5-1.3
				C15.8,20.5,16.3,21.3,16.5,22.2z"/>
			<path class="st14" d="M44.5,23.9c-1-0.1-1.5-0.7-1.5-1.7c0-0.9,0.6-1.6,1.6-1.7c0.9-0.1,1.7,0.3,1.7,1.3
				C46.2,23,45.4,23.5,44.5,23.9z"/>
			<path class="st14" d="M38.4,24.6c-0.9-0.3-1.7-0.9-1.8-1.9c-0.1-0.9,0.6-1.4,1.4-1.2c1,0.2,1.8,0.9,1.7,2
				C39.7,24.1,39.2,24.6,38.4,24.6z"/>
			<path class="st14" d="M23.2,23.6c0.7,0.3,1.3,0.6,1.2,1.3c-0.1,0.9-0.8,1.7-1.6,1.7c-0.8,0-1.1-0.9-0.9-1.7
				C21.9,24.1,22.5,23.7,23.2,23.6z"/>
			<path class="st14" d="M33.3,20.6c0.8,0.3,1.3,0.6,1.3,1.3c0,0.8-0.6,1.3-1.4,1.2c-0.6-0.1-1.1-0.5-1.1-1.2
				C32.1,21.1,32.8,20.9,33.3,20.6z"/>
			<path class="st14" d="M11.9,22.4c0,0.8-0.3,1.2-0.9,1.4c-0.8,0.2-1.4-0.3-1.5-1c-0.1-0.7,0.3-1.1,0.9-1.3
				C11.2,21.2,11.6,21.8,11.9,22.4z"/>
			<path class="st14" d="M17.5,22.9c0-0.9,0.4-1.3,1-1.4c0.8-0.1,1.3,0.3,1.4,1.1c0.1,0.7-0.4,1.1-1,1.3
				C18.2,24,17.7,23.5,17.5,22.9z"/>
			<path class="st14" d="M48.9,23.9c-0.7,0-1.2-0.3-1.3-0.9c-0.2-0.8,0.3-1.4,1-1.5c0.7-0.1,1.2,0.3,1.3,0.9
				C50.1,23.2,49.6,23.6,48.9,23.9z"/>
		</g>
	</g>
</g>
<g>
	<g>
		<g>
			<path class="st0" d="M60.7-0.1c-0.9,0.9-2.1,0.7-3.3,0.8c-1,0-1.5,0.7-2,1.4c0,1,0,2,0,3c1.3,0.4,2.9-0.7,4.1,0.7
				c0.3,0.2,0.6,0.3,0.9,0.4c0.3,0,0.6,0,0.9,0v-6.3C61.2-0.1,61-0.1,60.7-0.1z"/>
			<path class="st2" d="M55.5,5.2c1.7-1,3.6-3.1,4.5,0.8c-0.7,1.7-1.5,3.2-3.8,2.3c-0.2,0-0.5,0-0.7,0C55.5,7.2,55.5,6.2,55.5,5.2z"
				/>
			<path class="st2" d="M57.7,1.4c1.3,0.1,2.5-0.1,3.1-1.5c-0.7,0-1.5,0-2.2,0C58.2,0.4,57.9,0.9,57.7,1.4z"/>
			<path class="st5" d="M61.2,9c-0.5-0.2-1-0.3-1.5-0.3c-0.9,0.3-1.6,0.7-1.3,1.8c0.1,0.5,0.2,0.9,0.2,1.4c1.8,0.2,2.3,1.4,2.8,2.8
				V9C61.3,9,61.3,9,61.2,9z"/>
			<path class="st7" d="M58.6,11.9c-0.2,1.8-0.5,3.6,0.5,5.2c0.5,0.4,1,0.5,1.6,0.3c0.3-0.3,0.5-0.5,0.7-0.8v-5
				C60.5,10.8,59.5,11.4,58.6,11.9z"/>
			<path class="st8" d="M56.2,8.2c0.1,1.4,0.7,2.2,2.2,2.3c0.3-0.7,0.8-1.3,1.6-1.5c0.5-0.4,0.7-0.9,0.7-1.5c0-0.6-0.2-1.1-0.7-1.5
				C58.6,6.5,57.9,8.3,56.2,8.2z"/>
			<polygon class="st8" points="60,5.9 60,5.9 60,5.9 			"/>
			<path class="st9" d="M59.2,19.4c0.5,1.2,1.3,1.4,2.2,1.5v-3.2C60.6,18.1,59.7,18.5,59.2,19.4z"/>
			<path class="st7" d="M61.4,17.6v0.8c0-0.1,0.1-0.3,0.1-0.5C61.5,17.8,61.5,17.7,61.4,17.6z"/>
			<path class="st7" d="M60.7,17.1c-0.5,0-1.1,0-1.6,0c-0.9,0.8-1,1.5,0,2.3c1,0,1.9,0,2.2-1v-0.8C61.3,17.4,61.1,17.2,60.7,17.1z"
				/>
			<path class="st11" d="M60.7,9.7c0.2,0,0.5,0.1,0.7,0.1V7.7C61.1,8.3,60.8,9,60.7,9.7z"/>
			<path class="st12" d="M60,5.9c0,0.5,0,1,0,1.5c0.5,0.4,0.9,0.6,1.4,0.4V5.5C60.9,5.7,60.4,5.8,60,5.9z"/>
			<path class="st19" d="M60.7,17.1c0.2,0.2,0.5,0.5,0.7,0.7V15C61.2,15.7,61,16.4,60.7,17.1z"/>
			<path class="st17" d="M60,7.4c0,0.5,0,1,0,1.6c0.2,0.2,0.5,0.5,0.7,0.7c0.3-0.1,0.5-0.3,0.7-0.4V7.4C60.9,7.4,60.5,7.4,60,7.4z"
				/>
		</g>
	</g>
	<path class="st2" d="M60.8-0.1c-1.9,0-3.8,0-5.8,0C56.9,3,58.9,0.9,60.8-0.1z"/>
</g>
</svg>
