<?xml version="1.0" encoding="utf-8"?>
<!-- Generator: Adobe Illustrator 22.0.1, SVG Export Plug-In . SVG Version: 6.00 Build 0)  -->
<svg version="1.1" id="Layer_1" xmlns="http://www.w3.org/2000/svg" xmlns:xlink="http://www.w3.org/1999/xlink" x="0px" y="0px"
	 viewBox="0 0 136.6 26.2" style="enable-background:new 0 0 136.6 26.2;" xml:space="preserve">
<style type="text/css">
	.st0{fill:#56B952;}
	.st1{fill:#48A242;}
	.st2{fill:#4EB841;}
	.st3{fill:#4DAF43;}
	.st4{fill:#5BB949;}
	.st5{fill:#64C053;}
	.st6{fill:#4FB43E;}
	.st7{fill:#4DAF4A;}
	.st8{fill:#52B941;}
	.st9{fill:#48B23D;}
	.st10{fill:#4FB241;}
	.st11{fill:#50B444;}
	.st12{fill:#4FB43C;}
	.st13{fill:#41A837;}
	.st14{fill:#4AAC3E;}
	.st15{fill:#4CAF3D;}
	.st16{fill:#54BB46;}
	.st17{fill:#4BB141;}
	.st18{fill:#54B846;}
	.st19{fill:#53B63B;}
	.st20{fill:#43C136;}
	.st21{fill:#4EB53F;}
	.st22{fill:#49BB39;}
	.st23{fill:#4FB445;}
	.st24{fill:#51B846;}
	.st25{fill:#56BA48;}
	.st26{fill:#4BB938;}
	.st27{fill:#40B22E;}
	.st28{fill:#A7B971;}
	.st29{fill:#53BB46;}
	.st30{fill:#4DA842;}
	.st31{fill:#70DE70;}
	.st32{fill:#66CA61;}
	.st33{fill:#5CC04E;}
	.st34{fill:#52B144;}
	.st35{fill:#B8D095;}
	.st36{fill:#7EE482;}
	.st37{fill:#5EBB5D;}
	.st38{fill:#6AD67F;}
	.st39{fill:#B4DF6A;}
	.st40{fill:#75DD76;}
	.st41{fill:#88D68C;}
	.st42{fill:#78D480;}
	.st43{fill:#6BDC68;}
	.st44{fill:#5BBB58;}
	.st45{fill:#71C67C;}
	.st46{fill:#79D47A;}
	.st47{fill:#88D89C;}
	.st48{fill:#93C471;}
	.st49{fill:#7EDB8D;}
	.st50{fill:#B2CB93;}
	.st51{fill:#6CCF65;}
	.st52{fill:#61D34E;}
	.st53{fill:#57C349;}
	.st54{fill:#68DF68;}
	.st55{fill:#72F451;}
	.st56{fill:#80D27D;}
	.st57{fill:#7AF078;}
	.st58{fill:#49AD46;}
	.st59{fill:#9BAB87;}
	.st60{fill:#65DD52;}
	.st61{fill:#6ECF69;}
	.st62{fill:#72E462;}
	.st63{fill:#66D85A;}
	.st64{fill:#7CE376;}
	.st65{fill:#7AE288;}
	.st66{fill:#7EF263;}
	.st67{fill:#BEC598;}
	.st68{fill:#91A96B;}
	.st69{fill:#B1BC88;}
	.st70{fill:#7AE76D;}
	.st71{fill:#BAC691;}
	.st72{fill:#72DA6B;}
	.st73{fill:#B7BE7D;}
	.st74{fill:#63C955;}
	.st75{fill:#50AF48;}
	.st76{fill:#4CAC3F;}
	.st77{fill:#4CAE4D;}
	.st78{fill:#4EB14D;}
	.st79{fill:#4CA848;}
	.st80{fill:#4AA44D;}
	.st81{fill:#47A244;}
	.st82{fill:#49AB43;}
	.st83{fill:#5CC34B;}
	.st84{fill:#69D854;}
	.st85{fill:#4EA856;}
	.st86{fill:#49A549;}
	.st87{fill:#4EAA4F;}
	.st88{fill:#4AA54E;}
	.st89{fill:#51AA46;}
	.st90{fill:#2E9E26;}
	.st91{fill:#3FA73E;}
	.st92{fill:#36B12E;}
	.st93{fill:#299429;}
	.st94{fill:#4EA64F;}
	.st95{fill:#49A14B;}
	.st96{fill:#46A44B;}
	.st97{fill:#4EAD54;}
	.st98{fill:#BFCB7C;}
	.st99{fill:#4CA443;}
	.st100{fill:#4DA84C;}
	.st101{fill:#7BF75E;}
	.st102{fill:#69D351;}
	.st103{fill:#71E256;}
	.st104{fill:#77EE57;}
	.st105{fill:#6BE05D;}
	.st106{fill:#5DC848;}
	.st107{fill:#50B63F;}
	.st108{fill:#65D159;}
	.st109{fill:#58B54C;}
	.st110{fill:#4FAC51;}
	.st111{fill:#57C047;}
	.st112{fill:#7DF261;}
	.st113{fill:#6AE94F;}
	.st114{fill:#80EF74;}
	.st115{fill:#EFEEB1;}
	.st116{fill:#EBE4B7;}
	.st117{fill:#E8E979;}
	.st118{fill:#E4F09B;}
	.st119{fill:#BAD596;}
	.st120{fill:#61D34C;}
	.st121{fill:#5CC04B;}
	.st122{fill:#59B84C;}
	.st123{fill:#61D450;}
	.st124{fill:#73F55A;}
	.st125{fill:#72EF73;}
	.st126{fill:#B5CB58;}
	.st127{fill:#8EED53;}
	.st128{fill:#A7D74F;}
	.st129{fill:#6CE854;}
	.st130{fill:#D6DF8B;}
	.st131{fill:#6CEF4C;}
	.st132{fill:#69E156;}
	.st133{fill:#58C148;}
	.st134{fill:#6EE753;}
	.st135{fill:#64D64D;}
	.st136{fill:#57BC49;}
	.st137{fill:#55B943;}
	.st138{fill:#53B94E;}
	.st139{fill:#6FED5E;}
	.st140{fill:#70EC5B;}
	.st141{fill:#67D35E;}
	.st142{fill:#6FEF59;}
	.st143{fill:#79FB5C;}
	.st144{fill:#77F56A;}
	.st145{fill:#20901A;}
	.st146{fill:#659A2D;}
	.st147{fill:#D1C48D;}
	.st148{fill:#E3DDA7;}
	.st149{fill:#E9E897;}
	.st150{fill:#C3BA61;}
	.st151{fill:#DFDBAA;}
	.st152{fill:#A5AE54;}
	.st153{fill:#75A064;}
	.st154{fill:#E7EA93;}
	.st155{fill:#F3F49A;}
	.st156{fill:#63CF4F;}
	.st157{fill:#66DD52;}
	.st158{fill:#4DAA50;}
	.st159{fill:#4DA34F;}
	.st160{fill:#55B045;}
	.st161{fill:#4EAB46;}
	.st162{fill:#4DA54F;}
	.st163{fill:#45A549;}
	.st164{fill:#4EA453;}
	.st165{fill:#4AA24B;}
	.st166{fill:#4DA34B;}
	.st167{fill:#4DAB4E;}
	.st168{fill:#50A34E;}
	.st169{fill:#5CB34D;}
	.st170{fill:#20951C;}
	.st171{fill:#20931D;}
	.st172{fill:#168016;}
	.st173{fill:#229A20;}
	.st174{fill:#2BA327;}
	.st175{fill:#1C8919;}
	.st176{fill:#4DA346;}
	.st177{fill:#72F74F;}
	.st178{fill:#6FEE4F;}
	.st179{fill:#5CBE44;}
	.st180{fill:#5FCC4D;}
	.st181{fill:#65DD4E;}
	.st182{fill:#63C64D;}
	.st183{fill:#60C949;}
	.st184{fill:#58C642;}
	.st185{fill:#4EAE3D;}
	.st186{fill:#53B045;}
	.st187{fill:#6DDC52;}
	.st188{fill:#77FA51;}
	.st189{fill:#71F24F;}
	.st190{fill:#63D64E;}
	.st191{fill:#65DE4E;}
	.st192{fill:#DFD590;}
	.st193{fill:#F9FBC2;}
	.st194{fill:#FBFAD1;}
	.st195{fill:#E4DC78;}
	.st196{fill:#F9F9A3;}
	.st197{fill:#5EC94B;}
	.st198{fill:#68D849;}
	.st199{fill:#77CC53;}
	.st200{fill:#6EFB5C;}
	.st201{fill:#DCE68E;}
	.st202{fill:#79F94E;}
	.st203{fill:#73F660;}
	.st204{fill:#ECEAB0;}
	.st205{fill:#C2B352;}
	.st206{fill:#F6F5C5;}
	.st207{fill:#E7E059;}
	.st208{fill:#F7F9D5;}
	.st209{fill:#C4B937;}
	.st210{fill:#D8D040;}
	.st211{fill:#F9FAB0;}
	.st212{fill:#56B04F;}
	.st213{fill:#54A952;}
	.st214{fill:#52A748;}
	.st215{fill:#4DA945;}
	.st216{fill:#56B74F;}
	.st217{fill:#52BD4A;}
	.st218{fill:#58B444;}
	.st219{fill:#54AD44;}
	.st220{fill:#5DCF4B;}
	.st221{fill:#59C64D;}
	.st222{fill:#59BD4D;}
	.st223{fill:#C3B247;}
	.st224{fill:#B9AD3A;}
	.st225{fill:#F7F34D;}
	.st226{fill:#EAE14B;}
</style>
<path class="st0" d="M6.2,19c-0.6-0.9-1.5-0.8-2.4-0.8c-1.6,0-2,1.2-2.7,2.1c-0.1,0.2-0.2,0.3-0.3,0.4c0,0,0,0.1,0,0.1
	c-0.1,0.4-0.1,0.8-0.2,1.1c0,0.1-0.1,0.2-0.1,0.2c0,0.4-0.1,0.7-0.2,1.1v1.1c1.1,0.6,1.4-0.4,1.9-1c0.4-0.7,0.9-1.3,1.4-1.9
	c0.7-1.1,2-0.9,3-1.3c0.2-0.1,0.3-0.3,0.4-0.5C6.8,19.3,6.4,19.2,6.2,19z"/>
<path class="st1" d="M0.2,24.4c1,0,1.1-0.9,1.5-1.5c1.6-0.8,3.1-1.1,4.5,0.4c0.1,0.2,0.2,0.5,0.2,0.8c-0.7,2.5-3,1.5-4.6,1.9
	c-0.7,0.2-1.2,0-1.6-0.6C0.2,25.1,0.2,24.8,0.2,24.4z"/>
<path class="st2" d="M131.7,26.4c-4.8,0-9.7,0-14.5,0c-0.2-0.3-0.1-0.5,0.2-0.7c1.8-0.8,3.7-0.4,5.6-0.5c2.2-0.1,4.5,0.1,6.6-0.7
	c0.2-0.2,0.5-0.3,0.8-0.4C131.8,24.3,132.4,25,131.7,26.4z"/>
<path class="st3" d="M53.2,26.4c-0.2,0-0.3,0-0.5,0c-0.2-0.2-0.3-0.5-0.2-0.8c0.1-0.3,0.3-0.5,0.6-0.6c1.4-0.5,2.9-0.2,4.3-0.3
	c2.8,0.2,5.7-0.5,8.6,0.4c0.3,0.2,0.4,0.5,0.3,0.8c-0.7,0.4-1.5,0.2-2.2,0.2C60.4,26.3,56.8,25.9,53.2,26.4z"/>
<path class="st4" d="M131.7,26.4c0-1.1-0.2-1.9-1.5-2c-0.6-0.1-1.3-0.2-0.9-1.2c0.6-0.4,1.2-0.4,1.9-0.2c1.6,0.7,3.5,1.1,3.6,3.4
	C133.7,26.4,132.7,26.4,131.7,26.4z"/>
<path class="st5" d="M134.7,26.4c-0.8-1.5-2.1-2.2-3.5-3c-0.2-0.2-0.2-0.5,0-0.7c0.6-0.4,1.2-0.4,1.8-0.2c1.5,0.7,2.2,2.2,3.2,3.3
	c0.1,0.2,0.3,0.4,0.4,0.5C136,26.4,135.3,26.4,134.7,26.4z"/>
<path class="st6" d="M0.2,25.4c0.5,0.2,1,0.3,1.5,0.5c2.4-0.2,4.7-0.8,7.1-0.7c0.8,0,1.5,0,2.2,0.4c0.3,0.2,0.3,0.5,0.2,0.8
	c-3.3,0-6.7,0-10,0C0.3,26.5,0,26.3,0.2,25.4z"/>
<path class="st7" d="M28.2,26.4c-0.2,0-0.3,0-0.5,0c-1-0.5-2.2-0.1-3.2-0.3c-1.9,0-3.7,0-5.6,0c-0.6,0-1.2,0.1-1.7-0.2
	c0.1-1.3,1.2-1.1,2-1.2c1.2-0.1,2.3,0,3.5,0c0.9,0,1.7,0,2.6,0c1,0.1,2.1-0.1,3,0.5C28.4,25.6,28.5,26,28.2,26.4z"/>
<path class="st8" d="M53.2,26.4c2.4-1.1,4.9-0.3,7.3-0.5c1.2-0.1,2.5,0,3.7,0c0.2,0.1,0.2,0.2,0.2,0.3c-0.1,0.1-0.1,0.2-0.2,0.2
	C60.5,26.4,56.8,26.4,53.2,26.4z"/>
<path class="st9" d="M117.2,25.9c0,0.2,0,0.3,0,0.5c-1.5,0-3,0-4.5,0c-0.2-0.3-0.2-0.5,0-0.8C114.3,24.5,115.8,24.2,117.2,25.9z"/>
<path class="st10" d="M42.7,26.4c-2.7,0-5.3,0-8,0c-0.2-0.3-0.1-0.6,0.2-0.8c1.8-0.8,3.7-0.3,5.6-0.4c0.7,0,1.4,0,2.1,0.4
	C42.8,25.9,42.8,26.2,42.7,26.4z"/>
<path class="st11" d="M112.7,25.9c0,0.2,0,0.3,0,0.5c-2.7,0-5.3,0-8,0c-0.1-0.6,0.3-0.8,0.8-1C107.9,25.4,110.3,24.7,112.7,25.9z"/>
<path class="st12" d="M64.2,26.4c0-0.2,0-0.3,0-0.5c0.7,0,1.3,0,2,0c1.5-1.1,3.1-0.7,4.8-0.5c0.4,0.2,0.8,0.4,0.7,1
	C69.2,26.4,66.7,26.4,64.2,26.4z"/>
<path class="st13" d="M71.7,26.4c-0.2-0.2-0.3-0.3-0.5-0.5c-0.1-0.2-0.1-0.4,0.1-0.6c0.7-0.5,1.6-0.5,2.4-1c0.5-0.1,0.9,0.1,1.3,0.3
	c0.4,0.3,0.8,0.5,1,1c0,0.2-0.1,0.4-0.3,0.6c-0.8,0.2-1.6-0.2-2.4,0.3C72.7,26.4,72.2,26.4,71.7,26.4z"/>
<path class="st14" d="M52.7,25.9c0,0.2,0,0.3,0,0.5c-1.7,0-3.3,0-5,0c-0.2-0.4-1.6-0.1-0.9-1.2c0.3-0.2,0.7-0.3,1.1-0.4
	C49.5,25.2,51.2,25,52.7,25.9z"/>
<path class="st15" d="M105.2,25.9c-0.2,0.2-0.3,0.3-0.5,0.5c-1.8,0-3.7,0-5.5,0C99,26.2,99,26,99.2,25.7c0.3-0.2,0.7-0.3,1.1-0.4
	c1.6,0.1,3.1-0.4,4.7-0.1C105.3,25.5,105.3,25.7,105.2,25.9z"/>
<path class="st16" d="M18.7,25.9c2,0,4,0,6,0c0.2,0.1,0.2,0.2,0.2,0.3c-0.1,0.1-0.1,0.2-0.2,0.2c-2,0-4,0-6,0
	c-0.2-0.1-0.2-0.2-0.2-0.3C18.6,26,18.6,25.9,18.7,25.9z"/>
<path class="st17" d="M95.7,26.4c-1.5,0-3,0-4.5,0c-0.1-0.1-0.1-0.2-0.2-0.3c0.1-0.2,0.3-0.4,0.5-0.5c1.5-0.3,3-0.4,4.4-0.5
	c0.4,0.1,0.7,0.3,0.8,0.7C96.7,26.4,95.9,26.1,95.7,26.4z"/>
<path class="st18" d="M46.7,25.4c0.3,0.3,0.7,0.7,1,1c-1.7,0-3.3,0-5,0c0-0.2,0-0.3,0-0.5c0.2-0.2,0.3-0.3,0.6-0.4
	c0.8-0.2,1.6-0.2,2.5-0.4C46.1,25.1,46.4,25.2,46.7,25.4z"/>
<path class="st19" d="M34.7,25.9c0,0.2,0,0.3,0,0.5c-1.8,0-3.7,0-5.5,0c0.1-1.3,1.3-1,2.1-1.2C32.4,25.3,33.7,25,34.7,25.9z"/>
<path class="st20" d="M85.2,26.4c-1.7,0-3.3,0-5,0c-0.2-0.3-0.1-0.5,0.2-0.7c1.6-0.6,3.1-0.6,4.7,0C85.3,25.9,85.3,26.1,85.2,26.4z"
	/>
<path class="st21" d="M18.7,25.9c0,0.2,0,0.3,0,0.5c-1.5,0-3,0-4.5,0C14,26.2,14,26,14.2,25.8c0.5-0.3,1-0.4,1.5-0.4
	c0.5,0,1,0.2,1.4,0.6C17.7,25.9,18.2,25.9,18.7,25.9z"/>
<path class="st22" d="M85.2,26.4c0-0.2,0-0.3,0-0.5c0.7-0.7,1.5-0.8,2.4-0.8c0.3,0,0.5,0.1,0.7,0.3c0.2,0.4,0.2,0.7-0.1,1
	C87.2,26.4,86.2,26.4,85.2,26.4z"/>
<path class="st23" d="M31.2,25.9c-0.7,0.1-1.5-0.2-2,0.5c-0.3,0-0.7,0-1,0c0-0.3,0-0.7,0-1c0.3-0.4,0.7-0.5,1.1-0.6
	C30,25,31,24.7,31.2,25.9z"/>
<path class="st24" d="M88.2,26.4c0-0.3,0-0.7,0-1c0.2-0.2,0.4-0.2,0.7-0.2c0.8,0.1,1.7,0,2.3,0.7c0,0.2,0,0.3,0,0.5
	C90.2,26.4,89.2,26.4,88.2,26.4z"/>
<path class="st25" d="M95.7,26.4c0.2-0.4,0.6-0.5,1-0.5c0.8-0.7,1.7-0.7,2.5,0c0,0.2,0,0.3,0,0.5C98,26.4,96.8,26.4,95.7,26.4z"/>
<path class="st26" d="M73.2,26.4c0.7-0.8,1.7-0.4,2.5-0.5c0.3-0.3,0.6-0.3,1-0.1c0.1,0.1,0.2,0.3,0.1,0.4c0,0.1-0.1,0.2-0.1,0.2
	C75.5,26.4,74.3,26.4,73.2,26.4z"/>
<path class="st27" d="M76.7,26.4c0-0.2,0-0.3,0-0.5c1.2-0.9,2.3-0.9,3.5,0c0,0.2,0,0.3,0,0.5C79,26.4,77.8,26.4,76.7,26.4z"/>
<path class="st28" d="M73.7,0.4c0,0.1,0,0.3,0,0.4c0.2,0.3,0.2,0.5-0.1,0.7c-0.9,0.6-1.9,0.6-2.8,0.1c-0.3-0.2-0.3-0.4-0.1-0.7l0,0
	c0.7-0.6,1.7,0.1,2.5-0.5C73.3,0.4,73.5,0.4,73.7,0.4z"/>
<path class="st29" d="M14.2,25.9c0,0.2,0,0.3,0,0.5c-1,0-2,0-3,0c0-0.2,0-0.3,0-0.5C12.2,25.1,13.2,25.1,14.2,25.9z"/>
<path class="st23" d="M24.7,26.4c0-0.2,0-0.3,0-0.5c1,0.2,2.1-0.4,3,0.5C26.7,26.4,25.7,26.4,24.7,26.4z"/>
<path class="st30" d="M21.1,18c0.6,0.5,1.1,1.1,1.1,1.9c0.2,0.4,0.4,0.7,0.5,1.1c0.2,0.8,0.1,1.6-0.3,2.4c-0.4,0.4-0.9,0.5-1.5,0.5
	c-0.2,0-0.5-0.1-0.7-0.2c-1.4-3.1-1.4-3.1-3.9-0.2c-0.2,0.1-0.5,0.1-0.7,0c-0.4-0.2-0.6-0.5-0.8-0.9c0-2.3,1.1-3.9,3.2-4.3
	C19,18.2,20,17.9,21.1,18z"/>
<path class="st31" d="M31.6,11.4c3-1.7,3.5-1.5,4.3,2c0.1,0.7-0.1,1.7,0.8,1.9c0.7,0.1,1.1-0.7,1.5-1.2c1.1-0.7,2.1-1.4,3.4-0.7
	c0.2,0.2,0.2,0.5,0.1,0.7c-1.7,1.6-3.3,3.5-6,3.3c-0.2-0.1-0.5-0.2-0.7-0.3c-0.4-0.3-0.6-0.8-0.8-1.2c-0.1-0.4-0.3-0.8-0.2-1.2
	c0.3-2-0.6-2.8-2.5-2.7C31.5,11.8,31.5,11.6,31.6,11.4z"/>
<path class="st32" d="M11.7,16.3c1.6,1.1,2.6,0.5,3.3-1c0.3-0.7,0.7-1.5,1.1-2.2c0.8-1.5,1.7-2,3-0.6c-0.2,0.3-0.5,0.5-0.8,0.6
	c-1.7,0.8-0.9,2.8-1.9,3.9c-0.8,1.6-2.5,1.3-3.9,1.6c-0.7-0.1-1-0.7-1.2-1.3C11.3,17,11.4,16.6,11.7,16.3z"/>
<path class="st33" d="M59.2,15.9c0.2,0.2,0.3,0.3,0.5,0.5c0.1,0.3,0,0.5-0.1,0.7c-1.8,0.3-3.6,0.2-5.4,0.4c-0.7-0.8-0.5-1.6,0.1-2.4
	c0.3-0.2,0.7-0.3,0.9-0.7l0,0C57.1,13.3,58.2,14.6,59.2,15.9z"/>
<path class="st34" d="M21.1,18c-0.6,0.6-1.2,1-2.1,1c-2.6,0.1-3.7,1.3-3.9,4c-0.2,0.2-0.4,0.2-0.6,0.2c-0.2-0.1-0.4-0.2-0.5-0.4
	c-0.1-1.9,0.7-3.4,1.9-4.8c0.2-0.2,0.4-0.3,0.6-0.4c1.3-0.3,2.6-0.3,3.7-0.9c0.4-0.1,0.7,0,1,0.3C21.2,17.3,21.1,17.6,21.1,18z"/>
<path class="st31" d="M43.1,14c2,2.1,2,2.1,3.4-1.2c0.2-0.2,0.5-0.2,0.7,0c0.3,0.3,0.3,0.7,0.3,1.1c-0.3,1.6-0.8,3.1-2.7,3.5
	c-0.3,0-0.5,0-0.8,0c-1.6-0.6-2.2-1.8-2.5-3.3l0.1-0.2C42.3,13.5,42.7,13.5,43.1,14z"/>
<path class="st35" d="M69.1,8.4c-1.2-2-1.1-4,0.2-5.9C69.7,2.4,69.9,2.6,70,3c0,0.2,0,0.4,0,0.7c-0.2,0.9-0.4,1.9,0.2,2.8
	c0.3,0.3,0.6,0.6,0.9,1c0.6,0.9,0.7,1.8,0,2.6c-0.4,0.5-0.9,0.8-1.5,0.8c-0.2,0-0.5,0-0.7-0.1c-0.2-0.1-0.3-0.3-0.3-0.5
	C68.5,9.5,69.2,9.1,69.1,8.4z"/>
<path class="st36" d="M31.6,11.4c0,0.2,0,0.4,0,0.6c-1.1,2.4-2.4,4.6-5,5.7c-0.2,0-0.5-0.1-0.6-0.3C27.3,14.8,28.9,12.6,31.6,11.4z"
	/>
<path class="st37" d="M22.2,20.9c0-0.3,0-0.7,0-1c0.6,0.9,1.3,0.5,2,0c1-0.2,0.9,0.8,1.3,1.2c0.2,0.3,0.4,0.6,0.5,0.9
	c0,0.2,0,0.5,0,0.7c-0.1,0.2-0.2,0.5-0.4,0.6C23.3,24.1,23.3,24.1,22.2,20.9z"/>
<path class="st38" d="M59.7,16.9c0-0.2,0-0.4,0-0.5c1.4,0.1,1.6-1,2.1-2c0.7-1.4,0.4-3.1,1.9-4.1c0.2,0.2,0.3,0.4,0.4,0.6
	c0,1.9-1.2,3.4-1.5,5.3c-0.2,0.5-0.5,0.8-1,1c-0.2,0.1-0.4,0.2-0.7,0.2c-0.4,0-0.7,0-1-0.2C59.8,17.1,59.7,17,59.7,16.9z"/>
<path class="st39" d="M67.2,10c0.1-0.1,0.3-0.1,0.5-0.1c0.4,0,0.7,0.2,1,0.5l0.1,0.1c0.4,1.4,0.4,2.9,0.2,4.3
	c-0.2,0.2-0.4,0.3-0.7,0.3c-0.4-0.1-0.7-0.3-1-0.6c-0.8-1-0.8-2.2-0.7-3.4C66.7,10.7,66.9,10.3,67.2,10z"/>
<path class="st40" d="M11.7,16.3c0,0.4,0,0.7,0,1.1c-0.9,1-2.2,1-3.4,1.2c-0.3,0-0.5-0.1-0.7-0.3c0.2-0.5,0.5-1,0.7-1.4
	c1-0.4,1.8-1.1,2.8-1.5C11.3,15.8,11.5,16.1,11.7,16.3z"/>
<path class="st41" d="M48.1,9.9c0.3-0.5,0.6-1.1,1-1.6c1.7-1.9,2.5-1.7,3.5,0.7c-0.2,0.2-0.4,0.2-0.6,0.2c-1.2-0.3-2.1,0.2-3,0.8
	c-0.2,0.1-0.4,0.1-0.7,0.1C48.2,10,48.2,9.9,48.1,9.9z"/>
<path class="st42" d="M52.1,8.9c0.2,0,0.3,0,0.5,0c0.2,1.4,0.4,2.7,0.6,4.1c0.1,1.1,0.8,1.5,1.9,1.3c-0.1,0.2-0.3,0.4-0.4,0.7
	c-0.6,0.3-1.1,0.5-1.7,0.2C51.3,13.3,51,11.2,52.1,8.9z"/>
<path class="st43" d="M25.2,21.5c-0.3-0.5-0.7-1-1-1.5c0.6-0.8,1.3-1.7,1.9-2.5c0.2,0,0.4,0,0.6,0.1c0.3,0.3,0.3,0.6,0.3,1
	c-0.3,0.9-0.6,1.8-0.9,2.6C25.8,21.4,25.6,21.7,25.2,21.5z"/>
<path class="st44" d="M21.2,16.9c-0.3,0-0.7,0-1,0c-0.8-1.2-1-2.8-2.1-3.9c-0.1-0.2-0.1-0.4,0.1-0.6c0.3,0,0.6,0,1,0
	C20.2,13.8,21.4,15.1,21.2,16.9z"/>
<path class="st45" d="M59.2,15.9c-1.2-0.9-2.5-1.8-4.1-1.5C56.9,12.9,57.6,13.1,59.2,15.9z"/>
<path class="st46" d="M67.2,10c0,0.3,0,0.6,0,0.9c-0.3,0.3-0.6,0.3-0.9,0.3c-0.8-0.3-1.8,0.3-2.6-0.3c0-0.2,0-0.4,0-0.6
	C64.8,9.9,65.9,9.1,67.2,10z"/>
<path class="st47" d="M11.1,15.5c-0.8,0.8-1.7,1.3-2.8,1.5C9,16.1,9.4,14.6,11.1,15.5z"/>
<path class="st48" d="M68.6,10.4c-0.4,0-0.8-0.1-1-0.5c-0.1-1,1-1.1,1.5-1.6C70.3,9.4,68.8,9.7,68.6,10.4z"/>
<path class="st49" d="M47.2,12.9c-0.2,0-0.4,0-0.6-0.1c0.5-1,1-2,1.6-3c0,0,0.1,0.1,0.1,0.1C48.9,11.4,48.4,12.3,47.2,12.9z"/>
<path class="st50" d="M69.7,3c-0.1-0.2-0.3-0.3-0.4-0.5C69.5,1.7,70,1.3,70.7,1c0,0.1,0,0.3,0,0.4C70.9,1.6,70.9,1.8,71,2
	c0,0.5-0.3,0.8-0.7,1.1C70.1,3.2,69.9,3.1,69.7,3z"/>
<path class="st51" d="M7.6,18.4c0.2,0,0.4,0,0.6,0c0.1,0.2,0.1,0.4,0.1,0.7c-0.4,0.5-0.9,0.8-1.6,0.4c-0.2-0.2-0.3-0.4-0.5-0.5
	C6.8,19.1,7.2,18.8,7.6,18.4z"/>
<path class="st52" d="M123.7,19c0.2,0.2,0.3,0.3,0.5,0.5c0.6,0.5,1.3,0.8,2.1,1c0.8,0.5,2.4-0.1,2.3,1.7c-2.4,1-4.5,0.2-6.6-1
	c-0.7-0.3-1.3-0.9-2-0.2c-3.3,3.1-6.8,1.2-10.3,0.5c-1-0.7-1.4-1.8-2-2.8c-0.3-0.6-0.7-1.1-1.2-1.6c-2.1-1.9-3.5-1.7-4.9,0.7
	c-0.6,0.9-1,1.9-1.7,2.8c-0.7,0.9-1.6,1.4-2.8,1.3c-2.3-0.3-4.6-0.2-6.9,0.3c-1.7,0.4-2.1-0.2-1.6-2.3c1.2-0.8,2.8-0.2,4-1.2
	c0.7-0.3,1.5-0.3,2.2-0.1c3.6,1,3.6,1,4.5-2.5c0.4-0.7,0.9-1.1,1.6-1.5c3.6-2,3.9-1.9,6.9,1.1c0.6,0.6,1.2,1.1,1.6,1.8
	c0.6,1.6,1.8,2.5,3.6,2.5c0.8,0,1.5,0.2,2.1,0.6c1.3,0.6,2.3,0.5,2.8-1c0.4-1.3,1.7-2,2.3-3.2c0.7-0.7,1-0.2,1.2,0.4
	C122,17.7,122.6,18.5,123.7,19z"/>
<path class="st53" d="M88.7,19.9c0,1.2-0.1,2.3,1.7,1.5c1.9-0.8,4-0.8,5.9-0.4c2.2,0.5,3-0.6,3.9-2c0.2-0.4,0.4-0.7,0.6-1.1
	c0.6-1.7,2-3.3,3.5-3c1.7,0.3,3.5,1.4,4,3.5c-0.5,0.3-0.9,0-1.3-0.3c-2.4-1.6-2.9-1.5-4.8,0.5c-1,1-1.5,2.4-2.6,3.3
	c-0.4,0.3-0.9,0.5-1.4,0.5c-3.1,0-6.1-0.1-9.2,0.4c-2-0.9-1.9-2.9-2.2-4.7c0.5,0.2,0.9,0.4,1.4,0.6C89,18.9,89,19.3,88.7,19.9z"/>
<path class="st54" d="M101.2,14.9c-0.5,0.3-1,0.7-1.5,1c-0.2,0.2-0.4,0.2-0.7,0.1c-0.8-0.5-0.9-1.4-1.2-2.2c-0.3-1.1-0.6-2.3-1-3.4
	c-0.1-0.7-1-1.6,0.3-2c1.3,1,1.3,2.6,1.8,3.9c0.4,0.9,0.7,1.1,1.6,0.5c3.9-2.8,4-2.8,7.2,0.5c-0.1,0.1-0.2,0.2-0.2,0.2
	c-0.9,0.3-1.6-0.7-2.5-0.3C103.1,12.3,102.3,14.1,101.2,14.9z"/>
<path class="st55" d="M108.2,13.5c0.1-0.1,0.2-0.1,0.4-0.1c1.3-0.6,2.6-1.1,3.9,0.2c1.4,3,1.1,3.8-1.4,4.4c-0.8,0-1.4-0.5-1.9-0.9
	C108,16.1,107,15,108.2,13.5z"/>
<path class="st56" d="M136.2,25.9c-1.6-0.4-2.1-1.9-3.1-3c-0.4-0.4-1-0.5-1.4-0.9c-0.9-1.5-2.4-2.3-4-3.1c1.8-1.1,3.5-0.7,4.7,0.6
	C134.2,21.4,135.8,23.3,136.2,25.9z"/>
<path class="st57" d="M93.6,8.3c0.9-1.8,1.9-1.7,3.1-0.4c-0.7,0.8-2,0.9-2.2,2.1c-0.5,0.9-0.9,1.8-1.5,2.7c-0.6,1-1.1,2-1.5,3
	c-0.3,0.8-0.7,1.7-1.7,1.8c-0.4-0.1-0.6-0.3-0.7-0.7c0-0.9,0.2-1.8,0.9-2.5C91,12.3,92.2,10.2,93.6,8.3z"/>
<path class="st58" d="M86.7,18.3c1.4,1,0.5,3.1,1.9,4.1c0.1,0.1,0.2,0.2,0.2,0.4c0,0.1,0,0.2,0,0.2c-0.2,0.3-0.5,0.5-0.8,0.5
	c-0.2,0-0.4-0.1-0.6-0.3c-2.4-1.2-3.7-3-3.2-5.8c0-0.4,0.1-0.7,0.3-1c0.2-0.2,0.4-0.2,0.6-0.1C85.6,17.1,86.2,17.7,86.7,18.3z"/>
<path class="st59" d="M84.7,7.1c-0.2,0.5-0.3,1.2-0.7,1.6c-1.3,1-0.9,2.1-0.3,3.2c-0.1,0.4-0.4,0.6-0.8,0.7
	c-1.7-0.7-2.7-1.8-1.8-3.7c0.3-0.4,0.7-0.7,1.1-1c1.5-1.1,1.2-2.5,0.6-3.9c-0.3-0.7-1.2-1.2-0.8-2.2c0.3-0.1,0.7-0.2,1,0.1
	c0.5,0.8,1.1,1.6,1.6,2.4C85,5.3,85,6.2,84.7,7.1z"/>
<path class="st60" d="M108.2,13.5c-0.2,1.3,0.1,2.5,1,3.5c0.1,0.1,0.2,0.2,0.1,0.3c0,0.1-0.1,0.2-0.1,0.2c-0.4-0.4-0.9-0.7-1.3-1.1
	c-3.1-3-3.1-3-6.7-1.4c0.7-1.9,1.9-2.8,4-2c0.8,0,1.5,1.1,2.4,0.6c0,0,0.1-0.1,0.1-0.1C107.9,13.3,108,13.4,108.2,13.5z"/>
<path class="st61" d="M123.7,19c-2.2,0.6-1.5-2.2-3-2.5c-0.4,0.6-0.9,1.1-1.7,1.2c-0.1,0-0.2-0.1-0.3-0.1c-0.2-0.2-0.2-0.4,0-0.6
	c1.8-2.7,1.9-2.7,3.6,0.1C122.6,17.7,123.2,18.3,123.7,19z"/>
<path class="st62" d="M127.7,19c2.4-0.3,3.4,1.3,4.4,3c-1,0.7-1.6-0.2-2.3-0.5c-0.9-0.6-2.2-0.3-2.9-1.4c-0.1-0.2,0-0.5,0.1-0.7
	C127.3,19.2,127.5,19.1,127.7,19z"/>
<path class="st63" d="M89.1,16.9c0.2,0.2,0.4,0.4,0.6,0.6c0.5,0.5,1,0.9,1.8,0.9c0.5,0.1,0.9,0.2,1.2,0.6c-1,1.7-2.6,0.7-4,1
	c0-0.4-0.1-0.8-0.6-1.1C88.5,18.2,88.8,17.6,89.1,16.9z"/>
<path class="st64" d="M112.2,13.9c-1.1-1-2.4-0.3-3.6-0.6c2.1-2.2,3.6-1.7,5.1,1.6c-0.1,0.2-0.3,0.2-0.5,0.2
	C112.7,14.8,112.5,14.3,112.2,13.9z"/>
<path class="st65" d="M93.6,8.3c-0.7,2.3-2.1,4.2-3.6,6.1C90.5,12,91.7,9.9,93.6,8.3z"/>
<path class="st66" d="M94.2,9.9c-0.1-1.9,1.3-1.9,2.6-2c0.1,0.2,0.2,0.4,0.3,0.5c-0.7,0.7,0.3,1.3,0.1,2c0.3,0.3,0.2,0.6,0.1,1
	C95.9,11.7,95.6,9.7,94.2,9.9z"/>
<path class="st67" d="M76.2,2.9c0.7,0.1,1.4-0.1,2-0.5c0.4,0.1,0.6,0.3,0.7,0.7c0,0.2-0.1,0.4-0.2,0.6c-0.9,0.7-1.6,1.4-2,2.4
	c-0.3,0.1-0.7,0.1-1-0.1c-0.5-0.5-0.7-1.2-0.7-1.9C74.7,3.1,76,3.6,76.2,2.9z"/>
<path class="st68" d="M83.2,12.4c0.2-0.2,0.4-0.4,0.6-0.6c1.5,1.2,1.2,3,1.3,4.6c-0.1,0-0.3,0-0.5,0c-0.2-0.2-0.3-0.4-0.3-0.6
	c0-0.5,0.2-1.1,0.1-1.7c0-0.3-0.5,0.1-0.2,0c0.3-0.1,0.2,0,0.2,0.1c0,0.6,0.2,1.2-0.8,1.1c-0.6-0.7-0.6-1.6-0.7-2.4
	C82.9,12.8,83,12.6,83.2,12.4z"/>
<path class="st69" d="M76.2,2.9c0.8,1.5-0.9,0.5-1,1c-0.4,0.3-0.7,0-1-0.2c-0.1-0.1-0.2-0.3-0.3-0.5c-0.1-0.2-0.3-0.5-0.4-0.8
	c-0.1-0.2-0.1-0.4-0.1-0.6c0.1-0.2,0.2-0.3,0.3-0.5c0-0.2,0-0.4,0-0.6c0.9,0.4,1.3,1.5,2.4,1.7C76.1,2.7,76.1,2.8,76.2,2.9z"/>
<path class="st70" d="M113.2,14.9c0.2,0,0.4,0,0.5,0c1.1,2.1,2.9,2.4,4.9,2c0,0.2,0,0.4,0,0.5c-0.7,0.8-1.6,0.6-2.5,0.7
	C114.4,17.8,112.5,17.6,113.2,14.9z"/>
<path class="st71" d="M78.7,2.9c-0.2-0.2-0.3-0.4-0.5-0.5c1.6-1.2,3.2-1.5,5-0.5c-0.3,0-0.7,0-1,0c-0.5,0.6-1.2,0.6-1.8,0.9
	C79.8,3,79.2,3.3,78.7,2.9z"/>
<path class="st72" d="M127.1,19.3c0,0.2,0,0.4,0,0.6c-0.3,0.6-1.1,0.5-1.5,1c-1,0-1.1-0.8-1.5-1.5C125.2,19.4,126.1,19.4,127.1,19.3
	z"/>
<path class="st73" d="M84.7,7.1c0-0.9,0-1.8,0-2.7C85.3,5.3,85.2,6.2,84.7,7.1z"/>
<path class="st74" d="M6.6,19.5c0.5-0.2,1-0.4,1.5-0.6c0.3,0.2,0.5,0.5,0.6,0.7c1,1,2,0.8,3.1,0.1c0.1-0.2,0.2-0.4,0.2-0.6
	c0.1-0.3,0.3-0.6,0.6-0.8c0.1-0.5,0.3-1.1,0.9-0.7c1.2,0.6,1.8-0.3,2.6-0.7c0.1,0.1,0.1,0.1,0.2,0.2c0.1,0.3,0.1,0.6-0.2,0.8l0,0
	c-0.7,0.9-1.5,1.7-1.9,2.8c-0.3,0.9-1.1,1.2-1.9,1.3c-0.8,0.1-1.6,0.1-2.4,0.4c-1.9,0.8-3,0.2-3.4-1.8c0-0.3,0-0.5,0.2-0.7
	C6.7,19.8,6.7,19.7,6.6,19.5z"/>
<path class="st75" d="M6.7,20c0,0.2,0,0.3,0,0.5c0.4,1.1,0.2,2.6,1.8,3.1c1.8,0.7,3.6,1.5,5.6,1.3c0.4,0,0.8,0.1,1.1,0.2
	c0.4,0.2,0.6,0.4,0.5,0.9c-0.5,0-1,0-1.5,0c-1,0-2,0-3,0c-0.7,0-1.3,0-2,0c-1.2-0.4-2.6-0.4-3-2l0,0c-0.3-1.7-1.5-2.3-3-2.5
	C3.8,19.6,5.3,20,6.7,20z"/>
<path class="st76" d="M3.2,21.4c2.5-0.8,2.8-0.5,3,2.5c-1.2-1.6-3-0.8-4.5-1C2,22.3,2.5,21.8,3.2,21.4z"/>
<path class="st76" d="M6.2,23.9c1,0.7,2,1.3,3,2c-2.5,0-5,0-7.5,0C3,24.8,5.4,26.2,6.2,23.9z"/>
<path class="st77" d="M105.2,25.9c0-0.2,0-0.3,0-0.5c0.9-0.9,2.1-0.6,3.2-0.7c0.5,0,1.1,0,1.6,0c1.5,0.3,2.4-1,3.7-1.4
	c4.3-0.3,8.6-0.1,12.9-0.1c1.5,0,2.5,0.9,3.5,1.7c-2.6,1.5-5.5,0.9-8.3,1c-1.6,0.1-3.2,0-4.7,0c-1.5-0.7-3-0.7-4.5,0
	C110.2,25.9,107.7,25.9,105.2,25.9z"/>
<path class="st78" d="M130.2,24.9c-4.5-1.9-9.2-0.7-13.8-1c-1.1-0.1-2.2,0-3.2,0c-0.7,0.3-1.4,0.7-1.5-0.6c0.9-0.7,1.9-0.5,2.9-0.6
	c3,0.5,5.9-1,9-0.5c1.8,0.6,4-0.5,5.6,1.2c0.3,0.3,0.7,0.7,1,1C130.2,24.6,130.2,24.8,130.2,24.9z"/>
<path class="st79" d="M66.2,25.4c-3,0-6,0-9,0c0.7-1.9,2.8-1.1,4-2c0.5-0.2,1.1-0.2,1.6-0.2c2.3,0.3,4.6-0.9,7-0.2
	c0.7,0.5,0.5,0.9-0.1,1.3c-0.9,0.6-1.8,1-2.9,1.2C66.6,25.7,66.4,25.6,66.2,25.4z"/>
<path class="st80" d="M61.2,23.9c-1.1,1.2-2.8,0.5-4,1.5c-1.5,0-3,0-4.5,0c-0.3,0.1-0.5,0-0.6-0.3c0.1-0.3,0.2-0.5,0.5-0.6
	c1.4-0.5,2.8-0.7,4.3-0.8C58.3,23.9,59.8,22.8,61.2,23.9z"/>
<path class="st81" d="M52.2,24.9c0.2,0.2,0.3,0.3,0.5,0.5c0,0.2,0,0.3,0,0.5c-1.7,0.2-3.3-0.2-5-0.5C48.6,23.5,49.7,23.3,52.2,24.9z
	"/>
<path class="st82" d="M66.2,25.4c0.2,0,0.3,0,0.5,0c1.4-0.5,2.7-1,4.2-0.3c0.1,0.1,0.2,0.2,0.3,0.3c0,0.2,0,0.3,0,0.5
	c-1.7,0-3.3,0-5,0C66.2,25.8,66.2,25.6,66.2,25.4z"/>
<path class="st83" d="M129.2,23.4c-1.8-0.2-3.7-0.3-5.5-0.5c-0.7-0.4-1.7-0.4-1.9-1.5c0-0.4,0.1-0.7,0.4-1c1.9,1.6,4.2,1.6,6.5,1.5
	c0.7-0.4,1.4-0.1,2.1,0.1c0.3,0.2,0.6,0.4,0.4,0.9c0,0.2,0,0.3,0,0.5C130.5,23.4,129.8,23.4,129.2,23.4z"/>
<path class="st84" d="M131.2,22.9c-0.2-0.2-0.3-0.3-0.5-0.5c-0.5-0.4-1-0.8-0.5-1.5c0.7,0.3,1.1,1.1,2,1c0.5,0.2,0.8,0.5,1,1
	C132.5,22.9,131.8,22.9,131.2,22.9z"/>
<path class="st85" d="M22.2,20.9c0.3,0.3,0.8,0.5,0.8,0.8c0.2,2,1.3,1.9,2.7,1.2c0.2-0.2,0.4-0.2,0.7-0.2c1.6,1.6,1.4,1.9-1.2,2.7
	c-0.8,0-1.7,0-2.5,0c-0.5-0.6-1.1-1.1-0.5-2C22.2,22.6,22.2,21.8,22.2,20.9z"/>
<path class="st86" d="M15.7,25.9c-0.2-0.2-0.3-0.3-0.5-0.5c-0.3-0.8-0.1-1.4,0.5-2c0.2,0,0.3,0,0.5,0c1.3-0.9,2.7-1,4,0
	c0.2,0,0.3,0,0.5,0c0.1,0.4-0.1,0.8-0.4,0.7c-1.5-0.5-0.6,1-1.1,1.3c-0.7,0.1-1.5-0.2-2,0.5C16.7,25.9,16.2,25.9,15.7,25.9z"/>
<path class="st87" d="M25.2,25.4c0.5-0.8,3.1-0.7,1-2.5c0.9-0.8,1.8-0.7,2.9-0.3c1,0.9,1.5,1.8,0.1,2.8c-0.3,0-0.7,0-1,0
	C27.2,25.4,26.2,25.4,25.2,25.4z"/>
<path class="st88" d="M19.2,25.4c-0.8-1.6,1-1.3,1.5-2c0.5,0,1,0,1.5,0c0.2,0.7,0.3,1.3,0.5,2C21.5,25.4,20.3,25.4,19.2,25.4z"/>
<path class="st80" d="M52.2,24.9c-1.5,0.2-3.2-1.6-4.5,0.5c-0.3,0-0.7,0-1,0c-0.3,0-0.7,0-1,0c-0.8,0.6-1.8-0.1-2.5,0.5
	c-0.2,0-0.3,0-0.5,0c-0.7,0-1.3,0-2,0c-0.3-0.2-0.7-0.4-0.8-0.7c-0.2-0.6-0.2-1.3,0.1-1.9c0.8-0.9,1.8-1.3,3.1-1.2
	c0.5,0.2,0.8,0.5,1.3,0.8c1.2,0.5,2.5,0.3,3.7,0.3C49.5,23.6,51.6,22.3,52.2,24.9L52.2,24.9z"/>
<path class="st89" d="M40.2,25.4c0.2,0.2,0.3,0.3,0.5,0.5c-2,0-4,0-6,0c-1.2,0-2.3,0-3.5,0c-0.5-0.7-1.3-0.4-2-0.5
	c0.7-0.8,0.1-1.7,0-2.5c0.2-0.2,0.4-0.2,0.7-0.2c1.3,0.2,2.7-0.1,4,0.4c0.7,0.4,0.8,1.4,1.6,1.6C37,25.1,38.7,24.3,40.2,25.4z"/>
<path class="st90" d="M75.7,25.5c-0.4,0-0.8-0.1-1-0.5c0.3-0.5,0.9-0.5,1.2-1c0.2-0.7-0.1-1.2-0.4-1.8c-1.2-2-3.5-0.8-5-1.9
	c-0.1-0.4-0.1-0.7,0.1-1c1.6-0.8,3.3-0.7,4.8,0c1.1,0.5,1.7,0,2.3-0.7c1.4-0.8,2.8-1,4.2-0.3c0.4,1.8-1.4,1.3-2.1,2
	c-1.1,1.1-0.5,2.5-0.5,3.8c0.1,0.5,0.5,0.8,0.4,1.4c-0.1,0.3-0.3,0.4-0.6,0.4C78,25.6,76.8,25.9,75.7,25.5z"/>
<path class="st91" d="M70.7,19.5c0,0.3,0,0.6,0,1c0,0.3,0.2,0.6,0.3,0.9c0.5,1.4,2.8,1.2,2.8,3.1c-0.3,1.6-1.6,0.8-2.5,1
	c0,0,0,0,0,0c0.3-1.2,0.3-1.2-0.8-2c-0.9-0.7-1.7-1.5-1.7-2.8C69,19.7,69.4,18.9,70.7,19.5z"/>
<path class="st92" d="M75.7,25.5c1.3,0,2.7,0,4,0c1.9-1.3,4.1-0.4,6.1-0.8c0.3-0.1,0.6-0.3,0.9-0.5c0.2-0.2,0.5-0.5,0.8-0.6
	c0.1,0,0.2,0,0.3-0.1c0.1,0,0.3,0,0.4,0c0.7,0.9,0.3,1.5-0.5,2C86.9,25.9,86,26,85.2,26c-1.7,0-3.3,0-5,0c-1.2,0-2.3,0-3.5,0
	c-0.3,0-0.7,0-1,0C75.7,25.8,75.7,25.6,75.7,25.5z"/>
<path class="st93" d="M73.7,24.4c-0.8-1.6-3.4-1.3-3.5-3.5c1.5-0.1,2.5,1.1,3.7,1.7c0.8,0.9,1.9,1.1,2.8,1.8c-0.5,0.7-1.3,0.4-2,0.5
	C74.3,24.8,74,24.6,73.7,24.4z"/>
<path class="st94" d="M99.2,25.9c-0.8,0-1.7,0-2.5,0c-0.2-0.2-0.3-0.3-0.5-0.5c-1.9-1.4-3.1-1.2-5,0.5c0,0,0,0,0,0
	c-0.8-0.1-1.8,0.3-2.5-0.5c0.3-0.8-0.8-1.9,0.6-2.4c3.3-1.2,6.7-0.1,10-0.9c0.5-0.2,1-0.2,1.6-0.1c0.7,0.2,1.5,0.4,1.9,1.1
	c-0.1,1.7-2,1.7-2.6,2.8C99.8,25.9,99.5,25.9,99.2,25.9z"/>
<path class="st95" d="M100.2,25.9c-0.2-1.8,1.8-1.5,2.5-2.5c1.7-1.2,3.5-0.8,5.3-0.4c0.8,0.6,1.3,1.3,0.7,2.4c-1.2,0-2.3,0-3.5,0
	C103.5,26,101.9,26,100.2,25.9z"/>
<path class="st96" d="M91.2,25.9c0.1-1.7,3.5-2.9,5.1-1.8c0.5,0.4,0.1,0.9-0.1,1.3C94.5,26,92.9,26,91.2,25.9z"/>
<path class="st97" d="M43.2,25.9c0.7-0.8,1.7-0.4,2.5-0.5C45,26.3,44,25.8,43.2,25.9z"/>
<path class="st96" d="M88.7,23.4c-0.1,0.7,1.7,1.3,0,2c-0.2,0-0.3,0-0.5,0c-0.2,0-0.3,0-0.5,0c0.3-0.6,0.6-1.3,0.5-2
	c0.2-0.2,0.3-0.3,0.5-0.5c0.1,0.1,0.2,0.2,0.1,0.3C88.8,23.4,88.7,23.4,88.7,23.4z"/>
<path class="st98" d="M73.7,1.5c0,0.2,0,0.3,0,0.5c-1,0.7-2,0.8-3,0c0-0.2,0-0.4,0-0.5C71.7,1.4,72.7,1.4,73.7,1.5z"/>
<path class="st99" d="M20.2,23.4c-1.3,0-2.7,0-4,0c0.1-0.3,0.1-0.7,0.3-0.9c0.8-0.7,0.8-2.6,2.6-2.2C20.9,20.8,19.9,22.4,20.2,23.4z
	"/>
<path class="st100" d="M15.7,23.4c0.1,0.7-0.2,1.4-0.5,2c-0.3,0-0.7,0-1,0c-0.7-1-0.1-1.8,0.5-2.5c0.2,0,0.3,0,0.5,0
	C15.3,23.1,15.5,23.3,15.7,23.4z"/>
<path class="st101" d="M26.7,18.4c0-0.3,0-0.7,0-1c2.2-1.3,3.1-3.9,5-5.5c2.9-0.9,3-0.8,3,2.3c0,0.6,0,1.2,0,1.7
	c0.4,1.4,0,2.4-1.6,2.3c-1.3-0.5-0.2-1.8-0.9-2.7c-1.3,0.4-2,1.7-3,2.5c-0.4,0.4-0.8,0.8-1.4,1C27.2,19.2,26.8,19,26.7,18.4z"/>
<path class="st102" d="M41.6,14c1.2,0.6,1.1,2.5,2.5,2.9c0.3,0.3,0.3,0.6,0.1,0.9c-0.9,0.5-1.4-0.2-1.9-0.6
	c-0.8-0.6-1.6-0.9-2.5-0.3c-0.6,0.4-1.2,0.9-2,1c-0.9,0.1-1.5,0.7-1.8,1.5c-0.1,0.2-0.2,0.4-0.4,0.6c-0.9,1-2,1.8-3.5,1.3
	c-0.5-0.2-0.9-0.4-1.1-0.9c0-0.4,0.2-0.7,0.6-0.8c1.9,0,3-1.3,4.1-2.6C38.3,17.3,39.5,14.6,41.6,14z"/>
<path class="st103" d="M35.7,16.9c-0.4,2.3-1.7,3.3-4,3c-0.2-0.2-0.3-0.4-0.3-0.6c0-0.2,0.2-0.4,0.3-0.6c0.2-0.1,0.4-0.2,0.6-0.3
	c1.4,0.3,2-0.8,2.8-1.5C35.3,16.9,35.5,16.9,35.7,16.9z"/>
<path class="st104" d="M35.2,16.9c-0.5,1.4-1.4,2.3-3,2c-0.3-0.3-0.3-0.6-0.1-1c0.2-0.2,0.4-0.2,0.6,0c1.5,0.1,1.8-0.8,2-2
	C35.1,16.2,35.2,16.5,35.2,16.9z"/>
<path class="st105" d="M12.7,18.4c0,0.3,0,0.7,0,1c-1.1,0.5-2.6-0.9-3.5,0.7c-0.4,0.1-0.7,0.1-1-0.2c0-0.3,0-0.7,0-1
	c0-0.2,0-0.3,0-0.5c1.1-0.7,2.3-0.9,3.5-1C12,17.8,12.3,18.1,12.7,18.4z"/>
<path class="st106" d="M18.2,12.4c0,0.2,0,0.3,0,0.5c0.3,0.3,0.3,0.7,0.2,1c-0.7,0.9-0.4,2.2-1.2,3.1c-0.4,0.2-0.7,0.2-1-0.1
	c0,0,0,0,0,0C17,15.5,15.7,13.1,18.2,12.4z"/>
<path class="st107" d="M54.2,17.4c1.7-1.4,3.6-0.8,5.5-0.5c0,0,0,0,0,0c1.2,0.6,1,1.9,1.5,2.9c0.5,1,1.3,1.3,2.3,1.6
	c0.5,0.2,1.7,0.1,1,1.3c-1.8,0.7-3.4,0.4-4.9-0.9c-0.2-0.3-0.3-0.6-0.4-0.9c-0.3-0.9,0-2.3-1.4-2.6c-1.3-0.3-2.3,0.5-3,1.6
	c-0.2,0.1-0.5,0.1-0.7,0c-0.5-0.7-0.5-1.5-0.2-2.2C54,17.6,54.1,17.5,54.2,17.4z"/>
<path class="st108" d="M53.1,14.9c0.5,0,1,0.1,1.5,0.1c-0.5,0.7-0.5,1.6-0.5,2.4c0,0,0,0,0,0c-0.2,0.2-0.4,0.2-0.6,0.1
	c-0.4-0.3-0.6-0.8-0.7-1.2C52.7,15.8,52.8,15.3,53.1,14.9z"/>
<path class="st109" d="M8.2,23.9c-2.3-0.4-1.2-2.2-1.5-3.5c0.7,1.3,1.3,1.7,3.2,1.5c3.2-0.3,4.3-2.5,6.3-4c-0.7,1.7-1.3,3.3-2,5
	C12.3,23.9,10.3,24.5,8.2,23.9z"/>
<path class="st110" d="M8.2,23.9c2.1,0.2,3.9-1.5,6-1c0.2,0,0.3,0,0.5,0c-0.2,0.8-0.3,1.7-0.5,2.5C12,25.8,10,25,8.2,23.9z"/>
<path class="st111" d="M18.2,13.9c0-0.3,0-0.7,0-1c1.9,0.7,2.1,2.3,2,4c-1,1.7-2.6,0.7-4,1c0-0.3,0-0.7,0-1c0.3,0,0.7,0,1,0
	C18.2,16.2,17.9,15,18.2,13.9z"/>
<path class="st112" d="M53.1,14.9c0,0.5,0,1,0,1.5c-0.1,0.1-0.2,0.1-0.3,0.2c-0.4,0.1-0.7,0-1-0.2c-0.1-0.1-0.2-0.2-0.3-0.4
	c-1.8-2.8-1.9-2.8-3.4,0.1c-0.2,0.4-0.4,0.7-0.7,1c-0.5,0.5-1.1,0.9-1.7,1.3c-1.2,0.2-1.5-0.3-1.1-1.4c1.9-0.2,1.9-1.8,2.5-3
	c0.8-1.2,1.1-2.6,1.5-4c0.9-1.4,1.9-2.1,3.5-1C52.2,11,52,13.1,53.1,14.9z"/>
<path class="st113" d="M44.7,17c0.2,1.1,0.2,1.1,1,1c2-1,4-1.7,6.3-0.8c0.7,0.8,0,1.2-0.5,1.6c-1.4,0.6-3.1-0.2-4.4,1
	c-0.8,0.5-1.7,0.7-2.5-0.1c-0.4-0.5-0.7-1.1-0.4-1.8c0-0.3,0-0.7,0-1C44.3,17,44.5,17,44.7,17z"/>
<path class="st114" d="M48.7,10c0.1,1.5,0.1,3.1-1.5,4c0-0.3,0-0.7,0-1c0.4-1,1.1-1.8,1-2.9C48.4,10,48.5,10,48.7,10z"/>
<path class="st115" d="M69.2,10.5c0.5-0.2,1-0.4,1.5-0.5c2,0.6,3.3,1.8,3.2,4.1c-0.3,0.5-0.8,0.8-1.3,0.9
	C69.6,14.8,68.7,13.6,69.2,10.5z"/>
<path class="st116" d="M73.7,13.9c-0.5-1.7-1.8-2.8-3-4c0.6-0.8,0.5-1.7,0-2.5c-0.3-0.3-0.3-0.6-0.2-0.9c0.4-0.4,0.8-0.1,1.3,0
	c0.7,0.4,1.2,0,1.8-0.3c0.2,0,0.5,0,0.7,0.1c0.1,0.2,0.2,0.4,0.2,0.7c0,0.2-0.1,0.5-0.2,0.7c-1.1,1.1-0.7,2.2-0.2,3.4
	C74.5,12.1,75.4,13.3,73.7,13.9z"/>
<path class="st117" d="M69.2,10.5c0.5,1.9,0.4,4.3,3.5,4c0.3,0.3,0.4,0.8,0.2,1.2c-2,1.3-2.6,1.1-4.2-0.7c-0.2-1.5-0.8-3,0-4.5
	C68.9,10.5,69,10.5,69.2,10.5z"/>
<path class="st118" d="M70.7,6.4c0,0.3,0,0.7,0,1c-0.3-0.2-0.7-0.3-1-0.5c-0.4-1.2-0.4-2.3,0-3.5c0-0.2,0-0.3,0-0.5
	c0.2,0,0.3,0,0.5,0c0.2-0.2,0.5-0.3,0.9-0.2c0.2,0.1,0.3,0.3,0.4,0.5c0,0.2,0.1,0.4,0,0.6c-0.1,0.6-0.2,1.2-0.3,1.8
	C71.1,6,70.9,6.2,70.7,6.4z"/>
<path class="st119" d="M69.7,3.4c0,1.2,0,2.3,0,3.5C68.8,5.8,68.9,4.6,69.7,3.4z"/>
<path class="st120" d="M31.2,20.4c0.4,0,0.8,0.1,1,0.5c-0.2,0.2-0.4,0.4-0.6,0.4c-1.6,0.3-3.2,0.6-4.8,0.9c-0.4,0-0.8-0.1-1.1-0.3
	c-0.2-0.2-0.3-0.3-0.5-0.5c0.2-0.2,0.3-0.3,0.5-0.5c0.2-0.2,0.4-0.3,0.7-0.5C28,20.2,29.6,19.2,31.2,20.4z"/>
<path class="st121" d="M25.7,21.9c0.3,0,0.7,0,1,0c1.6-0.3,3.2-0.5,4.9-0.5c0.9,0.1,1.8-0.2,2.6,0.4c0,1.2-0.9,1-1.6,1.1
	c-2.3-0.1-4.6-0.1-6.9-0.5C25.7,22.3,25.7,22.1,25.7,21.9z"/>
<path class="st122" d="M25.7,22.4c2.3,0,4.7,0,7,0c-0.8,1.5-2,0.5-3,0.5c-0.2,0-0.3,0-0.5,0c-1,0-2,0-3,0c-0.2,0-0.3,0-0.5,0
	C25.7,22.8,25.7,22.6,25.7,22.4z"/>
<path class="st123" d="M64.7,22.4c-1.2-1-3.8,0.1-4-2.5c-0.4-1-0.4-2,0-3c0.2,0,0.3,0,0.5,0c0.3,0.3,0.5,0.6,0.6,0.9
	c1.1,1.5,4.1,2.4,5.6,1.5c1.8-1,3.6-1.6,5.7-1.2c1,0.2,1.8-0.7,2.9-0.7c0.7,0,1.2,0.2,1.7,0.7c0.2,0.2,0.2,0.5,0.1,0.7
	c-0.3,1.1-0.3,2.2-2,1.1c-1.5-1-3.4-0.5-5.1-0.6c-1,0-1.4,0.6-1.5,1.5C68.5,23.2,67.3,23.6,64.7,22.4z"/>
<path class="st124" d="M61.2,17.9c0-0.3,0-0.6,0-1c0.3-0.2,0.6-0.4,1-0.5c0.4-0.4,0.2-1.2,1.1-1.2c0.7,0,1.3,0.3,2.1,0.4
	c-0.1-1.3-1.2-2.5-0.3-3.8c0.3-0.4,0.7-0.7,1.3-0.4c0.6,1.1,0.6,2.4,0.9,3.5c0.4,1.4,1.1,1.9,2.4,2c0.2,0.1,0.5,0.2,0.7,0.4
	c0.1,0.2,0.1,0.5,0,0.7c-0.4,0.4-1,0.4-1.5,0.7c-0.8,0.5-1.5,1.8-2.5,1.3C64.6,19.2,62.4,19.7,61.2,17.9z"/>
<path class="st125" d="M63.2,15.4c-0.3,0.3-0.7,0.7-1,1c-0.2-2,1.1-3.6,1.5-5.5c0.8,0.1,1.7-1.1,2.5,0c0.1,0.1,0.2,0.2,0.1,0.3
	c0,0.1-0.1,0.2-0.1,0.2c-0.3,0.2-0.7,0.3-1,0.5C64.4,13,64.1,14.5,63.2,15.4z"/>
<path class="st33" d="M60.7,17c0,1,0,2,0,3c-0.9-0.8-0.2-2.1-1-3C60,17,60.3,17,60.7,17z"/>
<path class="st126" d="M68.7,14.9c1.3,0.5,2.5,1.7,4,0.5c1.2-1.4,2.5-1.6,3.9-0.4c1.1,1.3,3.1,0.7,4.2,2.1c-0.5,1.1-1.6,0.6-2.4,0.8
	c-1.7-0.4-3.4-1.2-5.3-0.4c-3.3,0-4.3-0.6-4.9-2.6C68.3,14.9,68.5,14.9,68.7,14.9z"/>
<path class="st127" d="M66.2,11.5c0-0.2,0-0.3,0-0.5c0.3,0,0.7,0,1,0c0,1.2-0.2,2.4,0.5,3.5c0,1.4,1.6,1.8,2,3c-2,0.3-3-0.5-3.1-2.6
	C66.5,13.7,66.1,12.6,66.2,11.5z"/>
<path class="st128" d="M69.7,17.4c-1.2-0.6-2.4-1.3-2-3c0.2,0.2,0.3,0.3,0.5,0.5c1.1,2,3,2.1,5,2c-0.7,1.7-1.9,0.9-3,0.5
	C70,17.5,69.8,17.4,69.7,17.4z"/>
<path class="st129" d="M26.2,20.9c-0.2,0-0.3,0-0.5,0c0-1,0.2-1.8,1-2.5c0.3,0.2,0.7,0.3,1,0.5c1.3-0.6,2.7-1.1,4,0
	c0,0.2,0,0.3,0,0.5C29.9,20.2,27.8,19.8,26.2,20.9z"/>
<path class="st130" d="M71.2,2.9c-0.3,0-0.7,0-1,0c0.2-0.3,0.3-0.6,0.5-1c1,0,2,0,3,0c0,0.2,0,0.3,0,0.5C73,3.2,72.1,3.1,71.2,2.9z"
	/>
<path class="st131" d="M92.7,18.9c-0.5,0-1,0-1.5,0c-0.9-1.4,0-2.3,0.8-3.2c1-0.6,2.2-0.9,3.4-0.8c0.5,0.1,1,0.3,1.4,0.6
	c0.5,0.4,0.9,0.8,1.3,1.3c0.2,0.3,0.4,0.6,0.3,1c-0.7,1.3-2,1.2-3.1,1.2C94.3,18.9,93.5,18.9,92.7,18.9z"/>
<path class="st132" d="M116.2,17.5c0.8,0,1.6,0,2.5-0.1c0,0,0,0,0,0c-0.6,3.7-0.8,3.8-3.5,3.5c-0.7-0.4-1.5-0.5-2.4-0.5
	c-2.1,0.1-3.4-0.8-3.6-3c0-0.2,0-0.3,0-0.5c0.5,0.2,1,0.3,1.5,0.5c1.5,0.8,3.3,0.7,4.9,1.4C117,19.5,115.8,17.9,116.2,17.5z"/>
<path class="st133" d="M122.2,20.4c0,0.3,0,0.7,0,1c-2.1,1.2-4.3,2.1-6.8,1.7c-0.2,0-0.5,0-0.7-0.1c-1.5-0.3-3.1-0.1-4.6-0.7
	c-0.2-0.1-0.4-0.2-0.6-0.4c-0.1-0.4-0.1-0.7,0.2-1c1.9,0.3,3.9,0.7,5.8,1c1.3,0.2,2.8,0.2,3.5-1.1C120,19.1,121,19.4,122.2,20.4z"/>
<path class="st134" d="M95.2,18.9c0.8-0.9,2.3-0.3,3-1.5c0.1-0.7,0.4-1.2,1-1.5c0.2,0,0.3,0,0.5,0C99.6,19.8,98.7,20.4,95.2,18.9z"
	/>
<path class="st135" d="M130.2,20.9c0.2,0.5,0.3,1,0.5,1.5c-0.7,0.1-1.4-0.2-2-0.5c-0.9-0.7-2-0.6-3-1c0.3-0.7,0.8-1,1.5-1
	C128,20.7,129.4,20,130.2,20.9z"/>
<path class="st135" d="M115.2,20.9c2.8,0.4,2.9-1.8,3.5-3.5c0.7-0.3,1.3-0.7,2-1c-0.5,1.7-2.1,2.7-2.8,4.3
	C117.5,21.7,116.1,21.8,115.2,20.9z"/>
<path class="st136" d="M109.7,20.9c0,0.3,0,0.7,0,1c-2.1-0.2-2.5-1.8-2.9-3.4c0-0.3,0.2-0.5,0.4-0.6c0.3,0.2,0.7,0.3,1,0.5
	C108.7,19.3,109.2,20.1,109.7,20.9z"/>
<path class="st137" d="M107.2,17.9c0,0.2,0,0.3,0,0.5c-3-0.3-4.8,2.1-7.2,3.1c-0.1,0-0.2-0.1-0.3-0.1c0.4-1.5,1.4-2.6,2.4-3.7
	C104.2,15.7,104.8,15.7,107.2,17.9z"/>
<path class="st138" d="M88.7,23.4c0-0.2,0-0.3,0-0.5c0-0.2,0-0.3,0-0.5c3.6-1.3,7.4,0.2,11-1c0,0,0,0,0,0c0.3,0.3,0.3,0.7,0,1
	c-1.1,0.7-2.2,0.5-3.4,0.5C93.7,22.9,91.2,23,88.7,23.4z"/>
<path class="st139" d="M99.2,15.9c0,0.7-0.3,1.2-1,1.5c-0.2-0.2-0.3-0.3-0.5-0.5c-0.1-0.9-0.2-1.9,0.2-2.8c0.1-0.1,0.2-0.2,0.3-0.2
	C98.5,14.6,98.8,15.3,99.2,15.9z"/>
<path class="st140" d="M97.2,11.4c0-0.3,0-0.7,0-1c0.8,1,1,2.2,1,3.5c0,0,0,0,0,0c-0.9,0.2-1-0.5-1.3-1.1
	C96.7,12.3,96.8,11.8,97.2,11.4z"/>
<path class="st141" d="M107.6,13.5c-1.1,0.9-1.7,0-2.4-0.6C106.2,12.2,106.7,13.5,107.6,13.5z"/>
<path class="st142" d="M116.2,17.5c0.3,0.6,1.8,0.7,1.1,1.8c-0.6,0.9-1.7,0.8-2.4,0.1c-1.2-1.3-3.4-0.3-4.3-2
	c3.4,0.1,1.5-2.1,1.5-3.5c0.5,0.2,0.8,0.5,1,1C113.1,17.1,114.7,17.3,116.2,17.5z"/>
<path class="st143" d="M97.2,11.4c0,0.5,0,1,0,1.5c0.2,1.1,1.2,2.3-0.5,3c-0.3-0.2-0.7-0.3-1-0.5c-0.8-1-1.8-1.9-3.1-2.4
	c-0.1-0.2-0.1-0.4,0.1-0.6c0.5-0.8,0.7-1.8,1.5-2.5c0.6-0.5,1.1-1.3,1.8,0C96.3,10.5,96.8,10.9,97.2,11.4z"/>
<path class="st144" d="M92.7,12.4c0,0.2,0,0.3,0,0.5c0.9,1.2,0.4,2.1-0.5,3c-0.4,1-1.1,1.8-1,3c-1.1,0.1-1.6-0.4-1.5-1.5
	C91.5,16.3,91.1,13.8,92.7,12.4z"/>
<path class="st145" d="M79.2,19.5c1.1-0.1,2.1-0.3,3-1c0.5-1.1,1.3-1.6,2.5-1c-0.8,2.9,1.5,4.3,3.1,6c0,0-0.1,0-0.1,0
	c-1.2,0.4-2.7-0.1-3.5,1.2c-0.5,0.2-0.9,0.2-1.4,0.1C81.2,23.2,78.7,22.3,79.2,19.5z"/>
<path class="st146" d="M84.7,17.4c-0.8,0.3-1.7,0.7-2.5,1c-1.5-0.1-3,0-4.5,0.5c0-0.2,0-0.3-0.1-0.5c0.1-0.4,0.4-0.6,0.8-0.7
	c2.3,0.7,3.3-1.7,5.2-2c0.4,0,0.8-0.1,1,0.4c0,0.1,0,0.3,0.1,0.4C84.7,16.8,84.7,17.1,84.7,17.4z"/>
<path class="st73" d="M80.2,2.4c0.5-0.7,1.3-0.4,2-0.5c2.5,3.2,2.6,4.4,0.5,6.5c-0.4-0.4-0.4-0.8-0.4-1.3
	C82.7,5.1,81.3,3.8,80.2,2.4z"/>
<path class="st147" d="M83.2,12.4c0,0.2,0,0.4,0.1,0.5c0.2,1,0.5,2-0.7,2.6c-1.2-0.5-0.2-1.7-0.8-2.4c-0.4-1.2-1.6-1.5-2.3-2.3
	C79,10,78.7,9.2,79.2,8.3c1-0.4,1.8-0.1,2.5,0.7C80.8,10.7,82.2,11.5,83.2,12.4z"/>
<path class="st148" d="M81.7,9c-0.8-0.2-1.6-0.4-2.5-0.6c-0.4,0-0.6-0.3-0.8-0.6c0-0.2,0-0.4,0-0.7c1-1.2,2.3,0.5,3.3-0.5
	c0.4-0.1,0.7,0,0.9,0.3c0,0.5,0,1-0.1,1.5C82.3,8.6,82,8.8,81.7,9z"/>
<path class="st149" d="M82.7,7c-0.3,0-0.7,0-1,0c-0.7-1.3-1.2-2.8-2.9-3.2c-0.1-0.1-0.1-0.2-0.2-0.3c0-0.2,0-0.3,0-0.5
	c0.5-0.2,1-0.3,1.5-0.5C82.2,3.3,83.3,4.6,82.7,7z"/>
<path class="st150" d="M78.7,7.4c0,0.2,0,0.4,0,0.5c0.1,0.1,0.2,0.2,0.2,0.4c0,0.1,0,0.2-0.1,0.2c-0.4,0.2-0.8,0.1-1.2-0.1
	c-0.4-0.2-0.8-0.4-1.1-0.5c-0.4-0.2-0.8-0.4-1.1-0.7c-0.3-0.2-0.4-0.5-0.4-0.9c0.1-0.3,0.3-0.6,0.7-0.5c0.3,0,0.6,0,1,0.1
	c0.4,0,0.7,0.2,1.1,0.4c0.2,0.1,0.3,0.2,0.5,0.3C78.4,6.9,78.5,7.2,78.7,7.4z"/>
<path class="st151" d="M77.7,6.8c-0.6,0-0.9-0.4-1.1-0.8c-0.8-2,1-2,2-2.5c0,0,0,0,0,0c0.2,0.5,0,0.8-0.2,1.2
	C78.2,5.4,78.3,6.2,77.7,6.8z"/>
<path class="st151" d="M75.7,5.9c-0.2,0.2-0.3,0.4-0.5,0.6c-0.2,0.4-0.4,0.8-1,0.5c0-0.2,0-0.3,0-0.5c-0.4-0.6-0.2-1.2-0.4-1.9
	c0-0.3,0-0.7,0.2-1c0.1-0.1,0.2-0.1,0.3-0.2c0.3,0.2,0.6,0.3,0.9,0.5C75.5,4.6,75.7,5.2,75.7,5.9z"/>
<path class="st152" d="M82.2,15.4c1.2-0.4,1-1.5,1.1-2.4c0.8,0.7,0.3,1.6,0.5,2.5c0.2,0.1,0.2,0.2,0.1,0.3c-0.1,0.1-0.1,0.2-0.2,0.2
	c-1.6,1.4-3.3,2.4-5.5,2c-0.1-0.1-0.2-0.2-0.1-0.3c0-0.1,0.1-0.2,0.1-0.2c0.8-0.1,1.8,0.3,2.5-0.5C80.9,16.2,81.1,15.3,82.2,15.4z"
	/>
<path class="st153" d="M83.7,15.9c0-0.2,0-0.3,0-0.5c0.6-0.3,0.4-1,0.9-2.1c0,1.3,0,2,0,2.7C84.3,16,84,16,83.7,15.9z"/>
<path class="st154" d="M71.2,2.9c0.7-0.8,1.7-0.4,2.5-0.5C73.8,2.6,74,2.8,74.1,3C73.1,3.7,72.2,3.7,71.2,2.9L71.2,2.9z"/>
<path class="st155" d="M71.2,2.9c1,0,2,0,3,0c0,0.2,0.1,0.3,0.1,0.5c0,0-0.1,0-0.1,0c-0.2,0.2-0.4,0.3-0.7,0.4
	c-0.8,0.2-1.6,0.2-2.3-0.4C71.2,3.3,71.2,3.1,71.2,2.9z"/>
<path class="st156" d="M8.2,19.9c0.3,0,0.7,0,1,0c1.2-1.8,2.3-0.3,3.5,0C11.2,21.3,9.7,21.7,8.2,19.9z"/>
<path class="st157" d="M12.7,19.9c-1.2,0.1-2.3-1-3.5,0c0.8-2.9,2.3-0.8,3.5-0.5C12.7,19.6,12.7,19.8,12.7,19.9z"/>
<path class="st158" d="M111.7,23.4c0.4,0.6,1,0.5,1.5,0.5c-0.6,1.3-1.7,1.6-3,1.5c-0.2-0.8-1.1-1.5-0.2-2.3
	C110.6,22.9,111.2,22.9,111.7,23.4z"/>
<path class="st159" d="M109.7,23.4c0.6,0.6,1.2,1.1,0.5,2c-0.5,0-1,0-1.5,0c-0.2-0.7-0.3-1.3-0.5-2c0.2-0.3,0.6-0.4,0.9-0.3
	C109.3,23.2,109.5,23.3,109.7,23.4z"/>
<path class="st160" d="M109.7,23.4c-0.2,0-0.3,0-0.5,0c-2.3-3.1-5.1-2.8-8-1c-0.5,0-1,0-1.5,0c0-0.3,0-0.7,0-1
	c0.9-0.7,2-1.3,2.8-2.1c1.4-1.4,2.9-1.7,4.7-0.9c0.4,1.4,1.2,2.7,2.5,3.5c0,0,0,0,0,0c1.5,1,3.4,0.5,5,1l0,0
	c0.2,0.1,0.2,0.2,0.2,0.3c-0.1,0.1-0.1,0.2-0.2,0.2c-1,0-2,0-3,0C111,23.4,110.3,23.4,109.7,23.4z"/>
<path class="st136" d="M114.7,23.4c0-0.2,0-0.3,0-0.5c2.8,0.8,4.9-1.3,7.5-1.5c0.5,0.5,1,1,1.5,1.5C120.6,22.3,117.7,24,114.7,23.4z
	"/>
<path class="st161" d="M64.7,22.4c1.6-0.2,3.6,0.7,4.5-1.5c0.5,0.8,1,1.7,1.5,2.5c-0.2,0.2-0.3,0.2-0.5,0c-2.5-0.3-5,0.8-7.5,0.5
	c-2.1-1.1-4.5-0.6-6.8-1c-0.3-0.1-0.5-0.2-0.7-0.3c-0.2-0.2-0.3-0.4-0.2-0.7c0.1-0.5,0.4-1,0.9-1.3c1.4-0.4,2.7-0.1,3.8,0.8
	C61.2,22.5,62.9,22.5,64.7,22.4z"/>
<path class="st162" d="M55.7,22.4c2.2-0.2,4.4,0.3,6.5,0.5c0.8,0.1,0.6,0.5,0.5,1c-0.5,0-1,0-1.5,0c-1.5,0.2-3,0.3-4.5,0.5
	c-0.3-0.4-1-0.5-1.2-1.1C55.3,23,55.4,22.7,55.7,22.4z"/>
<path class="st163" d="M70.2,23.4c0.2,0,0.3,0,0.5,0c1.3,0.4,1.3,1.1,0.5,2c-1.5,0-3,0-4.5,0C67.6,24.3,69.1,24.3,70.2,23.4z"/>
<path class="st164" d="M55.7,23.4c0.6,0,1,0.4,1,1c-1.5,0.2-3,0.3-4.5,0.5c-1.2-1.8-3-0.7-4.5-1c-0.1-0.6,0.3-0.8,0.8-1
	C50.9,22.8,53.3,22.2,55.7,23.4z"/>
<path class="st165" d="M40.2,25.4c-1.8-0.3-3.7,0.6-5.5-0.5c1-1.1,2.3-1.5,3.7-2c0.7-0.1,1.3-0.1,1.8,0.5
	C40.2,24.1,40.2,24.8,40.2,25.4z"/>
<path class="st166" d="M40.2,23.4c-0.7,0-1.3,0-2,0c-0.3-0.3-0.3-0.7-0.2-1.1c0.5-0.9,1.2-1.3,2.2-1.4c1,0.1,2,0.3,2.9,0.8
	c0.2,0.2,0.2,0.4,0.1,0.7C42.2,22.8,41.2,23.1,40.2,23.4z"/>
<path class="st97" d="M48.2,23.4c-0.2,0.2-0.3,0.3-0.5,0.5c-1.3-0.1-2.7,0.3-4-0.5c-0.2-0.6,0-1.1,0.4-1.6c0.2-0.1,0.4-0.2,0.7-0.1
	c0.9,0.1,1.9,0.1,2.8,0.4c0.3,0.1,0.6,0.4,0.8,0.7C48.4,23,48.3,23.3,48.2,23.4z"/>
<path class="st167" d="M44.2,21.9c-0.2,0.5-0.3,1-0.5,1.5c-0.4-0.2-0.5-0.6-0.5-1c0-0.2,0-0.3,0-0.5c-0.2-0.5,0.1-0.6,0.5-0.7
	C44.1,21.3,44.3,21.5,44.2,21.9z"/>
<path class="st168" d="M38.2,22.4c0,0.3,0,0.7,0,1c-1,0.8-2.2,1.3-3.5,1.5c-0.8-0.3-0.9-0.8-0.5-1.5c0.2-0.7,0.7-0.9,1.3-1.1
	C36.4,22.2,37.3,22,38.2,22.4z"/>
<path class="st169" d="M35.7,22.9c-0.5,0.2-1,0.3-1.5,0.5c-1.5-0.2-3.1,0.5-4.5-0.5c1-0.2,2.1,0.4,3-0.5c0.5,0,1.1,0.1,1.5-0.5
	c-0.3-0.9,0.5-1.1,0.9-1.5c0.2-0.1,0.4-0.1,0.6-0.1c0.4,0.3,0.5,0.6,0.7,1c0,0.2,0,0.4,0,0.6C36.1,22.3,35.9,22.6,35.7,22.9z"/>
<path class="st170" d="M79.2,19.5c0.2,2.4,2.7,3.1,3.5,5c-1.3,0.9-2.7,0.4-4,0C78.9,22.8,78.1,21,79.2,19.5z"/>
<path class="st171" d="M73.7,22.9c-1.3-0.4-2.4-1.1-3.5-2c0.2-0.2,0.3-0.3,0.5-0.5c2.1-0.5,4.1-0.5,5.5,1.5
	C75.4,22.5,74.3,22.2,73.7,22.9z"/>
<path class="st172" d="M73.7,22.9c0-2.5,1.5-1,2.5-1c0.2,0.8,0.3,1.7,0.5,2.5C75.3,24.6,74.3,24.2,73.7,22.9z"/>
<path class="st173" d="M78.7,24.4c1.3,0,2.7,0,4,0c0.5,0,1,0,1.5,0c1-0.7,2-0.9,3,0c-0.2,0.2-0.3,0.3-0.5,0.5c-2.3,0.4-4.7,0.4-7,0
	C79.3,24.9,78.9,24.8,78.7,24.4z"/>
<path class="st174" d="M79.7,24.9c2.3,0,4.7,0,7,0c-2.3,1-4.7,0.2-7,0.5C79.7,25.3,79.7,25.1,79.7,24.9z"/>
<path class="st175" d="M87.2,24.4c-1,0-2,0-3,0c0.5-2.7,2.1-1.4,3.5-1C87.5,23.8,87.3,24.1,87.2,24.4z"/>
<path class="st176" d="M101.2,22.4c4.4-3.5,4.6-3.4,8,1c-0.3,0-0.7,0-1,0c-1.8,0-3.7,0-5.5,0C102.2,23.1,101.7,22.8,101.2,22.4z"/>
<path class="st177" d="M32.7,17.9c-0.2,0-0.3,0-0.5,0c-1.2,0.7-2.3,0.7-3.5,0c0.4-0.5,0.8-1.1,1.3-1.5c0.9-0.7,1.5-2.5,2.8-1.7
	C33.9,15.4,32.8,16.9,32.7,17.9z"/>
<path class="st178" d="M28.7,17.9c1.2,0,2.3,0,3.5,0c0,0.3,0,0.7,0,1c-0.2,0-0.3,0-0.5,0c-1.3,0-2.7,0-4,0
	C27.9,18.5,28.2,18.1,28.7,17.9z"/>
<path class="st179" d="M37.7,17.4c0.9,0.1,1.3-0.7,2-1c2.4-0.9,3.2,0.9,4.1,2.4c-0.2,0.2-0.4,0.3-0.6,0.4c-2.7-0.6-5.1,0.2-7.5,1.2
	l0,0c-0.3-0.3-0.3-0.7,0-1l0,0C36.2,18.6,36.8,17.9,37.7,17.4z"/>
<path class="st180" d="M43.7,18.9c-1.1-1.2-1.9-2.8-4-2.5c2.2-1.6,3.1,0.8,4.5,1.5c0.2,0.5,0.3,1,0.5,1.5c0.3,0.5,0.5,1,0.1,1.5
	C43.2,20.9,43.7,19.8,43.7,18.9z"/>
<path class="st181" d="M26.2,20.9c1.5-1.6,3.5-1.6,5.5-1.5c0,0.2,0,0.3,0,0.5c-0.2,0.2-0.3,0.3-0.5,0.5C29.5,20.1,27.9,21,26.2,20.9
	z"/>
<path class="st182" d="M35.7,19.4c0,0.3,0,0.7,0,1c-0.7,0.3-1.2,0.8-1.5,1.5c-0.8,0-1.7,0-2.5,0c-0.3-0.3-0.3-0.7,0-1
	c0.2,0,0.3,0,0.5,0C33.7,21.3,34.6,20.2,35.7,19.4z"/>
<path class="st183" d="M37.7,17.4c-0.5,0.8-1.1,1.5-2,2C35.8,18.3,36.2,17.3,37.7,17.4z"/>
<path class="st184" d="M18.2,13.9c0.9,1.4,0.9,2.5-1,3C17.5,15.9,16.4,14.5,18.2,13.9z"/>
<path class="st185" d="M59.7,21.4c-1.3-0.2-2.7-0.3-4-0.5c-0.6-0.1-0.9-0.4-1-1c-0.4-2.8,2-2,3.3-2.4c1.4-0.4,1.3,1.1,1.6,1.9
	C59.8,20.1,59.6,20.8,59.7,21.4z"/>
<path class="st33" d="M53.7,17.4c0.2,0,0.3,0,0.5,0c0,0.8,0,1.7,0,2.5c0.3,0.3,0.3,0.6,0.2,1c-0.1,0.2-0.2,0.4-0.4,0.6
	c-0.9,0.6-1.8,0.7-2.7,0.2c-0.2-0.2-0.3-0.4-0.3-0.6c0.2-0.5,0.8-0.6,1.2-1c0.3-0.3,0.4-0.7,0.5-1.1C52.9,18.4,53,17.8,53.7,17.4z"
	/>
<path class="st186" d="M54.2,20.9c0-0.3,0-0.7,0-1c0.2,0,0.3,0,0.5,0c0.5,0.2,0.8,0.5,1,1c0,0.4-0.1,0.8-0.5,1
	C54.3,22.2,54.3,21.5,54.2,20.9z"/>
<path class="st187" d="M53.7,17.4c-0.2,0.7-0.3,1.3-0.5,2c-0.7,1-1.4,1-2.2,0.1c-0.1-0.4-0.1-0.8,0.2-1.1c0.5-0.2,0.8-0.5,1-1
	c0.1-0.6,0.7-0.7,1-1c0,0,0,0,0,0C53.6,16.7,53.7,17,53.7,17.4z"/>
<path class="st188" d="M47.2,16.9c0.1-0.3,0.3-0.6,0.4-0.9c0.6-1.1,0.6-3.1,2.2-2.9c1.6,0.1,2,1.9,2.4,3.3
	C50.6,17.3,48.9,17,47.2,16.9z"/>
<path class="st189" d="M47.2,16.9c1.6-0.6,3.3-0.5,5-0.5c0.3,0,0.7,0,1,0c-0.2,0.5-0.5,0.8-1,1c-2.2-0.1-4.4,0-6.5,0.5
	C46.2,17.6,46.7,17.3,47.2,16.9z"/>
<path class="st190" d="M51.2,19.4c0.7,0.5,1.3,0.5,2,0c0,0.4-0.1,0.8-0.5,1c-1.8,0.8-4-0.4-5.7,0.8c-0.7,0.3-1.4,0.7-2.2,0.3
	c-0.2-0.2-0.2-0.4,0-0.7c0-0.5,0-1,0-1.5c0.7,0.5,1.3,0.5,2,0C48.2,18.7,49.7,18.7,51.2,19.4z"/>
<path class="st191" d="M51.2,19.4c-1.5,0-3,0-4.5,0c1.2-1.8,3-0.7,4.5-1C51.2,18.8,51.2,19.1,51.2,19.4z"/>
<path class="st192" d="M76.2,15.4c-1.2-1.5-2.3,0-3.5,0c0-0.3,0-0.7,0-1c0.3-0.2,0.7-0.4,1-0.5c1.1-1.2,0.2-2.2-0.3-3.1
	c-0.8-1.5-0.8-2.6,0.8-3.4c0.3,0.2,0.3,0.5,0.3,0.8c0,0.2,0,0.4-0.1,0.6c-0.1,0.8,0.2,1.4,0.6,2.1c0.2,0.2,0.4,0.4,0.7,0.6
	c0.9,0.3,1.6-0.1,2.4-0.3c0.6-0.2,1.1-0.3,1.6,0c0.4,1-0.4,1.5-1,1.9c-0.7,0.4-1.4,0.8-1.8,1.5C76.7,15,76.5,15.3,76.2,15.4z"/>
<path class="st193" d="M74.2,4.4c0.5,0.7,0.5,1.3,0,2c-0.2,0-0.3,0-0.5,0c-0.8-0.3-1.3,0.4-2,0.5c-0.3-0.2-0.7-0.3-1-0.5
	c0-0.3,0-0.7,0-1c0.2-0.2,0.3-0.4,0.5-0.5C72.1,4.1,73,3.6,74.2,4.4z"/>
<path class="st194" d="M71.7,6.9c0.5-0.7,0.8-2.5,2-0.5C73.1,7,72.8,8.7,71.7,6.9z"/>
<path class="st195" d="M74.2,8.4c0-0.3,0-0.7,0-1c0-0.2,0-0.3,0-0.5c0.3-0.2,0.6-0.3,1-0.5c0.2,0.2,0.3,0.4,0.5,0.5
	C75.8,8.1,75.3,8.6,74.2,8.4z"/>
<path class="st196" d="M71.2,5.4c-0.2,0-0.3,0-0.5,0c-0.1-0.7,0.2-1.4,0.5-2c0.8,0,1.7,0,2.5,0C73.4,4.8,71.3,3.9,71.2,5.4z"/>
<path class="st197" d="M31.7,20.9c0,0.3,0,0.7,0,1c-1.7,0-3.3,0-5,0C28.3,21.2,29.9,20.9,31.7,20.9z"/>
<path class="st198" d="M61.2,17.9c1.5,0.7,3.4,0.5,4.7,1.8c0.6,0.5,1.2,0,1.7-0.5c0.7-0.7,1.5-1.2,2.6-1.3c1.5-0.5,3.1-0.1,4.6-0.8
	c0.5-0.3,1.4-0.2,1.4,0.8c-1.5,0.6-2.9,1.4-4.7,0.7c-0.7-0.3-2.2,0.1-2.8,0.7c-2.2,2.2-4.4,0.4-6.5,0.3
	C61.4,19.6,61.1,18.8,61.2,17.9z"/>
<path class="st199" d="M76.2,17.9c-2-1-4,0.6-6,0c0-0.2,0-0.3,0-0.5c1-0.2,2.1,0.4,3-0.5c1.8-1,3.4,0,5,0.5c0,0.2,0,0.3,0,0.5
	c-0.2,0.2-0.4,0.3-0.5,0.5C77.2,18.3,76.7,18.1,76.2,17.9z"/>
<path class="st200" d="M63.2,15.4c0-1.5,0.6-2.7,2-3.5c-0.5,1.7,1.7,2.9,0.7,4.8C65,16.3,64.1,15.9,63.2,15.4z"/>
<path class="st201" d="M76.2,15.4c0-0.3,0-0.7,0-1c0.1,0,0.2-0.1,0.2-0.1c2.4,1.3,4.3,0.8,5.8-1.4c1.1,0.8-0.1,1.6,0,2.5
	c-0.6,0.4-0.7,1.3-1.5,1.5C78.9,17.1,77.3,16.9,76.2,15.4z"/>
<path class="st202" d="M92.2,15.9c0.2-1,0.3-2,0.5-3c1.9-0.3,2.7,0.8,3,2.5C94.5,15.6,93.3,15.8,92.2,15.9z"/>
<path class="st203" d="M96.7,15.9c0.9-0.9,0.3-2,0.5-3c0.3,0.3,0.7,0.7,1,1c-0.2,1,0.4,2.1-0.5,3C97.2,16.8,96.9,16.4,96.7,15.9z"/>
<path class="st136" d="M114.7,22.9c-1.7-0.2-3.6,0.6-5-1C111.4,22.1,113.1,22.2,114.7,22.9z"/>
<path class="st204" d="M82.2,12.9c-1.5,3.7-2.5,3.9-6,1.5c0.5-1.8,3-1.2,3.4-3.1c-0.1-0.2-0.1-0.3,0.1-0.4
	C81.3,10.7,81.7,11.9,82.2,12.9z"/>
<path class="st205" d="M79.7,11c0,0.1-0.1,0.3-0.1,0.4c-0.5,0.2-1,0.4-1.4,0.5c-0.2-0.2-0.3-0.3-0.3-0.6c0-0.7,0.6-1.3,0.5-2.1
	c0-0.3,0.1-0.6,0.3-0.8c0-0.2,0-0.4,0-0.6c0.2,0.2,0.4,0.3,0.5,0.5C79.6,9.2,79.7,10.1,79.7,11z"/>
<path class="st206" d="M78.2,4.4c0.2-0.3,0.4-0.6,0.5-1c2.4-0.1,3.2,1.3,3,3.5c-0.2,1-0.7,1.2-1.6,0.7c-0.4-0.3-0.8-0.9-1.4-0.2
	c-0.2-0.2-0.3-0.4-0.5-0.6c-0.4-0.4-0.3-0.8,0.1-0.9C79.7,5.2,78.3,4.9,78.2,4.4z"/>
<path class="st207" d="M74.2,8.4c0.7-0.3,1.2-0.8,1.5-1.5c0.3,0.2,0.7,0.3,1,0.5C76.9,7.7,77,8,76.8,8.4c-0.7,0.5-0.9,1.1-0.7,2
	c0,0.4,0,0.7-0.1,1c-0.2,0.3-0.5,0.5-0.8,0.6c-0.2-0.2-0.3-0.3-0.5-0.5C74.6,10.4,73.7,9.5,74.2,8.4L74.2,8.4z"/>
<path class="st208" d="M78.2,4.4c0.7,0.1,1.8-0.4,1.9,0.9c0.1,1.5-1.2,0.2-1.6,0.8c-0.1,0.2-0.2,0.4-0.3,0.6c0,0-0.2,0.1-0.2,0.1
	s-0.2,0-0.2,0C77.8,6,77.3,5.1,78.2,4.4z"/>
<path class="st209" d="M78.7,8.5c0,0.3,0,0.7,0,1c-0.2,0.4-0.2,1-0.8,1.1c-0.3-0.1-0.4-0.2-0.5-0.5C77,9.3,77,8.6,77.7,8
	C78,8.1,78.3,8.3,78.7,8.5z"/>
<path class="st210" d="M77.7,8c0,0.8,0,1.7,0,2.5c-0.2,0.1-0.4,0.1-0.6,0.1c-0.4-0.5-0.5-1.1-0.5-1.8c0-0.1,0-0.2,0-0.3
	c0-0.3,0-0.7,0-1C77,7.6,77.3,7.8,77.7,8z"/>
<path class="st211" d="M71.2,5.4c-0.1-1.8,1.8-1.1,2.5-2c0.2,0,0.3,0,0.5,0c0,0.3,0,0.7,0,1C73,4.2,72.1,4.8,71.2,5.4z"/>
<path class="st212" d="M54.2,20.9c0.3,0.3,0.7,0.7,1,1c0,0.2,0,0.3,0,0.5c-2.2,1.4-4.6,0.7-7,0.5c-0.2-0.2-0.3-0.3-0.5-0.5
	c1.5-1.3,3.4-0.2,5-0.6C53.3,21.8,53.9,21.6,54.2,20.9L54.2,20.9z"/>
<path class="st213" d="M48.2,22.9c2.3-0.1,4.7,0.3,7-0.5c0.2,0,0.3,0,0.5,0c0,0.3,0,0.7,0,1c-2.5,0-5,0-7.5,0
	C48.2,23.3,48.2,23.1,48.2,22.9z"/>
<path class="st214" d="M35.7,22.9c0-0.4,0.1-0.8,0.5-1c0.8-1.3,1.9-1.9,3.4-1.7c0.5,0.3,0.8,0.6,0.6,1.2c-0.9-0.1-1.3,0.7-2,1
	C37.4,23.1,36.4,22.4,35.7,22.9z"/>
<path class="st215" d="M40.2,21.4c-0.2-0.3-0.3-0.7-0.5-1c1-0.8,2.2-0.9,3.5-0.7c0.6,0.5,1,0.9,0.5,1.7c-0.2,0.2-0.3,0.3-0.5,0.5
	C42.1,22.1,41.2,21.6,40.2,21.4z"/>
<path class="st216" d="M53.2,21.9c-1.8,1.1-3.7,0.2-5.5,0.5c-1-0.2-2.1,0.4-3-0.5c0.1-0.1,0.2-0.1,0.4-0.2c0.8-0.1,1.7-0.3,2.5-0.4
	C49.5,21.1,51.3,21.6,53.2,21.9z"/>
<path class="st217" d="M43.7,21.4c-0.2-0.5-0.3-1-0.5-1.5c-0.2-0.1-0.3-0.3-0.3-0.5c0-0.2,0.1-0.4,0.3-0.5c0.2,0,0.3,0,0.5,0
	c0.8,0.4,0.2,1.6,1,2c0,0.2,0,0.3,0,0.5c0.2,0.1,0.2,0.2,0.2,0.3c-0.1,0.1-0.1,0.2-0.2,0.2c0,0,0,0,0,0c-0.2,0-0.3,0-0.5,0
	C44,21.8,43.8,21.6,43.7,21.4z"/>
<path class="st218" d="M43.2,18.9c0,0.2,0,0.3,0,0.5c-2.3,0.8-5,0.3-7,2c-0.4-0.2-0.5-0.6-0.5-1C37.8,18.2,40.4,17.9,43.2,18.9z"/>
<path class="st219" d="M36.2,21.4c1.8-2.5,4.5-1.9,7-2c0,0.2,0,0.3,0,0.5c-1.1,0.3-2.3,0.7-3.5,0.5c-1.3,0.2-2.3,1-3.5,1.5
	C36.2,21.8,36.2,21.6,36.2,21.4z"/>
<path class="st220" d="M46.7,20.9c1.8-2,4-0.3,6-0.5c-0.4,0.6-0.9,0.5-1.5,0.5C49.7,21.7,48.2,21.7,46.7,20.9z"/>
<path class="st221" d="M46.7,20.9c1.5,0,3,0,4.5,0c0,0.2,0,0.3,0,0.5c-1.3,0.7-2.7-0.2-4,0.5c-0.8,0-1.7,0-2.5,0c0-0.2,0-0.3,0-0.5
	C45.3,21.3,46,21.1,46.7,20.9z"/>
<path class="st222" d="M47.2,21.9c1.2-1,2.7-0.3,4-0.5c1,0,2.1,0.1,3-0.5c0,0.7-0.4,1-1,1C51.2,21.9,49.2,21.9,47.2,21.9z"/>
<path class="st223" d="M77.2,10.5c0.2,0,0.3,0,0.5,0c0,0,0,0,0,0c0.4,0.2,0.2,0.7,0.5,1c0,0.2,0,0.3,0,0.5c-1,0.1-2,1.2-3.1,0
	c0.2-0.2,0.4-0.4,0.6-0.5C76.1,10.9,76.4,10.4,77.2,10.5z"/>
<path class="st195" d="M74.2,8.4c0.2,1,0.7,1.9,0.5,3C74.1,10.5,73.2,9.6,74.2,8.4z"/>
<path class="st224" d="M78.2,11.4c-0.4-0.2-0.5-0.6-0.5-1c0.3-0.3,0.7-0.7,1-1C79.3,10.3,78.3,10.8,78.2,11.4z"/>
<path class="st225" d="M75.7,10.4c-0.3-1-1.5-2.4,1-2c0,0,0,0,0,0C77,9.4,77.2,10.4,75.7,10.4z"/>
<path class="st226" d="M75.7,10.4c0.9-0.4,1-1.1,1-2c0.7,0.5,0.4,1.3,0.5,2c-0.5,0.3-1,0.6-1.5,1C75.7,11.1,75.7,10.8,75.7,10.4z"/>
</svg>
