<?xml version="1.0" encoding="utf-8"?>
<!-- Generator: Adobe Illustrator 22.0.1, SVG Export Plug-In . SVG Version: 6.00 Build 0)  -->
<svg version="1.1" id="Layer_1" xmlns="http://www.w3.org/2000/svg" xmlns:xlink="http://www.w3.org/1999/xlink" x="0px" y="0px"
	 viewBox="0 0 178.7 78.4" style="enable-background:new 0 0 178.7 78.4;" xml:space="preserve">
<style type="text/css">
	.st0{fill:#FFFFFF;}
</style>
<path class="st0" d="M126.4,78.1C102.8,76.3,79.6,78,56.5,77c-13.3-0.6-26.6-2.6-38.8-8.3C2.6,61.5-4.2,51.8,0.1,34.8
	c1.7-6.9,10.3-14.1,17.4-14.5c5.4-0.3,11-1,16.2,1.8c2.8,1.5,4.2,0.1,5.2-2.5c3.2-8.6,9.4-15,17.7-17.8C66.7-1.9,76.7,0.4,84,9.1
	c2.4,2.9,4.1,2.9,7.1,1.2c11.1-6.2,24.9-3.6,31.9,5.8c0.5,0.7,1.3,1.3,1.4,2c1.2,5.1,3.2,8.9,9.5,8.2c1.5-0.2,3.6,1,4,2.6
	c1.4,5.6,3.9,2.8,7,1.6c9-3.7,17.2-1.3,24.7,4.4c6.8,5.2,11.1,11.9,9.8,20.5c-1.4,9.1-7.9,14.3-16.2,17.3c-3,1.1-6.1,1.7-9.2,2.4
	C144.8,77,135.4,77.5,126.4,78.1z"/>
</svg>
